{"glyphs":{"0":{"ha":728,"x_min":29,"x_max":700,"o":"m 367 672 q 494 645 433 672 q 600 572 554 618 q 673 465 646 526 q 700 335 700 404 q 674 206 700 267 q 602 100 647 146 q 496 28 557 54 q 364 1 435 1 q 234 26 294 1 q 128 96 174 51 q 56 201 82 140 q 29 335 29 263 q 55 465 29 404 q 126 570 81 525 q 233 642 171 615 q 367 672 294 669 m 115 335 q 135 238 115 283 q 188 159 154 193 q 267 106 222 125 q 364 86 313 86 q 461 106 415 86 q 541 159 507 125 q 594 238 575 193 q 614 335 614 283 q 594 432 614 386 q 541 512 575 478 q 461 565 507 546 q 364 585 415 585 q 267 565 313 585 q 188 512 222 546 q 135 432 154 478 q 115 335 115 386 z "},"1":{"ha":300,"x_min":3,"x_max":257,"o":"m 11 513 q 7 544 3 528 q 26 571 11 561 l 182 669 q 233 676 208 688 q 257 638 257 665 l 257 43 q 244 13 257 25 q 214 0 232 0 q 183 13 196 0 q 171 43 171 25 l 171 558 l 71 497 q 38 492 56 488 q 11 513 21 497 z "},"2":{"ha":624,"x_min":31,"x_max":597,"o":"m 47 460 q 69 543 49 504 q 126 611 90 582 q 210 657 163 640 q 313 674 258 674 q 415 656 367 674 q 500 610 464 639 q 557 540 536 581 q 578 454 578 500 q 554 365 578 406 q 490 294 531 324 q 484 290 490 294 q 450 265 478 285 q 365 203 422 246 q 204 86 308 161 l 554 86 q 585 74 572 86 q 597 43 597 61 q 585 13 597 25 q 554 0 572 0 l 74 0 q 43 13 56 0 q 31 43 31 25 q 47 78 31 65 q 176 171 119 131 q 273 241 232 211 q 342 291 314 271 q 390 325 371 311 q 442 363 435 357 q 479 403 465 379 q 493 454 493 426 q 479 506 493 481 q 440 549 465 531 q 383 578 415 567 q 313 589 350 589 q 241 577 274 589 q 184 546 208 565 q 146 502 160 526 q 132 454 132 478 q 119 424 132 436 q 89 413 107 413 q 59 425 71 413 q 47 460 47 438 z "},"3":{"ha":672,"x_min":18,"x_max":643,"o":"m 49 15 q 83 13 65 22 q 106 -14 100 4 q 189 -123 131 -81 q 324 -165 247 -165 q 413 -147 371 -165 q 488 -98 456 -129 q 538 -25 519 -67 q 556 65 556 17 q 538 155 556 113 q 488 229 519 197 q 413 279 456 261 q 324 297 371 297 q 295 294 310 297 q 267 290 281 292 q 242 290 254 288 q 221 300 229 292 q 208 331 208 313 q 219 361 207 349 l 457 589 l 131 589 q 100 601 113 589 q 88 632 88 614 q 100 663 88 650 q 131 675 113 675 l 558 675 q 599 646 589 675 q 582 596 607 617 l 364 382 q 474 347 422 375 q 563 277 525 319 q 622 181 600 235 q 643 65 643 126 q 618 -59 643 -1 q 549 -160 593 -117 q 448 -228 506 -203 q 324 -253 390 -253 q 220 -235 268 -253 q 133 -189 172 -218 q 67 -122 94 -160 q 25 -42 39 -83 q 27 -6 18 -22 q 49 15 36 10 z "},"4":{"ha":606,"x_min":11,"x_max":597,"o":"m 200 644 q 220 671 204 663 q 253 674 236 679 q 278 652 269 668 q 282 619 288 636 l 118 78 l 413 78 l 413 153 q 425 183 413 171 q 456 196 438 196 q 486 183 474 196 q 499 153 499 171 l 499 78 l 554 78 q 585 65 572 78 q 597 35 597 53 q 585 4 597 17 q 554 -8 572 -8 l 499 -8 l 499 -208 q 486 -239 499 -226 q 456 -251 474 -251 q 425 -239 438 -251 q 413 -208 413 -226 l 413 -8 l 63 -8 q 26 8 42 -8 q 18 49 11 25 l 200 644 z "},"5":{"ha":650,"x_min":36,"x_max":629,"o":"m 319 -253 q 220 -238 264 -253 q 143 -200 176 -224 q 86 -147 110 -176 q 47 -89 63 -118 q 42 -51 36 -71 q 64 -22 47 -32 q 99 -17 81 -12 q 133 -46 118 -22 q 206 -127 161 -99 q 319 -156 251 -156 q 401 -139 363 -156 q 469 -94 440 -122 q 515 -27 499 -65 q 532 56 532 11 q 515 137 532 99 q 468 204 497 175 q 400 251 439 233 q 317 268 361 268 l 86 268 q 56 281 68 268 q 43 311 43 293 l 43 632 q 56 663 43 650 q 86 675 68 675 l 494 675 q 528 660 514 675 q 543 626 543 646 q 528 592 543 607 q 494 578 514 578 l 129 578 l 129 365 l 314 365 q 437 341 379 365 q 537 274 494 317 q 604 176 579 232 q 629 56 629 119 q 605 -65 629 -8 q 538 -162 581 -121 q 440 -228 496 -204 q 319 -253 383 -253 z "},"6":{"ha":715,"x_min":24,"x_max":697,"o":"m 24 338 q 35 422 24 381 q 71 511 46 464 l 286 871 q 313 890 296 886 q 346 888 331 894 q 366 860 361 878 q 361 828 371 843 l 254 658 q 360 675 304 675 q 491 649 429 675 q 599 576 553 622 q 671 469 644 531 q 697 338 697 407 q 671 207 697 268 q 599 100 644 146 q 491 28 553 54 q 360 1 429 1 q 229 28 290 1 q 122 100 168 54 q 50 207 76 146 q 24 338 24 268 m 138 453 q 110 338 110 400 q 129 240 110 285 q 183 160 149 194 q 262 107 217 126 q 360 88 307 88 q 457 107 411 88 q 538 160 503 126 q 592 240 572 194 q 611 338 611 285 q 592 435 611 389 q 538 515 572 481 q 457 569 503 550 q 360 589 411 589 q 236 555 293 589 q 138 453 179 521 z "},"7":{"ha":646,"x_min":14,"x_max":644,"o":"m 14 632 q 26 663 14 650 q 57 675 39 675 l 594 675 q 632 651 619 675 q 633 611 644 631 l 176 -229 q 150 -249 167 -244 q 118 -246 133 -254 q 96 -220 101 -237 q 100 -187 90 -203 l 522 589 l 57 589 q 26 601 39 589 q 14 632 14 614 z "},"8":{"ha":669,"x_min":24,"x_max":646,"o":"m 110 311 q 127 223 110 264 q 175 151 144 182 q 247 103 206 121 q 335 86 288 86 q 423 103 382 86 q 494 151 464 121 q 543 223 525 182 q 561 311 561 264 q 543 399 561 358 q 494 471 525 440 q 423 519 464 501 q 335 538 382 538 q 247 519 288 538 q 175 471 206 501 q 127 399 144 440 q 110 311 110 358 m 221 736 q 254 656 221 689 q 335 622 288 622 q 415 656 382 622 q 449 736 449 689 q 415 817 449 783 q 335 850 382 850 q 254 817 288 850 q 221 736 221 783 m 136 736 q 151 814 136 778 q 194 877 167 850 q 257 920 221 904 q 335 936 293 936 q 413 920 376 936 q 476 877 449 904 q 519 814 503 850 q 535 736 535 778 q 517 656 535 693 q 471 590 500 618 q 597 478 549 553 q 646 311 646 404 q 622 190 646 246 q 555 91 597 133 q 456 24 513 49 q 335 0 399 0 q 213 24 269 0 q 115 91 157 49 q 48 190 72 133 q 24 311 24 246 q 72 479 24 404 q 199 592 119 554 q 153 656 169 619 q 136 736 136 693 z "},"9":{"ha":713,"x_min":17,"x_max":690,"o":"m 690 339 q 679 254 690 296 q 643 165 668 213 l 408 -229 q 381 -249 399 -244 q 349 -246 364 -253 q 328 -219 333 -236 q 333 -186 324 -201 l 460 18 q 354 1 410 1 q 223 28 285 1 q 115 100 161 54 q 43 208 69 146 q 17 339 17 269 q 43 469 17 408 q 115 576 69 531 q 223 649 161 622 q 354 675 285 675 q 485 649 424 675 q 592 576 546 622 q 664 469 638 531 q 690 339 690 408 m 576 224 q 604 339 604 276 q 585 436 604 390 q 531 516 565 482 q 451 569 497 550 q 354 589 406 589 q 256 569 301 589 q 176 516 211 550 q 122 436 142 482 q 103 339 103 390 q 122 241 103 286 q 176 161 142 196 q 256 107 211 126 q 354 88 301 88 q 478 122 421 88 q 576 224 535 156 z "},"f":{"ha":471,"x_min":8,"x_max":464,"o":"m 65 431 q 78 461 65 449 q 108 474 90 474 l 193 474 l 193 665 q 205 735 193 696 q 244 808 217 774 q 314 867 271 843 q 421 892 357 890 q 451 879 439 892 q 464 849 464 867 q 451 818 464 831 q 421 806 439 806 q 347 786 375 804 q 304 744 319 768 q 284 698 289 721 q 279 665 279 675 l 279 474 l 374 474 q 404 461 392 474 q 417 431 417 449 q 404 400 417 413 q 374 388 392 388 l 279 388 l 279 -25 q 267 -94 279 -56 q 228 -168 256 -133 q 158 -226 201 -203 q 51 -251 115 -250 q 21 -239 33 -251 q 8 -208 8 -226 q 21 -178 8 -190 q 51 -165 33 -165 q 125 -146 97 -164 q 168 -104 153 -128 q 188 -58 183 -81 q 193 -25 193 -36 l 193 388 l 108 388 q 78 400 90 388 q 65 431 65 413 z "},"h":{"ha":726,"x_min":42,"x_max":711,"o":"m 42 849 q 54 879 42 867 q 85 892 67 892 q 115 879 103 892 q 128 849 128 867 l 128 563 q 238 644 174 614 q 376 674 301 674 q 507 647 446 674 q 613 576 568 621 q 685 469 658 531 q 711 339 711 408 l 711 42 q 699 11 711 24 q 668 -1 686 -1 q 638 11 650 -1 q 625 42 625 24 l 625 339 q 606 435 625 390 q 552 515 586 481 q 473 568 518 549 q 376 588 428 588 q 282 569 326 588 q 204 518 238 550 q 150 442 171 486 q 128 349 129 399 l 128 42 q 115 11 128 24 q 85 -1 103 -1 q 54 11 67 -1 q 42 42 42 24 l 42 349 l 42 849 z "},"g":{"ha":725,"x_min":25,"x_max":696,"o":"m 285 -249 q 247 -262 268 -250 q 215 -293 226 -275 q 190 -314 207 -308 q 157 -312 174 -319 q 137 -287 142 -304 q 139 -256 132 -271 q 197 -190 158 -215 q 285 -164 236 -164 l 468 -164 q 524 -153 497 -164 q 569 -122 550 -142 q 600 -76 589 -103 q 611 -21 611 -50 q 601 33 611 7 q 571 78 590 58 q 474 24 526 43 q 360 4 421 4 q 230 29 290 4 q 124 99 169 54 q 51 204 78 143 q 25 338 25 265 q 51 467 25 407 q 122 573 76 528 q 228 645 167 618 q 363 675 290 672 q 490 648 429 675 q 596 575 550 621 q 669 468 642 529 q 696 338 696 407 q 678 231 696 282 q 629 139 661 181 q 678 67 660 108 q 696 -21 696 26 q 678 -109 696 -68 q 629 -181 660 -150 q 557 -231 599 -212 q 468 -249 515 -249 l 285 -249 m 111 338 q 131 241 111 286 q 184 162 150 196 q 263 108 218 128 q 360 89 308 89 q 457 108 411 89 q 537 162 503 128 q 590 241 571 196 q 610 338 610 286 q 590 435 610 389 q 537 515 571 481 q 457 568 503 549 q 360 588 411 588 q 263 568 308 588 q 184 515 218 549 q 131 435 150 481 q 111 338 111 389 z "},"i":{"ha":161,"x_min":24,"x_max":138,"o":"m 38 632 q 50 663 38 650 q 81 675 63 675 q 111 663 99 675 q 124 632 124 650 l 124 43 q 111 13 124 25 q 81 0 99 0 q 50 13 63 0 q 38 43 38 25 l 38 632 m 24 824 q 40 864 24 847 q 81 881 57 881 q 121 864 104 881 q 138 824 138 847 q 121 783 138 800 q 81 767 104 767 q 40 783 57 767 q 24 824 24 800 z "},"j":{"ha":313,"x_min":0,"x_max":285,"o":"m 0 -208 q 13 -178 0 -190 q 43 -165 25 -165 q 117 -146 89 -164 q 160 -104 144 -128 q 180 -58 175 -81 q 185 -25 185 -36 l 185 632 q 197 663 185 650 q 228 675 210 675 q 258 663 246 675 q 271 632 271 650 l 271 -25 q 259 -94 271 -56 q 220 -168 247 -133 q 150 -226 193 -203 q 43 -251 107 -250 q 13 -239 25 -251 q 0 -208 0 -226 m 171 825 q 188 865 171 849 q 228 882 204 882 q 268 865 251 882 q 285 825 285 849 q 268 785 285 801 q 228 768 251 768 q 188 785 204 768 q 171 825 171 801 z "},"k":{"ha":501,"x_min":42,"x_max":492,"o":"m 128 43 q 115 13 128 25 q 85 0 103 0 q 54 13 67 0 q 42 43 42 25 l 42 849 q 54 879 42 867 q 85 892 67 892 q 115 879 103 892 q 128 849 128 867 l 128 382 l 413 661 q 443 674 425 674 q 474 661 461 674 q 486 631 486 649 q 474 600 486 613 l 269 406 l 482 64 q 487 32 492 49 q 467 6 482 15 q 435 1 451 -4 q 408 21 418 6 l 207 343 l 128 264 l 128 43 z "},"l":{"ha":310,"x_min":36,"x_max":307,"o":"m 307 43 q 294 13 307 25 q 264 0 282 0 q 157 25 200 1 q 87 83 114 49 q 48 157 60 118 q 36 226 36 196 l 36 849 q 49 879 36 867 q 79 892 61 892 q 110 879 97 892 q 122 849 122 867 l 122 226 q 127 193 122 215 q 147 147 132 171 q 190 106 163 124 q 264 86 218 88 q 294 74 282 86 q 307 43 307 61 z "},"m":{"ha":901,"x_min":39,"x_max":861,"o":"m 407 446 q 363 547 404 507 q 265 588 322 588 q 210 576 236 588 q 166 546 185 565 q 136 501 147 526 q 125 446 125 475 l 125 43 q 113 13 125 25 q 82 0 100 0 q 51 13 64 0 q 39 43 39 25 l 39 446 q 56 535 39 493 q 104 607 74 576 q 176 656 135 638 q 265 674 218 674 q 371 648 324 674 q 449 579 418 622 q 528 648 481 622 q 633 674 575 674 q 722 656 681 674 q 794 607 764 638 q 843 535 825 576 q 861 446 861 493 l 861 43 q 849 13 861 25 q 818 0 836 0 q 788 13 800 0 q 775 43 775 25 l 775 446 q 764 501 775 475 q 733 546 753 526 q 688 576 714 565 q 633 588 663 588 q 578 576 604 588 q 534 546 553 565 q 504 501 515 526 q 493 446 493 475 l 493 210 q 481 179 493 192 q 450 167 468 167 q 419 179 432 167 q 407 210 407 192 l 407 446 z "},"n":{"ha":739,"x_min":35,"x_max":704,"o":"m 35 340 q 61 471 35 410 q 133 577 88 532 q 239 649 178 622 q 369 675 300 675 q 500 649 439 675 q 606 577 561 622 q 678 471 651 532 q 704 340 704 410 l 704 43 q 692 13 704 25 q 661 0 679 0 q 631 13 643 0 q 618 43 618 25 l 618 340 q 599 437 618 392 q 545 516 579 482 q 466 569 511 550 q 369 589 421 589 q 273 569 318 589 q 194 516 228 550 q 140 437 160 482 q 121 340 121 392 l 121 43 q 108 13 121 25 q 78 0 96 0 q 47 13 60 0 q 35 43 35 25 l 35 340 z "},"o":{"ha":728,"x_min":29,"x_max":700,"o":"m 367 672 q 494 645 433 672 q 600 572 554 618 q 673 465 646 526 q 700 335 700 404 q 674 206 700 267 q 602 100 647 146 q 496 28 557 54 q 364 1 435 1 q 234 26 294 1 q 128 96 174 51 q 56 201 82 140 q 29 335 29 263 q 55 465 29 404 q 126 570 81 525 q 233 642 171 615 q 367 672 294 669 m 115 335 q 135 238 115 283 q 188 159 154 193 q 267 106 222 125 q 364 86 313 86 q 461 106 415 86 q 541 159 507 125 q 594 238 575 193 q 614 335 614 283 q 594 432 614 386 q 541 512 575 478 q 461 565 507 546 q 364 585 415 585 q 267 565 313 585 q 188 512 222 546 q 135 432 154 478 q 115 335 115 386 z "},"p":{"ha":718,"x_min":38,"x_max":708,"o":"m 375 0 q 233 40 297 3 q 124 126 169 76 l 124 -208 q 111 -239 124 -226 q 81 -251 99 -251 q 50 -239 63 -251 q 38 -208 38 -226 l 38 338 q 64 471 38 410 q 136 576 90 532 q 242 646 182 621 q 372 671 303 671 q 504 644 443 671 q 610 572 565 618 q 682 466 656 526 q 708 338 708 406 q 681 207 708 268 q 608 100 654 146 q 502 27 563 54 q 375 0 442 0 m 124 338 q 146 238 125 283 q 200 158 167 192 q 278 106 233 125 q 372 88 322 88 q 469 107 424 88 q 549 160 515 126 q 603 240 583 194 q 622 338 622 286 q 603 434 622 389 q 549 513 583 479 q 469 567 515 547 q 372 586 424 586 q 276 567 321 586 q 197 513 231 547 q 143 434 163 479 q 124 338 124 389 z "},"q":{"ha":718,"x_min":10,"x_max":681,"o":"m 343 0 q 216 27 276 0 q 110 100 156 54 q 37 207 64 146 q 10 338 10 268 q 36 466 10 406 q 108 572 63 526 q 214 644 153 618 q 346 671 275 671 q 475 646 414 671 q 582 576 536 621 q 654 471 628 532 q 681 338 681 410 l 681 -208 q 668 -239 681 -226 q 638 -251 656 -251 q 607 -239 619 -251 q 594 -208 594 -226 l 594 126 q 485 40 549 76 q 343 0 421 3 m 594 338 q 575 434 594 389 q 522 513 556 479 q 442 567 488 547 q 346 586 397 586 q 249 567 294 586 q 169 513 203 547 q 115 434 135 479 q 96 338 96 389 q 115 240 96 286 q 169 160 135 194 q 249 107 203 126 q 346 88 294 88 q 440 106 396 88 q 518 158 485 125 q 572 238 551 192 q 594 338 592 283 z "},"r":{"ha":411,"x_min":31,"x_max":408,"o":"m 31 340 q 56 469 31 408 q 127 575 82 529 q 232 647 172 621 q 360 675 292 674 q 395 663 382 675 q 408 632 408 650 q 395 601 408 614 q 360 589 382 589 q 265 567 310 588 q 188 514 221 547 q 135 435 154 481 q 117 340 117 390 l 117 43 q 104 13 117 25 q 74 0 92 0 q 43 13 56 0 q 31 43 31 25 l 31 340 z "},"s":{"ha":786,"x_min":-90,"x_max":731,"o":"m 160 156 q 189 170 171 169 q 218 158 207 171 q 303 104 256 122 q 398 87 350 86 q 492 106 446 88 q 574 163 538 125 q 627 246 610 200 q 643 340 644 292 q 623 433 642 388 q 567 515 604 479 q 483 569 529 551 q 390 585 438 586 q 295 564 342 583 q 213 507 249 544 l -17 285 q -47 272 -28 272 q -76 283 -65 271 q -90 314 -90 296 q -79 344 -90 332 l 151 567 q 261 643 200 617 q 387 670 322 669 q 515 647 451 671 q 631 576 578 624 q 703 468 678 529 q 730 342 729 407 q 708 215 731 278 q 636 103 685 153 q 527 27 588 53 q 402 1 467 1 q 275 24 338 0 q 161 97 213 47 q 147 127 147 110 q 160 156 147 144 z "},"t":{"ha":628,"x_min":36,"x_max":622,"o":"m 36 849 q 49 879 36 867 q 79 892 61 892 q 110 879 97 892 q 122 849 122 867 l 122 678 l 429 678 q 465 665 451 678 q 478 635 478 653 q 465 604 478 617 q 429 592 451 592 l 122 592 l 122 335 q 142 238 122 283 q 195 159 161 193 q 274 106 229 125 q 371 86 319 86 q 467 105 422 86 q 544 157 511 124 q 573 172 556 169 q 606 163 590 174 q 619 135 617 151 q 613 103 622 118 q 504 27 567 54 q 371 0 442 0 q 240 26 301 0 q 134 98 179 53 q 63 204 89 143 q 36 335 36 265 l 36 849 z "},"u":{"ha":739,"x_min":35,"x_max":704,"o":"m 35 632 q 47 663 35 650 q 78 675 60 675 q 108 663 96 675 q 121 632 121 650 l 121 335 q 140 238 121 283 q 194 159 160 193 q 273 106 228 125 q 369 86 318 86 q 466 106 421 86 q 545 159 511 125 q 599 238 579 193 q 618 335 618 283 l 618 632 q 631 663 618 650 q 661 675 643 675 q 692 663 679 675 q 704 632 704 650 l 704 335 q 678 204 704 265 q 606 98 651 143 q 500 26 561 53 q 369 0 439 0 q 239 26 300 0 q 133 98 178 53 q 61 204 88 143 q 35 335 35 265 l 35 632 z "},"w":{"ha":900,"x_min":39,"x_max":861,"o":"m 407 458 q 419 489 407 476 q 450 501 432 501 q 481 489 468 501 q 493 458 493 476 l 493 228 q 504 173 493 199 q 534 128 515 147 q 578 97 553 108 q 633 86 604 86 q 688 97 663 86 q 733 128 714 108 q 764 173 753 147 q 775 228 775 199 l 775 631 q 788 661 775 649 q 818 674 800 674 q 849 661 836 674 q 861 631 861 649 l 861 228 q 843 139 861 181 q 794 67 825 97 q 722 18 764 36 q 633 0 681 0 q 528 26 575 0 q 449 94 481 51 q 371 26 418 51 q 265 0 324 0 q 176 18 218 0 q 104 67 135 36 q 56 139 74 97 q 39 228 39 181 l 39 631 q 51 661 39 649 q 82 674 64 674 q 113 661 100 674 q 125 631 125 649 l 125 228 q 136 173 125 199 q 166 128 147 147 q 210 97 185 108 q 265 86 236 86 q 363 126 322 86 q 407 228 404 167 l 407 458 z "},"v":{"ha":576,"x_min":19,"x_max":557,"o":"m 26 611 q 26 646 19 628 q 49 671 33 664 q 80 669 65 678 q 104 647 94 660 l 285 156 l 472 647 q 497 669 482 663 q 528 669 513 676 q 551 646 544 663 q 550 614 557 629 q 540 585 549 611 q 506 495 531 560 q 440 319 482 431 q 331 35 397 207 q 315 10 325 19 q 285 0 304 0 q 253 12 265 0 q 238 35 242 24 q 139 304 179 194 q 74 482 99 414 q 38 580 49 550 q 26 611 26 610 z "},"x":{"ha":744,"x_min":39,"x_max":706,"o":"m 693 13 q 662 0 679 0 q 632 14 644 0 l 372 275 l 113 14 q 83 0 100 0 q 51 13 65 0 q 39 42 39 25 q 51 74 39 60 l 311 336 l 53 599 q 40 630 40 613 q 51 660 39 647 q 83 673 65 672 q 113 661 100 674 l 372 397 l 632 661 q 662 673 644 674 q 693 660 679 672 q 705 630 706 647 q 692 599 704 613 l 432 336 l 693 74 q 706 42 706 60 q 693 13 706 25 z "},"y":{"ha":688,"x_min":24,"x_max":664,"o":"m 24 629 q 36 660 24 647 q 67 672 49 672 q 97 660 85 672 q 110 629 110 647 l 110 318 q 128 227 110 269 q 179 153 147 185 q 253 104 211 122 q 344 86 296 86 q 435 104 393 86 q 510 153 478 122 q 560 227 542 185 q 578 318 578 269 l 578 631 q 590 661 578 649 q 621 674 603 674 q 651 661 639 674 q 664 631 664 649 l 664 318 q 643 203 664 257 q 585 106 622 149 q 497 37 547 64 q 388 1 446 10 l 388 -208 q 375 -239 388 -226 q 344 -251 363 -251 q 314 -239 326 -251 q 301 -208 301 -226 l 301 0 q 191 35 242 8 q 103 105 140 63 q 44 202 65 147 q 24 318 24 257 l 24 629 z "},"z":{"ha":740,"x_min":35,"x_max":708,"o":"m 47 13 q 35 42 35 25 q 47 74 35 60 l 557 588 l 79 588 q 49 600 61 588 q 36 631 36 613 q 49 661 36 649 q 79 674 61 674 l 663 674 q 693 660 679 674 q 704 630 706 647 q 690 599 703 613 l 181 86 l 665 86 q 696 74 683 86 q 708 43 708 61 q 696 13 708 25 q 665 0 683 0 l 78 0 q 47 13 60 0 z "},"c":{"ha":644,"x_min":26,"x_max":613,"o":"m 536 514 q 457 563 501 544 q 361 582 413 582 q 265 563 310 582 q 185 509 219 543 q 132 429 151 475 q 113 332 113 383 q 132 235 113 281 q 185 156 151 190 q 265 103 219 122 q 361 83 310 83 q 457 102 413 83 q 536 154 501 121 q 567 167 549 167 q 597 154 585 167 q 609 123 610 142 q 593 89 608 104 q 559 60 581 76 q 508 31 538 44 q 441 8 478 17 q 361 -1 404 -1 q 231 24 292 -1 q 125 93 171 49 q 53 199 79 138 q 26 332 26 260 q 52 462 26 401 q 123 567 78 522 q 230 640 168 613 q 364 669 292 667 q 441 659 406 669 q 505 634 476 649 q 556 603 533 619 q 592 574 578 586 q 606 548 600 567 q 597 514 613 529 q 567 501 585 501 q 536 514 549 501 z "},"a":{"ha":733,"x_min":28,"x_max":699,"o":"m 365 672 q 492 645 432 672 q 599 572 553 618 q 672 465 644 526 q 699 335 699 404 l 699 42 q 686 11 699 24 q 656 -1 674 -1 q 625 11 638 -1 q 613 42 613 24 l 613 126 q 502 38 567 75 q 363 1 438 1 q 233 26 293 1 q 126 96 172 51 q 54 201 81 140 q 28 335 28 263 q 53 465 28 404 q 124 570 79 525 q 231 642 169 615 q 365 672 293 669 m 114 335 q 133 238 114 283 q 187 159 153 193 q 266 106 221 125 q 363 86 311 86 q 457 105 413 86 q 535 157 501 124 q 590 235 569 190 q 613 335 610 281 q 593 432 613 386 q 540 512 574 478 q 460 565 506 546 q 363 585 414 585 q 266 565 311 585 q 187 512 221 546 q 133 432 153 478 q 114 335 114 386 z "},"d":{"ha":719,"x_min":11,"x_max":682,"o":"m 344 672 q 486 633 422 669 q 596 546 550 596 l 596 849 q 608 879 596 867 q 639 892 621 892 q 669 879 657 892 q 682 849 682 867 l 682 335 q 656 201 682 263 q 583 96 629 140 q 476 26 538 51 q 347 1 415 1 q 215 28 276 1 q 109 100 154 54 q 38 206 64 146 q 11 335 11 267 q 38 465 11 404 q 111 572 65 526 q 217 645 157 618 q 344 672 278 672 m 596 335 q 573 435 593 389 q 519 514 553 481 q 442 566 486 547 q 347 585 397 585 q 250 565 296 585 q 170 512 204 546 q 117 432 136 478 q 97 335 97 386 q 117 238 97 283 q 170 159 136 193 q 250 106 204 125 q 347 86 296 86 q 444 106 399 86 q 523 159 489 125 q 576 238 557 193 q 596 335 596 283 z "},"!":{"ha":158,"x_min":22,"x_max":136,"o":"m 36 849 q 49 879 36 867 q 79 892 61 892 q 110 879 97 892 q 122 849 122 867 l 122 315 q 110 285 122 297 q 79 272 97 272 q 49 285 61 272 q 36 315 36 297 l 36 849 m 22 57 q 39 97 22 81 q 79 114 56 114 q 119 97 103 114 q 136 57 136 81 q 119 17 136 33 q 79 0 103 0 q 39 17 56 0 q 22 57 22 33 z "},"\"":{"ha":339,"x_min":1,"x_max":338,"o":"m 1 882 q 14 913 1 900 q 44 925 26 925 q 75 913 63 925 q 88 882 88 900 l 88 668 q 75 639 88 653 q 44 625 63 625 q 14 638 26 625 q 1 668 1 650 l 1 882 m 251 882 q 264 913 251 900 q 294 925 276 925 q 325 913 313 925 q 338 882 338 900 l 338 668 q 325 639 338 653 q 294 625 313 625 q 264 638 276 625 q 251 668 251 650 l 251 882 z "},"$":{"ha":619,"x_min":14,"x_max":604,"o":"m 274 0 l 88 0 q 57 13 69 0 q 44 43 44 25 q 57 74 44 61 q 88 86 69 86 l 274 86 l 274 397 q 169 416 217 397 q 87 468 121 435 q 33 546 53 501 q 14 642 14 590 q 33 738 14 693 q 87 815 53 782 q 169 868 121 849 q 274 888 217 888 l 274 996 q 286 1026 274 1014 q 317 1039 299 1039 q 347 1026 335 1039 q 360 996 360 1014 l 360 888 l 544 888 q 575 875 563 888 q 588 844 588 863 q 575 815 588 826 q 544 803 563 803 l 360 803 l 360 485 q 456 466 411 485 q 533 414 500 447 q 585 336 567 381 q 604 242 604 292 q 585 147 604 192 q 533 70 567 103 q 456 19 500 38 q 360 0 411 0 l 360 -110 q 347 -140 360 -128 q 317 -153 335 -153 q 286 -140 299 -153 q 274 -110 274 -128 l 274 0 m 100 643 q 113 581 100 610 q 148 531 125 553 q 203 497 171 510 q 274 485 235 485 l 274 803 q 203 790 235 803 q 148 756 171 778 q 113 705 125 733 q 100 643 100 676 m 518 242 q 506 302 518 274 q 472 351 493 331 q 422 385 451 372 q 360 397 393 397 l 360 86 q 422 99 393 86 q 472 132 451 111 q 506 181 493 153 q 518 242 518 210 z "},"%":{"ha":865,"x_min":22,"x_max":844,"o":"m 526 888 q 547 913 531 904 q 579 918 563 922 q 604 896 596 911 q 608 864 613 881 l 331 29 q 308 4 324 13 q 276 0 293 -4 q 250 22 258 6 q 249 54 242 38 l 526 888 m 22 722 q 38 800 22 764 q 81 863 54 836 q 144 906 108 890 q 222 922 181 922 q 300 906 264 922 q 363 863 336 890 q 406 800 390 836 q 422 722 422 764 q 406 644 422 681 q 363 581 390 608 q 300 538 336 554 q 222 522 264 522 q 144 538 181 522 q 81 581 108 554 q 38 644 54 608 q 22 722 22 681 m 108 722 q 142 642 108 675 q 222 608 175 608 q 303 642 269 608 q 336 722 336 675 q 303 803 336 769 q 222 836 269 836 q 142 803 175 836 q 108 722 108 769 m 444 199 q 460 276 444 240 q 503 340 476 313 q 567 383 531 367 q 644 399 603 399 q 722 383 686 399 q 785 340 758 367 q 828 276 813 313 q 844 199 844 240 q 828 121 844 157 q 785 58 813 85 q 722 15 758 31 q 644 -1 686 -1 q 567 15 603 -1 q 503 58 531 31 q 460 121 476 85 q 444 199 444 157 m 531 199 q 564 118 531 151 q 644 85 597 85 q 725 118 692 85 q 758 199 758 151 q 725 279 758 246 q 644 313 692 313 q 564 279 597 313 q 531 199 531 246 z "},"&":{"ha":747,"x_min":32,"x_max":726,"o":"m 32 247 q 63 370 32 314 q 147 461 94 426 q 146 463 146 461 q 74 546 101 494 q 47 657 47 597 q 66 751 47 707 q 117 827 85 794 q 194 878 150 860 q 288 897 238 897 q 381 878 338 897 q 458 827 425 860 q 509 751 490 794 q 528 657 528 707 q 512 572 528 613 q 469 500 496 532 q 404 447 442 468 q 324 419 367 425 l 529 236 l 647 343 q 678 353 661 354 q 707 339 696 353 q 717 307 718 325 q 703 278 717 289 l 593 178 l 711 67 q 726 38 725 56 q 715 6 726 19 q 686 -9 704 -8 q 654 1 668 -10 l 529 119 l 478 72 q 393 13 440 36 q 288 -10 346 -10 q 188 10 235 -10 q 107 65 142 31 q 52 147 72 100 q 32 247 32 194 m 135 657 q 146 598 135 625 q 178 550 157 571 q 226 517 199 529 q 288 504 254 506 q 347 516 319 504 q 396 549 375 528 q 428 597 417 569 q 440 657 440 625 q 428 717 440 689 q 396 765 417 744 q 347 798 375 786 q 288 810 319 810 q 228 798 256 810 q 179 765 200 786 q 147 717 158 744 q 135 657 135 689 m 215 401 q 144 339 171 381 q 117 247 117 297 q 130 181 117 211 q 167 126 143 150 q 221 90 190 103 q 288 76 251 76 q 372 103 331 76 q 465 178 413 129 l 215 401 z "},"'":{"ha":169,"x_min":40,"x_max":126,"o":"m 40 885 q 53 915 40 903 q 83 928 65 928 q 114 915 101 928 q 126 885 126 903 l 126 671 q 114 640 126 653 q 83 628 101 628 q 53 640 65 628 q 40 671 40 653 l 40 885 z "},"(":{"ha":469,"x_min":31,"x_max":457,"o":"m 414 839 q 291 819 346 839 q 197 765 236 799 q 138 685 158 731 q 117 588 117 639 l 117 111 q 138 14 117 60 q 197 -66 158 -32 q 291 -120 236 -100 q 414 -140 346 -140 q 445 -152 433 -140 q 457 -183 457 -164 q 445 -215 457 -203 q 414 -228 433 -228 q 256 -201 326 -228 q 135 -129 185 -175 q 58 -22 85 -83 q 31 111 31 40 l 31 588 q 58 720 31 658 q 135 828 85 782 q 256 900 185 874 q 414 926 326 926 q 445 914 433 926 q 457 882 457 901 q 445 851 457 863 q 414 839 433 839 z "},")":{"ha":469,"x_min":13,"x_max":439,"o":"m 56 839 q 24 851 36 839 q 13 882 13 863 q 24 914 13 901 q 56 926 36 926 q 214 900 143 926 q 335 828 285 874 q 412 720 385 782 q 439 588 439 658 l 439 111 q 412 -22 439 40 q 335 -129 385 -83 q 214 -201 285 -175 q 56 -228 143 -228 q 24 -215 36 -228 q 13 -183 13 -203 q 24 -152 13 -164 q 56 -140 36 -140 q 178 -120 124 -140 q 272 -66 233 -100 q 332 14 311 -32 q 353 111 353 60 l 353 588 q 332 685 353 639 q 272 765 311 731 q 178 819 233 799 q 56 839 124 839 z "},"*":{"ha":371,"x_min":19,"x_max":353,"o":"m 143 847 l 143 917 q 156 947 143 935 q 185 960 168 960 q 215 947 203 960 q 228 917 228 935 l 228 846 l 289 882 q 310 889 300 889 q 331 883 321 889 q 346 868 340 878 q 351 846 351 858 q 331 810 351 819 l 271 774 l 332 739 q 347 724 342 733 q 353 703 353 714 q 347 683 353 693 q 332 667 342 672 q 311 661 322 661 q 290 667 300 661 l 228 701 l 228 631 q 215 601 228 614 q 185 589 203 589 q 156 601 168 589 q 143 631 143 614 l 143 700 l 83 665 q 64 660 72 660 q 25 682 39 660 q 19 703 19 692 q 40 739 19 728 l 101 774 l 40 808 q 26 824 31 814 q 21 844 21 833 q 26 867 21 857 q 63 888 38 888 q 83 882 74 888 l 143 847 z "},"[":{"ha":319,"x_min":42,"x_max":313,"o":"m 42 849 q 54 879 42 867 q 85 892 67 892 l 269 892 q 300 879 288 892 q 313 849 313 867 q 300 818 313 831 q 269 806 288 806 l 128 806 l 128 -165 l 269 -165 q 300 -178 288 -165 q 313 -208 313 -190 q 300 -239 313 -226 q 269 -251 288 -251 l 85 -251 q 54 -239 67 -251 q 42 -208 42 -226 l 42 849 z "},"]":{"ha":321,"x_min":7,"x_max":278,"o":"m 278 -208 q 265 -239 278 -226 q 235 -251 253 -251 l 50 -251 q 19 -239 32 -251 q 7 -208 7 -226 q 19 -178 7 -190 q 50 -165 32 -165 l 192 -165 l 192 806 l 50 806 q 19 818 32 806 q 7 849 7 831 q 19 879 7 867 q 50 892 32 892 l 235 892 q 265 879 253 892 q 278 849 278 867 l 278 -208 z "},"+":{"ha":526,"x_min":6,"x_max":521,"o":"m 263 172 q 232 185 244 172 q 219 215 219 197 l 219 388 l 49 388 q 18 400 31 388 q 6 431 6 413 q 18 461 6 449 q 49 474 31 474 l 219 474 l 219 646 q 232 676 219 664 q 263 689 244 689 q 293 676 281 689 q 306 646 306 664 l 306 474 l 478 474 q 508 461 496 474 q 521 431 521 449 q 508 400 521 413 q 478 388 496 388 l 306 388 l 306 215 q 293 185 306 197 q 263 172 281 172 z "},",":{"ha":169,"x_min":40,"x_max":126,"o":"m 40 54 q 53 85 40 72 q 83 97 65 97 q 114 85 101 97 q 126 54 126 72 l 126 -160 q 114 -189 126 -175 q 83 -203 101 -203 q 53 -190 65 -203 q 40 -160 40 -178 l 40 54 z "},"-":{"ha":594,"x_min":40,"x_max":554,"o":"m 40 432 q 53 463 40 450 q 83 475 65 475 l 511 475 q 542 463 529 475 q 554 432 554 450 q 542 401 554 414 q 511 389 529 389 l 83 389 q 53 401 65 389 q 40 432 40 414 z "},".":{"ha":171,"x_min":29,"x_max":143,"o":"m 29 57 q 46 97 29 81 q 86 114 63 114 q 126 97 110 114 q 143 57 143 81 q 126 17 143 33 q 86 0 110 0 q 46 17 63 0 q 29 57 29 33 z "},"/":{"ha":372,"x_min":6,"x_max":367,"o":"m 279 889 q 301 914 285 906 q 333 917 317 922 q 358 894 350 910 q 361 863 367 879 l 94 29 q 72 4 88 13 q 40 1 57 -4 q 14 23 22 7 q 13 56 6 39 l 279 889 z "},"{":{"ha":554,"x_min":11,"x_max":536,"o":"m 11 350 q 24 381 11 368 q 54 393 36 393 l 132 393 l 132 560 q 156 691 132 631 q 224 797 179 751 q 336 867 269 842 q 490 893 403 893 q 522 881 510 893 q 533 849 533 868 q 522 817 533 829 q 490 806 510 806 q 371 787 422 806 q 285 735 319 768 q 235 656 251 701 q 218 560 218 611 l 218 79 q 235 -17 218 28 q 288 -94 253 -61 q 374 -145 322 -126 q 493 -164 425 -164 q 524 -176 513 -164 q 536 -207 536 -187 q 524 -239 536 -226 q 493 -251 513 -251 q 338 -226 406 -251 q 225 -157 271 -201 q 156 -52 179 -112 q 132 79 132 8 l 132 307 l 54 307 q 24 319 36 307 q 11 350 11 332 z "},"\\":{"ha":381,"x_min":6,"x_max":375,"o":"m 368 56 q 367 23 375 39 q 340 1 358 7 q 308 4 324 -4 q 286 29 293 13 l 11 835 q 14 867 6 851 q 39 889 22 882 q 72 886 56 894 q 93 861 88 878 l 368 56 z "},"|":{"ha":174,"x_min":42,"x_max":128,"o":"m 42 849 q 54 879 42 867 q 85 892 67 892 q 115 879 103 892 q 128 849 128 867 l 128 -208 q 115 -239 128 -226 q 85 -251 103 -251 q 54 -239 67 -251 q 42 -208 42 -226 l 42 849 z "},"}":{"ha":554,"x_min":18,"x_max":543,"o":"m 543 350 q 531 319 543 332 q 500 307 518 307 l 422 307 l 422 79 q 399 -52 422 8 q 329 -157 375 -112 q 216 -226 283 -201 q 61 -251 149 -251 q 30 -239 42 -251 q 18 -207 18 -226 q 30 -176 18 -187 q 61 -164 42 -164 q 181 -145 129 -164 q 267 -94 232 -126 q 319 -17 301 -61 q 336 79 336 28 l 336 558 q 319 655 336 610 q 269 733 303 700 q 183 785 235 767 q 64 804 132 804 q 33 816 44 804 q 21 847 21 828 q 33 879 21 867 q 64 892 44 892 q 218 866 151 892 q 330 795 285 840 q 399 690 375 750 q 422 558 422 629 l 422 393 l 500 393 q 531 381 518 393 q 543 350 543 368 z "},":":{"ha":178,"x_min":32,"x_max":146,"o":"m 32 57 q 49 97 32 81 q 89 114 65 114 q 129 97 113 114 q 146 57 146 81 q 129 17 146 33 q 89 0 113 0 q 49 17 65 0 q 32 57 32 33 m 32 603 q 49 643 32 626 q 89 660 65 660 q 129 643 113 660 q 146 603 146 626 q 129 563 146 579 q 89 546 113 546 q 49 563 65 546 q 32 603 32 579 z "},";":{"ha":153,"x_min":19,"x_max":133,"o":"m 19 615 q 36 656 19 639 q 76 672 53 672 q 117 656 100 672 q 133 615 133 639 q 117 575 133 592 q 76 558 100 558 q 36 575 53 558 q 19 615 19 592 m 32 54 q 44 85 32 72 q 75 97 57 97 q 106 85 93 97 q 118 54 118 72 l 118 -160 q 106 -189 118 -175 q 75 -203 93 -203 q 44 -190 57 -203 q 32 -160 32 -178 l 32 54 z "},"’":{"ha":229,"x_min":13,"x_max":217,"o":"m 133 861 q 159 883 142 878 q 192 878 176 888 q 212 852 207 869 q 210 819 217 835 l 96 621 q 70 601 88 606 q 38 604 53 596 q 17 631 22 615 q 21 663 13 647 l 133 861 z "},"“":{"ha":526,"x_min":26,"x_max":499,"o":"m 147 860 q 173 881 156 876 q 206 876 190 886 q 226 851 221 868 q 224 818 231 833 l 110 619 q 84 599 101 604 q 51 603 67 594 q 31 630 36 614 q 35 661 26 646 l 147 860 m 415 860 q 441 881 424 876 q 474 876 458 886 q 494 851 489 868 q 492 818 499 833 l 378 619 q 352 599 369 604 q 319 603 335 594 q 299 630 304 614 q 303 661 294 646 l 415 860 z "},"”":{"ha":526,"x_min":26,"x_max":499,"o":"m 147 860 q 173 881 156 876 q 206 876 190 886 q 226 851 221 868 q 224 818 231 833 l 110 619 q 84 599 101 604 q 51 603 67 594 q 31 630 36 614 q 35 661 26 646 l 147 860 m 415 860 q 441 881 424 876 q 474 876 458 886 q 494 851 489 868 q 492 818 499 833 l 378 619 q 352 599 369 604 q 319 603 335 594 q 299 630 304 614 q 303 661 294 646 l 415 860 z "},"‚":{"ha":158,"x_min":19,"x_max":150,"o":"m 19 -251 q 20 -245 19 -250 q 25 -217 21 -240 q 38 -142 29 -193 q 64 1 47 -92 q 78 31 67 18 q 107 44 89 44 q 138 32 125 44 q 150 1 150 19 q 148 -8 150 -1 q 138 -40 146 -15 q 112 -113 129 -64 q 63 -251 94 -162 q 40 -272 56 -272 q 19 -251 19 -272 z "},"„":{"ha":447,"x_min":33,"x_max":419,"o":"m 33 -251 q 34 -245 33 -250 q 39 -217 35 -240 q 52 -142 43 -193 q 78 1 61 -92 q 92 31 81 18 q 121 44 103 44 q 151 32 139 44 q 164 1 164 19 q 162 -8 164 -1 q 151 -40 160 -15 q 126 -113 143 -64 q 76 -251 108 -162 q 54 -272 69 -272 q 33 -251 33 -272 m 289 -251 q 290 -245 289 -250 q 294 -217 290 -240 q 308 -142 299 -193 q 333 1 317 -92 q 347 31 336 18 q 376 44 358 44 q 407 32 394 44 q 419 1 419 19 q 417 -8 419 -1 q 407 -40 415 -15 q 381 -113 399 -64 q 332 -251 364 -162 q 310 -272 325 -272 q 289 -251 289 -272 z "},"`":{"ha":344,"x_min":13,"x_max":299,"o":"m 276 822 q 294 797 290 813 q 292 764 299 781 q 264 744 281 747 q 232 749 247 740 l 35 864 q 16 892 19 875 q 21 924 13 908 q 47 944 29 939 q 79 938 64 949 l 276 822 z "},"à":{"ha":810,"x_min":28,"x_max":699,"o":"m 365 672 q 492 645 432 672 q 599 572 553 618 q 672 465 644 526 q 699 335 699 404 l 699 42 q 686 11 699 24 q 656 -1 674 -1 q 625 11 638 -1 q 613 42 613 24 l 613 126 q 502 38 567 75 q 363 1 438 1 q 233 26 293 1 q 126 96 172 51 q 54 201 81 140 q 28 335 28 263 q 53 465 28 404 q 124 570 79 525 q 231 642 169 615 q 365 672 293 669 m 114 335 q 133 238 114 283 q 187 159 153 193 q 266 106 221 125 q 363 86 311 86 q 457 105 413 86 q 535 157 501 124 q 590 235 569 190 q 613 335 610 281 q 593 432 613 386 q 540 512 574 478 q 460 565 506 546 q 363 585 414 585 q 266 565 311 585 q 187 512 221 546 q 133 432 153 478 q 114 335 114 386 m 400 843 q 418 817 414 833 q 415 785 422 801 q 388 765 404 768 q 356 769 371 761 l 158 885 q 140 913 143 896 q 144 944 136 929 q 170 965 153 960 q 203 958 188 969 l 400 843 z "},"´":{"ha":344,"x_min":13,"x_max":299,"o":"m 232 938 q 265 944 247 949 q 290 924 282 939 q 295 892 299 908 q 276 864 292 875 l 79 749 q 47 744 64 740 q 19 764 31 747 q 17 797 13 781 q 35 822 21 813 l 232 938 z "},"á":{"ha":810,"x_min":28,"x_max":699,"o":"m 365 672 q 492 645 432 672 q 599 572 553 618 q 672 465 644 526 q 699 335 699 404 l 699 42 q 686 11 699 24 q 656 -1 674 -1 q 625 11 638 -1 q 613 42 613 24 l 613 126 q 502 38 567 75 q 363 1 438 1 q 233 26 293 1 q 126 96 172 51 q 54 201 81 140 q 28 335 28 263 q 53 465 28 404 q 124 570 79 525 q 231 642 169 615 q 365 672 293 669 m 114 335 q 133 238 114 283 q 187 159 153 193 q 266 106 221 125 q 363 86 311 86 q 457 105 413 86 q 535 157 501 124 q 590 235 569 190 q 613 335 610 281 q 593 432 613 386 q 540 512 574 478 q 460 565 506 546 q 363 585 414 585 q 266 565 311 585 q 187 512 221 546 q 133 432 153 478 q 114 335 114 386 m 504 957 q 537 963 519 968 q 563 943 554 958 q 567 911 571 928 q 549 883 564 894 l 351 768 q 319 763 336 760 q 292 783 303 767 q 289 816 285 800 q 307 842 293 832 l 504 957 z "},"?":{"ha":571,"x_min":15,"x_max":560,"o":"m 158 386 q 172 422 158 408 q 207 435 185 435 l 288 435 q 360 449 326 435 q 419 489 394 464 q 459 547 444 514 q 474 619 474 581 q 459 692 474 658 q 419 751 444 726 q 360 791 394 776 q 288 806 326 806 q 217 791 250 806 q 158 751 183 776 q 119 692 133 726 q 103 619 104 658 q 90 588 103 600 q 58 576 78 576 q 27 588 39 576 q 15 619 15 600 q 37 726 15 676 q 95 813 58 776 q 181 872 132 850 q 288 893 231 893 q 393 872 343 893 q 480 813 443 850 q 538 726 517 776 q 560 621 560 676 q 538 515 560 564 q 480 428 517 465 q 393 370 443 392 q 288 349 343 349 l 244 349 l 244 283 q 232 248 244 261 q 201 235 219 235 q 171 248 183 235 q 158 283 158 261 l 158 386 m 144 57 q 161 97 144 81 q 201 114 178 114 q 242 97 225 114 q 258 57 258 81 q 242 17 258 33 q 201 0 225 0 q 161 17 178 0 q 144 57 144 33 z "},"A":{"ha":793,"x_min":18,"x_max":775,"o":"m 768 58 q 768 26 775 42 q 744 3 761 10 q 712 3 728 -4 q 689 26 696 11 l 633 154 l 158 154 l 104 26 q 81 3 97 11 q 49 3 65 -4 q 25 26 32 10 q 25 58 18 42 l 357 860 q 372 881 361 871 q 397 892 383 892 q 422 882 411 892 q 439 860 433 872 l 768 58 m 194 240 l 599 240 l 397 731 l 194 240 z "},"B":{"ha":718,"x_min":42,"x_max":685,"o":"m 42 847 q 54 878 42 865 q 85 890 67 890 l 442 890 q 533 872 490 890 q 609 820 576 853 q 660 744 642 788 q 679 653 679 701 q 651 538 679 590 q 575 454 622 486 q 654 367 624 421 q 685 249 685 314 q 666 153 685 197 q 614 74 647 108 q 536 21 581 40 q 442 0 492 1 l 85 0 q 54 13 67 0 q 42 43 42 25 l 42 847 m 404 456 q 416 485 404 474 q 446 497 428 497 q 504 511 476 499 q 553 544 532 524 q 585 592 574 565 q 597 651 597 619 q 585 710 597 682 q 551 758 572 738 q 501 792 529 779 q 442 804 472 804 l 128 804 l 128 86 l 442 86 q 502 99 474 86 q 551 135 531 113 q 585 187 572 157 q 597 249 597 217 q 559 354 597 307 q 446 414 521 401 q 416 426 428 414 q 404 456 404 438 z "},"=":{"ha":576,"x_min":40,"x_max":536,"o":"m 40 319 q 53 350 40 338 q 83 363 65 363 l 493 363 q 524 350 511 363 q 536 319 536 338 q 524 289 536 301 q 493 276 511 276 l 83 276 q 53 289 65 276 q 40 319 40 301 m 40 603 q 53 633 40 621 q 83 646 65 646 l 493 646 q 524 633 511 646 q 536 603 536 621 q 524 572 536 585 q 493 560 511 560 l 83 560 q 53 572 65 560 q 40 603 40 585 z "},"<":{"ha":474,"x_min":7,"x_max":439,"o":"m 408 285 q 431 261 424 278 q 431 226 439 244 q 406 206 424 211 q 372 210 388 201 l 21 397 l 19 399 q 7 429 7 411 q 19 460 7 447 l 372 649 q 404 653 388 657 q 429 638 421 650 q 435 605 439 622 q 415 579 431 588 l 113 429 l 408 285 z "},">":{"ha":475,"x_min":36,"x_max":468,"o":"m 363 429 l 60 579 q 40 605 44 588 q 46 638 36 622 q 71 653 54 650 q 103 649 88 657 l 456 460 q 468 429 468 447 q 456 399 468 411 l 454 397 l 103 210 q 69 206 88 201 q 44 226 51 211 q 44 261 36 244 q 67 285 51 278 l 363 429 z "},"ˆ":{"ha":546,"x_min":22,"x_max":524,"o":"m 272 1089 l 96 908 q 65 896 83 896 q 35 908 47 896 q 22 939 22 921 q 35 969 22 957 l 242 1182 q 272 1194 254 1194 q 303 1182 290 1194 l 304 1181 l 511 972 q 524 942 524 960 q 511 911 524 924 q 481 899 499 899 q 450 911 463 899 l 272 1089 z "},"˜":{"ha":624,"x_min":33,"x_max":590,"o":"m 49 728 q 33 757 33 739 q 46 788 33 775 q 78 825 60 806 q 118 860 97 844 q 163 887 139 876 q 211 897 186 897 q 269 881 240 897 q 324 844 297 864 q 375 807 351 824 q 418 790 399 790 q 449 799 433 790 q 476 821 464 808 q 499 847 489 833 q 514 869 508 860 q 539 888 524 883 q 568 883 554 892 q 587 858 583 874 q 582 828 590 842 q 554 784 571 806 q 516 746 538 763 q 469 719 494 729 q 418 710 444 710 q 363 726 389 710 q 310 763 336 743 q 260 799 285 782 q 211 815 236 815 q 179 807 194 815 q 150 786 164 799 q 125 760 136 774 q 104 735 114 746 q 78 719 94 721 q 49 728 63 717 z "},"¡":{"ha":225,"x_min":22,"x_max":136,"o":"m 36 -146 q 49 -176 36 -164 q 79 -189 61 -189 q 110 -176 97 -189 q 122 -146 122 -164 l 122 388 q 110 418 122 406 q 79 431 97 431 q 49 418 61 431 q 36 388 36 406 l 36 -146 m 22 646 q 39 606 22 622 q 79 589 56 589 q 119 606 103 589 q 136 646 136 622 q 119 686 136 669 q 79 703 103 703 q 39 686 56 703 q 22 646 22 669 z "},"¿":{"ha":683,"x_min":124,"x_max":668,"o":"m 525 288 q 512 252 525 265 q 476 239 499 239 l 396 239 q 323 224 357 239 q 264 185 289 210 q 224 127 239 160 q 210 54 210 93 q 224 -19 210 15 q 264 -78 239 -53 q 323 -117 289 -103 q 396 -132 357 -132 q 467 -117 433 -132 q 525 -78 500 -103 q 565 -19 550 -53 q 581 54 579 15 q 593 86 581 74 q 625 97 606 97 q 656 86 644 97 q 668 54 668 74 q 647 -53 668 -3 q 588 -139 625 -103 q 502 -198 551 -176 q 396 -219 453 -219 q 290 -198 340 -219 q 204 -139 240 -176 q 145 -53 167 -103 q 124 53 124 -3 q 145 159 124 110 q 204 245 167 208 q 290 304 240 282 q 396 325 340 325 l 439 325 l 439 390 q 451 426 439 413 q 482 439 464 439 q 513 426 500 439 q 525 390 525 413 l 525 288 m 539 617 q 522 576 539 593 q 482 560 506 560 q 442 576 458 560 q 425 617 425 593 q 442 657 425 640 q 482 674 458 674 q 522 657 506 674 q 539 617 539 640 z "},"â":{"ha":810,"x_min":28,"x_max":699,"o":"m 365 675 q 492 648 432 675 q 599 575 553 621 q 672 468 644 529 q 699 338 699 407 l 699 44 q 686 14 699 26 q 656 1 674 1 q 625 14 638 1 q 613 44 613 26 l 613 129 q 502 41 567 78 q 363 4 438 4 q 233 29 293 4 q 126 99 172 54 q 54 204 81 143 q 28 338 28 265 q 53 467 28 407 q 124 573 79 528 q 231 645 169 618 q 365 675 293 672 m 114 338 q 133 241 114 286 q 187 162 153 196 q 266 108 221 128 q 363 89 311 89 q 457 108 413 89 q 535 160 501 126 q 590 238 569 193 q 613 338 610 283 q 593 435 613 389 q 540 515 574 481 q 460 568 506 549 q 363 588 414 588 q 266 568 311 588 q 187 515 221 549 q 133 435 153 481 q 114 338 114 389 m 363 917 l 186 736 q 156 724 174 724 q 125 736 138 724 q 113 767 113 749 q 125 797 113 785 l 332 1010 q 363 1022 344 1022 q 393 1010 381 1022 l 394 1008 l 601 800 q 614 769 614 788 q 601 739 614 751 q 571 726 589 726 q 540 739 553 726 l 363 917 z "},"ã":{"ha":746,"x_min":28,"x_max":699,"o":"m 365 672 q 492 645 432 672 q 599 572 553 618 q 672 465 644 526 q 699 335 699 404 l 699 42 q 686 11 699 24 q 656 -1 674 -1 q 625 11 638 -1 q 613 42 613 24 l 613 126 q 502 38 567 75 q 363 1 438 1 q 233 26 293 1 q 126 96 172 51 q 54 201 81 140 q 28 335 28 263 q 53 465 28 404 q 124 570 79 525 q 231 642 169 615 q 365 672 293 669 m 114 335 q 133 238 114 283 q 187 159 153 193 q 266 106 221 125 q 363 86 311 86 q 457 105 413 86 q 535 157 501 124 q 590 235 569 190 q 613 335 610 281 q 593 432 613 386 q 540 512 574 478 q 460 565 506 546 q 363 585 414 585 q 266 565 311 585 q 187 512 221 546 q 133 432 153 478 q 114 335 114 386 m 103 779 q 88 808 88 790 q 100 839 88 826 q 133 876 114 857 q 172 912 151 896 q 217 938 193 928 q 265 949 240 949 q 323 932 294 949 q 378 895 351 915 q 429 858 406 875 q 472 842 453 842 q 503 851 488 842 q 531 872 518 860 q 553 898 543 885 q 568 921 563 911 q 593 939 578 935 q 622 935 608 943 q 641 909 638 925 q 636 879 644 893 q 608 835 625 857 q 570 797 592 814 q 524 771 549 781 q 472 761 499 761 q 417 778 443 761 q 365 814 390 794 q 315 850 339 833 q 265 867 290 867 q 233 858 249 867 q 204 838 218 850 q 179 811 190 825 q 158 786 168 797 q 133 770 149 772 q 103 779 117 768 z "},"¨":{"ha":506,"x_min":38,"x_max":468,"o":"m 38 931 q 54 971 38 954 q 94 988 71 988 q 135 971 118 988 q 151 931 151 954 q 135 890 151 907 q 94 874 118 874 q 54 890 71 874 q 38 931 38 907 m 354 931 q 371 971 354 954 q 411 988 388 988 q 451 971 435 988 q 468 931 468 954 q 451 890 468 907 q 411 874 435 874 q 371 890 388 874 q 354 931 354 907 z "},"ë":{"ha":746,"x_min":29,"x_max":703,"o":"m 118 294 q 147 212 125 250 q 202 146 169 174 q 276 102 235 118 q 364 86 318 86 q 460 105 415 86 q 539 157 504 124 q 569 169 551 169 q 600 157 588 169 q 613 126 613 144 q 600 96 613 108 q 497 23 554 44 q 364 1 439 1 q 234 26 294 1 q 128 96 174 51 q 56 201 82 140 q 29 335 29 263 q 55 465 29 404 q 126 570 81 525 q 233 642 171 615 q 367 672 294 669 q 492 646 433 672 q 597 575 551 619 q 670 471 643 531 q 700 343 697 411 q 688 307 703 319 q 657 294 674 294 l 118 294 m 364 585 q 277 569 318 585 q 203 526 236 553 q 149 461 171 499 q 119 381 128 424 l 610 381 q 579 461 601 424 q 524 526 557 499 q 451 569 492 553 q 364 585 410 585 m 154 857 q 171 897 154 881 q 211 914 188 914 q 251 897 235 914 q 268 857 268 881 q 251 817 268 833 q 211 800 235 800 q 171 817 188 800 q 154 857 154 833 m 471 857 q 488 897 471 881 q 528 914 504 914 q 568 897 551 914 q 585 857 585 881 q 568 817 585 833 q 528 800 551 800 q 488 817 504 800 q 471 857 471 833 z "},"ò":{"ha":810,"x_min":29,"x_max":700,"o":"m 367 672 q 494 645 433 672 q 600 572 554 618 q 673 465 646 526 q 700 335 700 404 q 674 206 700 267 q 602 100 647 146 q 496 28 557 54 q 364 1 435 1 q 234 26 294 1 q 128 96 174 51 q 56 201 82 140 q 29 335 29 263 q 55 465 29 404 q 126 570 81 525 q 233 642 171 615 q 367 672 294 669 m 115 335 q 135 238 115 283 q 188 159 154 193 q 267 106 222 125 q 364 86 313 86 q 461 106 415 86 q 541 159 507 125 q 594 238 575 193 q 614 335 614 283 q 594 432 614 386 q 541 512 575 478 q 461 565 507 546 q 364 585 415 585 q 267 565 313 585 q 188 512 222 546 q 135 432 154 478 q 115 335 115 386 m 404 842 q 422 816 418 832 q 419 783 426 800 q 392 763 408 767 q 360 768 375 760 l 163 883 q 144 911 147 894 q 149 943 140 928 q 174 963 157 958 q 207 957 192 968 l 404 842 z "},"ó":{"ha":810,"x_min":29,"x_max":700,"o":"m 367 672 q 494 645 433 672 q 600 572 554 618 q 673 465 646 526 q 700 335 700 404 q 674 206 700 267 q 602 100 647 146 q 496 28 557 54 q 364 1 435 1 q 234 26 294 1 q 128 96 174 51 q 56 201 82 140 q 29 335 29 263 q 55 465 29 404 q 126 570 81 525 q 233 642 171 615 q 367 672 294 669 m 115 335 q 135 238 115 283 q 188 159 154 193 q 267 106 222 125 q 364 86 313 86 q 461 106 415 86 q 541 159 507 125 q 594 238 575 193 q 614 335 614 283 q 594 432 614 386 q 541 512 575 478 q 461 565 507 546 q 364 585 415 585 q 267 565 313 585 q 188 512 222 546 q 135 432 154 478 q 115 335 115 386 m 524 957 q 556 963 539 968 q 582 943 574 958 q 587 911 590 928 q 568 883 583 894 l 371 768 q 339 763 356 760 q 311 783 322 767 q 308 816 304 800 q 326 842 313 832 l 524 957 z "},"ô":{"ha":810,"x_min":29,"x_max":700,"o":"m 367 672 q 494 645 433 672 q 600 572 554 618 q 673 465 646 526 q 700 335 700 404 q 674 206 700 267 q 602 100 647 146 q 496 28 557 54 q 364 1 435 1 q 234 26 294 1 q 128 96 174 51 q 56 201 82 140 q 29 335 29 263 q 55 465 29 404 q 126 570 81 525 q 233 642 171 615 q 367 672 294 669 m 115 335 q 135 238 115 283 q 188 159 154 193 q 267 106 222 125 q 364 86 313 86 q 461 106 415 86 q 541 159 507 125 q 594 238 575 193 q 614 335 614 283 q 594 432 614 386 q 541 512 575 478 q 461 565 507 546 q 364 585 415 585 q 267 565 313 585 q 188 512 222 546 q 135 432 154 478 q 115 335 115 386 m 357 919 l 181 739 q 150 726 168 726 q 119 739 132 726 q 107 769 107 751 q 119 800 107 788 l 326 1013 q 357 1025 339 1025 q 388 1013 375 1025 l 389 1011 l 596 803 q 608 772 608 790 q 596 742 608 754 q 565 729 583 729 q 535 742 547 729 l 357 919 z "},"õ":{"ha":854,"x_min":29,"x_max":700,"o":"m 367 672 q 494 645 433 672 q 600 572 554 618 q 673 465 646 526 q 700 335 700 404 q 674 206 700 267 q 602 100 647 146 q 496 28 557 54 q 364 1 435 1 q 234 26 294 1 q 128 96 174 51 q 56 201 82 140 q 29 335 29 263 q 55 465 29 404 q 126 570 81 525 q 233 642 171 615 q 367 672 294 669 m 115 335 q 135 238 115 283 q 188 159 154 193 q 267 106 222 125 q 364 86 313 86 q 461 106 415 86 q 541 159 507 125 q 594 238 575 193 q 614 335 614 283 q 594 432 614 386 q 541 512 575 478 q 461 565 507 546 q 364 585 415 585 q 267 565 313 585 q 188 512 222 546 q 135 432 154 478 q 115 335 115 386 m 94 779 q 79 808 79 790 q 92 839 79 826 q 124 876 106 857 q 164 912 143 896 q 208 938 185 928 q 257 949 232 949 q 315 932 286 949 q 370 895 343 915 q 421 858 397 875 q 464 842 444 842 q 494 851 479 842 q 522 872 510 860 q 544 898 535 885 q 560 921 554 911 q 585 939 569 935 q 614 935 600 943 q 633 909 629 925 q 628 879 636 893 q 600 835 617 857 q 562 797 583 814 q 515 771 540 781 q 464 761 490 761 q 408 778 435 761 q 356 814 382 794 q 306 850 331 833 q 257 867 282 867 q 225 858 240 867 q 196 838 210 850 q 171 811 182 825 q 150 786 160 797 q 124 770 140 772 q 94 779 108 768 z "},"ö":{"ha":810,"x_min":29,"x_max":700,"o":"m 367 672 q 494 645 433 672 q 600 572 554 618 q 673 465 646 526 q 700 335 700 404 q 674 206 700 267 q 602 100 647 146 q 496 28 557 54 q 364 1 435 1 q 234 26 294 1 q 128 96 174 51 q 56 201 82 140 q 29 335 29 263 q 55 465 29 404 q 126 570 81 525 q 233 642 171 615 q 367 672 294 669 m 115 335 q 135 238 115 283 q 188 159 154 193 q 267 106 222 125 q 364 86 313 86 q 461 106 415 86 q 541 159 507 125 q 594 238 575 193 q 614 335 614 283 q 594 432 614 386 q 541 512 575 478 q 461 565 507 546 q 364 585 415 585 q 267 565 313 585 q 188 512 222 546 q 135 432 154 478 q 115 335 115 386 m 147 858 q 164 899 147 882 q 204 915 181 915 q 244 899 228 915 q 261 858 261 882 q 244 818 261 835 q 204 801 228 801 q 164 818 181 801 q 147 858 147 835 m 464 858 q 481 899 464 882 q 521 915 497 915 q 561 899 544 915 q 578 858 578 882 q 561 818 578 835 q 521 801 544 801 q 481 818 497 801 q 464 858 464 835 z "},"ù":{"ha":808,"x_min":35,"x_max":704,"o":"m 35 632 q 47 663 35 650 q 78 675 60 675 q 108 663 96 675 q 121 632 121 650 l 121 335 q 140 238 121 283 q 194 159 160 193 q 273 106 228 125 q 369 86 318 86 q 466 106 421 86 q 545 159 511 125 q 599 238 579 193 q 618 335 618 283 l 618 632 q 631 663 618 650 q 661 675 643 675 q 692 663 679 675 q 704 632 704 650 l 704 335 q 678 204 704 265 q 606 98 651 143 q 500 26 561 53 q 369 0 439 0 q 239 26 300 0 q 133 98 178 53 q 61 204 88 143 q 35 335 35 265 l 35 632 m 418 846 q 436 820 432 836 q 433 788 440 804 q 406 767 422 771 q 374 772 389 764 l 176 888 q 158 915 161 899 q 163 947 154 932 q 188 967 171 963 q 221 961 206 972 l 418 846 z "},"ú":{"ha":808,"x_min":35,"x_max":704,"o":"m 35 632 q 47 663 35 650 q 78 675 60 675 q 108 663 96 675 q 121 632 121 650 l 121 335 q 140 238 121 283 q 194 159 160 193 q 273 106 228 125 q 369 86 318 86 q 466 106 421 86 q 545 159 511 125 q 599 238 579 193 q 618 335 618 283 l 618 632 q 631 663 618 650 q 661 675 643 675 q 692 663 679 675 q 704 632 704 650 l 704 335 q 678 204 704 265 q 606 98 651 143 q 500 26 561 53 q 369 0 439 0 q 239 26 300 0 q 133 98 178 53 q 61 204 88 143 q 35 335 35 265 l 35 632 m 450 935 q 483 941 465 946 q 508 921 500 936 q 513 889 517 906 q 494 861 510 872 l 297 746 q 265 741 282 738 q 238 761 249 744 q 235 794 231 778 q 253 819 239 810 l 450 935 z "},"û":{"ha":808,"x_min":35,"x_max":704,"o":"m 35 632 q 47 663 35 650 q 78 675 60 675 q 108 663 96 675 q 121 632 121 650 l 121 335 q 140 238 121 283 q 194 159 160 193 q 273 106 228 125 q 369 86 318 86 q 466 106 421 86 q 545 159 511 125 q 599 238 579 193 q 618 335 618 283 l 618 632 q 631 663 618 650 q 661 675 643 675 q 692 663 679 675 q 704 632 704 650 l 704 335 q 678 204 704 265 q 606 98 651 143 q 500 26 561 53 q 369 0 439 0 q 239 26 300 0 q 133 98 178 53 q 61 204 88 143 q 35 335 35 265 l 35 632 m 371 915 l 194 735 q 164 722 182 722 q 133 735 146 722 q 121 765 121 747 q 133 796 121 783 l 340 1008 q 371 1021 353 1021 q 401 1008 389 1021 l 403 1007 l 610 799 q 622 768 622 786 q 610 738 622 750 q 579 725 597 725 q 549 738 561 725 l 371 915 z "},"ü":{"ha":808,"x_min":35,"x_max":704,"o":"m 35 632 q 47 663 35 650 q 78 675 60 675 q 108 663 96 675 q 121 632 121 650 l 121 335 q 140 238 121 283 q 194 159 160 193 q 273 106 228 125 q 369 86 318 86 q 466 106 421 86 q 545 159 511 125 q 599 238 579 193 q 618 335 618 283 l 618 632 q 631 663 618 650 q 661 675 643 675 q 692 663 679 675 q 704 632 704 650 l 704 335 q 678 204 704 265 q 606 98 651 143 q 500 26 561 53 q 369 0 439 0 q 239 26 300 0 q 133 98 178 53 q 61 204 88 143 q 35 335 35 265 l 35 632 m 150 788 q 167 828 150 811 q 207 844 183 844 q 247 828 231 844 q 264 788 264 811 q 247 747 264 764 q 207 731 231 731 q 167 747 183 731 q 150 788 150 764 m 467 788 q 483 828 467 811 q 524 844 500 844 q 564 828 547 844 q 581 788 581 811 q 564 747 581 764 q 524 731 547 731 q 483 747 500 731 q 467 788 467 764 z "},"ý":{"ha":808,"x_min":24,"x_max":664,"o":"m 24 629 q 36 660 24 647 q 67 672 49 672 q 97 660 85 672 q 110 629 110 647 l 110 318 q 128 227 110 269 q 179 153 147 185 q 253 104 211 122 q 344 86 296 86 q 435 104 393 86 q 510 153 478 122 q 560 227 542 185 q 578 318 578 269 l 578 631 q 590 661 578 649 q 621 674 603 674 q 651 661 639 674 q 664 631 664 649 l 664 318 q 643 203 664 257 q 585 106 622 149 q 497 37 547 64 q 388 1 446 10 l 388 -208 q 375 -239 388 -226 q 344 -251 363 -251 q 314 -239 326 -251 q 301 -208 301 -226 l 301 0 q 191 35 242 8 q 103 105 140 63 q 44 202 65 147 q 24 318 24 257 l 24 629 m 417 936 q 449 942 432 947 q 475 922 467 938 q 480 890 483 907 q 461 863 476 874 l 264 747 q 232 742 249 739 q 204 763 215 746 q 201 795 197 779 q 219 821 206 811 l 417 936 z "},"ÿ":{"ha":808,"x_min":24,"x_max":664,"o":"m 24 629 q 36 660 24 647 q 67 672 49 672 q 97 660 85 672 q 110 629 110 647 l 110 318 q 128 227 110 269 q 179 153 147 185 q 253 104 211 122 q 344 86 296 86 q 435 104 393 86 q 510 153 478 122 q 560 227 542 185 q 578 318 578 269 l 578 631 q 590 661 578 649 q 621 674 603 674 q 651 661 639 674 q 664 631 664 649 l 664 318 q 643 203 664 257 q 585 106 622 149 q 497 37 547 64 q 388 1 446 10 l 388 -208 q 375 -239 388 -226 q 344 -251 363 -251 q 314 -239 326 -251 q 301 -208 301 -226 l 301 0 q 191 35 242 8 q 103 105 140 63 q 44 202 65 147 q 24 318 24 257 l 24 629 m 128 856 q 144 896 128 879 q 185 913 161 913 q 225 896 208 913 q 242 856 242 879 q 225 815 242 832 q 185 799 208 799 q 144 815 161 799 q 128 856 128 832 m 444 856 q 461 896 444 879 q 501 913 478 913 q 542 896 525 913 q 558 856 558 879 q 542 815 558 832 q 501 799 525 799 q 461 815 478 799 q 444 856 444 832 z "},"C":{"ha":836,"x_min":26,"x_max":807,"o":"m 113 446 q 140 307 113 372 q 216 193 168 242 q 329 116 264 144 q 468 88 394 88 q 613 117 546 88 q 729 200 681 147 q 758 217 740 213 q 789 211 775 221 q 804 177 804 199 q 792 142 804 156 q 647 38 731 75 q 468 1 564 1 q 296 36 376 1 q 156 131 215 71 q 61 273 96 192 q 26 446 26 354 q 61 619 26 538 q 156 760 96 700 q 296 856 215 821 q 468 892 376 892 q 642 856 561 892 q 785 757 724 819 q 801 729 796 746 q 797 697 807 713 q 765 679 786 681 q 728 693 743 678 q 611 771 678 736 q 468 806 544 806 q 329 777 394 806 q 216 699 264 749 q 140 585 168 650 q 113 446 113 519 z "},"D":{"ha":793,"x_min":42,"x_max":767,"o":"m 85 0 q 54 13 67 0 q 42 43 42 25 l 42 849 q 54 879 42 867 q 85 892 67 892 l 324 892 q 496 856 415 892 q 637 760 576 821 q 732 617 697 699 q 767 444 767 536 q 732 272 767 353 q 637 130 697 190 q 496 35 576 69 q 324 0 415 0 l 85 0 m 681 444 q 653 584 681 518 q 576 699 625 650 q 463 777 528 749 q 324 806 397 806 l 128 806 l 128 86 l 324 86 q 463 115 397 86 q 576 192 528 143 q 653 306 625 240 q 681 444 681 371 z "},"E":{"ha":631,"x_min":42,"x_max":619,"o":"m 42 849 q 54 879 42 867 q 85 892 67 892 l 576 892 q 607 879 594 892 q 619 849 619 867 q 607 818 619 831 q 576 806 594 806 l 128 806 l 128 492 l 450 492 q 481 479 468 492 q 493 449 493 467 q 481 418 493 431 q 450 406 468 406 l 128 406 l 128 86 l 576 86 q 607 74 594 86 q 619 43 619 61 q 607 13 619 25 q 576 0 594 0 l 85 0 q 54 13 67 0 q 42 43 42 25 l 42 849 z "},"F":{"ha":617,"x_min":42,"x_max":617,"o":"m 42 849 q 54 879 42 867 q 85 892 67 892 l 574 892 q 604 879 592 892 q 617 849 617 867 q 604 818 617 831 q 574 806 592 806 l 128 806 l 128 449 l 433 449 q 464 436 451 449 q 476 406 476 424 q 464 375 476 388 q 433 363 451 363 l 128 363 l 128 43 q 115 13 128 25 q 85 0 103 0 q 54 13 67 0 q 42 43 42 25 l 42 849 z "},"H":{"ha":728,"x_min":42,"x_max":686,"o":"m 42 847 q 54 878 42 865 q 85 890 67 890 q 115 878 103 890 q 128 847 128 865 l 128 454 l 600 454 l 600 847 q 613 878 600 865 q 643 890 625 890 q 674 878 661 890 q 686 847 686 865 l 686 43 q 674 13 686 25 q 643 0 661 0 q 613 13 625 0 q 600 43 600 25 l 600 368 l 128 368 l 128 43 q 115 13 128 25 q 85 0 103 0 q 54 13 67 0 q 42 43 42 25 l 42 847 z "},"I":{"ha":174,"x_min":42,"x_max":128,"o":"m 42 847 q 54 878 42 865 q 85 890 67 890 q 115 878 103 890 q 128 847 128 865 l 128 43 q 115 13 128 25 q 85 0 103 0 q 54 13 67 0 q 42 43 42 25 l 42 847 z "},"J":{"ha":381,"x_min":1,"x_max":346,"o":"m 1 43 q 14 74 1 61 q 44 86 26 86 q 130 104 90 88 q 198 150 169 121 q 243 217 226 179 q 260 300 260 256 l 260 849 q 272 879 260 867 q 303 892 285 892 q 333 879 321 892 q 346 849 346 867 l 346 300 q 322 183 346 238 q 258 89 299 129 q 163 25 218 49 q 44 0 108 1 q 14 13 26 0 q 1 43 1 25 z "},"K":{"ha":675,"x_min":42,"x_max":638,"o":"m 261 482 l 128 360 l 128 43 q 115 13 128 25 q 85 0 103 0 q 54 13 67 0 q 42 43 42 25 l 42 849 q 54 879 42 867 q 85 892 67 892 q 115 879 103 892 q 128 849 128 867 l 128 476 l 564 878 q 594 890 576 890 q 625 878 613 890 q 638 847 638 865 q 625 817 638 829 l 325 540 l 625 65 q 631 33 635 50 q 611 7 626 17 q 579 1 596 -3 q 553 21 563 6 l 261 482 z "},"L":{"ha":619,"x_min":42,"x_max":619,"o":"m 42 849 q 54 879 42 867 q 85 892 67 892 q 115 879 103 892 q 128 849 128 867 l 128 86 l 576 86 q 607 74 594 86 q 619 43 619 61 q 607 13 619 25 q 576 0 594 0 l 85 0 q 54 13 67 0 q 42 43 42 25 l 42 849 z "},"M":{"ha":1021,"x_min":40,"x_max":981,"o":"m 511 382 q 481 394 493 382 q 468 425 468 407 l 468 636 q 455 703 468 672 q 418 758 442 735 q 363 795 394 782 q 297 808 332 808 q 231 795 261 808 q 176 758 200 782 q 140 703 153 735 q 126 636 126 672 l 126 43 q 114 13 126 25 q 83 0 101 0 q 53 13 65 0 q 40 43 40 25 l 40 636 q 60 736 40 689 q 115 818 81 783 q 197 873 150 853 q 297 893 244 893 q 420 862 364 893 q 511 778 476 831 q 603 860 547 829 q 725 892 658 892 q 824 872 778 892 q 906 817 871 851 q 960 735 940 782 q 981 636 981 689 l 981 43 q 968 13 981 25 q 938 0 956 0 q 907 13 919 0 q 894 43 894 25 l 894 636 q 839 763 888 717 q 725 808 790 808 q 660 795 690 808 q 606 759 629 782 q 569 705 583 736 q 554 636 556 674 l 554 425 q 542 394 554 407 q 511 382 529 382 z "},"N":{"ha":721,"x_min":38,"x_max":683,"o":"m 597 568 q 578 660 597 617 q 527 735 560 703 q 451 787 494 768 q 360 806 408 806 q 268 787 311 806 q 193 735 225 768 q 142 660 161 703 q 124 568 124 617 l 124 43 q 111 13 124 25 q 81 0 99 0 q 50 13 63 0 q 38 43 38 25 l 38 568 q 63 694 38 635 q 131 797 88 753 q 234 866 175 840 q 360 892 293 892 q 485 866 426 892 q 588 797 544 840 q 658 694 632 753 q 683 568 683 635 l 683 43 q 671 13 683 25 q 640 0 658 0 q 610 13 622 0 q 597 43 597 25 l 597 568 z "},"R":{"ha":707,"x_min":38,"x_max":683,"o":"m 168 313 q 150 331 161 318 q 124 368 139 343 l 124 44 q 111 14 124 26 q 81 1 99 1 q 50 14 63 1 q 38 44 38 26 l 38 567 q 63 692 38 633 q 131 795 88 751 q 234 865 175 839 q 360 890 293 890 q 485 865 426 890 q 588 795 544 839 q 658 692 632 751 q 683 567 683 633 q 658 441 683 500 q 590 339 633 382 q 488 270 546 296 q 363 244 429 244 l 540 75 q 554 46 554 63 q 543 15 554 29 q 514 1 532 1 q 482 13 496 0 l 168 313 m 124 567 q 142 475 124 518 q 193 400 161 432 q 268 349 225 368 q 360 331 311 331 q 451 349 408 331 q 527 400 494 368 q 578 475 560 432 q 597 567 597 518 q 578 658 597 615 q 527 734 560 701 q 451 785 494 767 q 360 804 408 804 q 268 785 311 804 q 193 734 225 767 q 142 658 161 701 q 124 567 124 615 z "},"S":{"ha":683,"x_min":26,"x_max":654,"o":"m 556 679 q 538 727 554 704 q 492 768 521 750 q 426 797 464 786 q 347 807 389 807 q 266 797 304 807 q 200 768 228 786 q 156 725 172 750 q 139 672 139 700 q 160 622 139 644 q 212 582 181 599 q 279 554 243 565 q 347 539 315 543 q 467 509 411 532 q 565 451 524 486 q 631 370 607 417 q 654 269 654 324 q 630 165 654 214 q 563 79 606 115 q 463 22 519 43 q 340 0 406 0 q 218 21 275 0 q 118 78 161 42 q 51 164 75 115 q 26 268 26 213 q 38 297 26 285 q 67 308 50 308 q 95 297 83 308 q 107 268 107 285 q 125 195 107 229 q 174 136 143 161 q 248 97 206 111 q 339 82 290 82 q 431 97 388 82 q 506 136 474 111 q 557 195 539 161 q 572 268 575 229 q 550 335 569 304 q 500 391 531 367 q 430 431 469 415 q 347 454 390 447 q 235 476 289 458 q 142 523 182 494 q 77 590 101 551 q 53 674 53 628 q 76 759 53 719 q 139 828 99 799 q 233 876 179 858 q 347 893 286 893 q 462 876 408 893 q 556 828 515 858 q 619 759 596 799 q 642 674 642 719 q 629 643 642 656 q 599 631 617 631 q 569 644 581 631 q 556 679 557 657 z "},"T":{"ha":678,"x_min":10,"x_max":668,"o":"m 10 849 q 22 879 10 867 q 53 892 35 892 l 625 892 q 656 879 643 892 q 668 849 668 867 q 656 818 668 831 q 625 806 643 806 l 382 806 l 382 43 q 369 13 382 25 q 339 0 357 0 q 308 13 321 0 q 296 43 296 25 l 296 806 l 53 806 q 22 818 35 806 q 10 849 10 831 z "},"U":{"ha":719,"x_min":38,"x_max":682,"o":"m 360 0 q 232 26 290 0 q 131 95 174 51 q 64 198 89 139 q 38 324 39 257 l 38 854 q 51 881 38 869 q 82 892 64 892 q 113 881 100 892 q 125 853 125 871 l 125 314 q 144 224 125 265 q 195 152 163 183 q 270 103 228 121 q 358 86 313 86 q 453 105 410 86 q 529 156 497 124 q 579 231 561 188 q 597 322 597 274 l 597 854 q 610 881 597 869 q 640 892 622 892 q 671 880 660 893 q 682 851 682 867 l 682 310 q 656 187 682 243 q 585 89 629 131 q 482 24 540 47 q 360 0 424 0 z "},"V":{"ha":771,"x_min":18,"x_max":753,"o":"m 428 32 q 411 10 422 19 q 386 0 400 0 q 361 10 372 0 q 346 32 350 21 l 25 832 q 25 865 18 849 q 49 888 32 881 q 81 887 65 894 q 104 864 97 879 l 386 161 l 667 864 q 690 887 674 879 q 722 888 706 894 q 746 865 739 881 q 746 832 753 849 l 428 32 z "},"W":{"ha":1021,"x_min":40,"x_max":981,"o":"m 511 511 q 542 499 529 511 q 554 468 554 486 l 554 257 q 569 188 556 219 q 606 134 583 157 q 660 98 629 111 q 725 85 690 85 q 839 131 790 85 q 894 257 888 176 l 894 849 q 907 879 894 867 q 938 892 919 892 q 968 879 956 892 q 981 849 981 867 l 981 257 q 960 158 981 204 q 906 76 940 111 q 824 22 871 42 q 725 1 778 1 q 603 33 658 1 q 511 115 547 64 q 420 31 476 63 q 297 0 364 0 q 197 20 244 0 q 115 75 150 40 q 60 157 81 110 q 40 257 40 204 l 40 849 q 53 879 40 867 q 83 892 65 892 q 114 879 101 892 q 126 849 126 867 l 126 257 q 140 190 126 221 q 176 135 153 158 q 231 98 200 111 q 297 85 261 85 q 363 98 332 85 q 418 135 394 111 q 455 190 442 158 q 468 257 468 221 l 468 468 q 481 499 468 486 q 511 511 493 511 z "},"X":{"ha":971,"x_min":40,"x_max":931,"o":"m 424 446 l 53 817 q 40 847 40 829 q 53 878 40 865 q 83 890 65 890 q 114 878 101 890 l 485 507 l 857 878 q 888 890 869 890 q 918 878 906 890 q 931 847 931 865 q 918 817 931 829 l 546 446 l 918 75 q 931 44 931 63 q 918 14 931 26 q 888 1 906 1 q 857 14 869 1 l 485 385 l 114 14 q 83 1 101 1 q 53 14 65 1 q 40 44 40 26 q 53 75 40 63 l 424 446 z "},"Y":{"ha":883,"x_min":18,"x_max":867,"o":"m 396 349 l 29 822 q 19 853 18 836 q 35 882 21 871 q 66 892 49 893 q 94 876 83 890 l 439 433 l 790 876 q 819 892 801 890 q 850 882 836 893 q 865 853 864 871 q 856 822 867 836 l 482 349 l 482 43 q 469 13 482 25 q 439 0 457 0 q 408 13 421 0 q 396 43 396 25 l 396 349 z "},"Z":{"ha":692,"x_min":24,"x_max":669,"o":"m 24 849 q 36 879 24 867 q 67 892 49 892 l 626 892 q 657 879 644 892 q 669 849 669 867 q 663 828 669 838 q 658 819 657 818 l 143 86 l 626 86 q 657 74 644 86 q 669 43 669 61 q 657 13 669 25 q 626 0 644 0 l 67 0 q 36 13 49 0 q 24 43 24 25 q 32 69 24 54 l 546 806 l 67 806 q 36 818 49 806 q 24 849 24 831 z "},"À":{"ha":785,"x_min":18,"x_max":775,"o":"m 768 58 q 768 26 775 42 q 744 3 761 10 q 712 3 728 -4 q 689 26 696 11 l 633 154 l 158 154 l 104 26 q 81 3 97 11 q 49 3 65 -4 q 25 26 32 10 q 25 58 18 42 l 357 860 q 372 881 361 871 q 397 892 383 892 q 422 882 411 892 q 439 860 433 872 l 768 58 m 194 240 l 599 240 l 397 731 l 194 240 m 440 1054 q 458 1028 454 1044 q 456 996 463 1013 q 428 976 444 979 q 396 981 411 972 l 199 1096 q 180 1124 183 1107 q 185 1156 176 1140 q 210 1176 193 1171 q 243 1169 228 1181 l 440 1054 z "},"Â":{"ha":785,"x_min":18,"x_max":775,"o":"m 768 58 q 768 26 775 42 q 744 3 761 10 q 712 3 728 -4 q 689 26 696 11 l 633 154 l 158 154 l 104 26 q 81 3 97 11 q 49 3 65 -4 q 25 26 32 10 q 25 58 18 42 l 357 860 q 372 881 361 871 q 397 892 383 892 q 422 882 411 892 q 439 860 433 872 l 768 58 m 194 240 l 599 240 l 397 731 l 194 240 m 401 1139 l 225 958 q 194 946 213 946 q 164 958 176 946 q 151 989 151 971 q 164 1019 151 1007 l 371 1232 q 401 1244 383 1244 q 432 1232 419 1244 l 433 1231 l 640 1022 q 653 992 653 1010 q 640 961 653 974 q 610 949 628 949 q 579 961 592 949 l 401 1139 z "},"Ã":{"ha":829,"x_min":18,"x_max":775,"o":"m 768 58 q 768 26 775 42 q 744 3 761 10 q 712 3 728 -4 q 689 26 696 11 l 633 154 l 158 154 l 104 26 q 81 3 97 11 q 49 3 65 -4 q 25 26 32 10 q 25 58 18 42 l 357 860 q 372 881 361 871 q 397 892 383 892 q 422 882 411 892 q 439 860 433 872 l 768 58 m 194 240 l 599 240 l 397 731 l 194 240 m 138 994 q 122 1024 122 1006 q 135 1054 122 1042 q 167 1092 149 1072 q 207 1127 186 1111 q 251 1153 228 1143 q 300 1164 275 1164 q 358 1147 329 1164 q 413 1110 386 1131 q 464 1074 440 1090 q 507 1057 488 1057 q 538 1066 522 1057 q 565 1088 553 1075 q 588 1113 578 1100 q 603 1136 597 1126 q 628 1154 613 1150 q 657 1150 643 1158 q 676 1124 672 1140 q 671 1094 679 1108 q 643 1051 660 1072 q 605 1013 626 1029 q 558 986 583 996 q 507 976 533 976 q 451 993 478 976 q 399 1029 425 1010 q 349 1065 374 1049 q 300 1082 325 1082 q 268 1074 283 1082 q 239 1053 253 1065 q 214 1026 225 1040 q 193 1001 203 1013 q 167 985 183 988 q 138 994 151 983 z "},"Ä":{"ha":785,"x_min":18,"x_max":775,"o":"m 768 58 q 768 26 775 42 q 744 3 761 10 q 712 3 728 -4 q 689 26 696 11 l 633 154 l 158 154 l 104 26 q 81 3 97 11 q 49 3 65 -4 q 25 26 32 10 q 25 58 18 42 l 357 860 q 372 881 361 871 q 397 892 383 892 q 422 882 411 892 q 439 860 433 872 l 768 58 m 194 240 l 599 240 l 397 731 l 194 240 m 196 1006 q 213 1046 196 1029 q 253 1063 229 1063 q 293 1046 276 1063 q 310 1006 310 1029 q 293 965 310 982 q 253 949 276 949 q 213 965 229 949 q 196 1006 196 982 m 513 1006 q 529 1046 513 1029 q 569 1063 546 1063 q 610 1046 593 1063 q 626 1006 626 1029 q 610 965 626 982 q 569 949 593 949 q 529 965 546 949 q 513 1006 513 982 z "},"È":{"ha":717,"x_min":42,"x_max":619,"o":"m 42 849 q 54 879 42 867 q 85 892 67 892 l 576 892 q 607 879 594 892 q 619 849 619 867 q 607 818 619 831 q 576 806 594 806 l 128 806 l 128 492 l 450 492 q 481 479 468 492 q 493 449 493 467 q 481 418 493 431 q 450 406 468 406 l 128 406 l 128 86 l 576 86 q 607 74 594 86 q 619 43 619 61 q 607 13 619 25 q 576 0 594 0 l 85 0 q 54 13 67 0 q 42 43 42 25 l 42 849 m 388 1056 q 406 1030 401 1046 q 403 997 410 1014 q 375 977 392 981 q 343 982 358 974 l 146 1097 q 127 1125 131 1108 q 132 1157 124 1142 q 158 1177 140 1172 q 190 1171 175 1182 l 388 1056 z "},"Ê":{"ha":717,"x_min":42,"x_max":619,"o":"m 42 849 q 54 879 42 867 q 85 892 67 892 l 576 892 q 607 879 594 892 q 619 849 619 867 q 607 818 619 831 q 576 806 594 806 l 128 806 l 128 492 l 450 492 q 481 479 468 492 q 493 449 493 467 q 481 418 493 431 q 450 406 468 406 l 128 406 l 128 86 l 576 86 q 607 74 594 86 q 619 43 619 61 q 607 13 619 25 q 576 0 594 0 l 85 0 q 54 13 67 0 q 42 43 42 25 l 42 849 m 326 1138 l 150 957 q 119 944 138 944 q 89 957 101 944 q 76 988 76 969 q 89 1018 76 1006 l 296 1231 q 326 1243 308 1243 q 357 1231 344 1243 l 358 1229 l 565 1021 q 578 990 578 1008 q 565 960 578 972 q 535 947 553 947 q 504 960 517 947 l 326 1138 z "},"Ë":{"ha":717,"x_min":42,"x_max":619,"o":"m 42 849 q 54 879 42 867 q 85 892 67 892 l 576 892 q 607 879 594 892 q 619 849 619 867 q 607 818 619 831 q 576 806 594 806 l 128 806 l 128 492 l 450 492 q 481 479 468 492 q 493 449 493 467 q 481 418 493 431 q 450 406 468 406 l 128 406 l 128 86 l 576 86 q 607 74 594 86 q 619 43 619 61 q 607 13 619 25 q 576 0 594 0 l 85 0 q 54 13 67 0 q 42 43 42 25 l 42 849 m 118 1069 q 135 1110 118 1093 q 175 1126 151 1126 q 215 1110 199 1126 q 232 1069 232 1093 q 215 1029 232 1046 q 175 1013 199 1013 q 135 1029 151 1013 q 118 1069 118 1046 m 435 1069 q 451 1110 435 1093 q 492 1126 468 1126 q 532 1110 515 1126 q 549 1069 549 1093 q 532 1029 549 1046 q 492 1013 515 1013 q 451 1029 468 1013 q 435 1069 435 1046 z "},"Ì":{"ha":550,"x_min":35,"x_max":321,"o":"m 299 1054 q 317 1028 313 1044 q 314 996 321 1013 q 286 976 303 979 q 254 981 269 972 l 57 1096 q 38 1124 42 1107 q 43 1156 35 1140 q 69 1176 51 1171 q 101 1169 86 1181 l 299 1054 m 207 847 q 219 878 207 865 q 250 890 232 890 q 281 878 268 890 q 293 847 293 865 l 293 43 q 281 13 293 25 q 250 0 268 0 q 219 13 232 0 q 207 43 207 25 l 207 847 z "},"Í":{"ha":543,"x_min":213,"x_max":499,"o":"m 242 847 q 254 878 242 865 q 285 890 267 890 q 315 878 303 890 q 328 847 328 865 l 328 43 q 315 13 328 25 q 285 0 303 0 q 254 13 267 0 q 242 43 242 25 l 242 847 m 432 1171 q 465 1177 447 1182 q 490 1157 482 1172 q 495 1125 499 1142 q 476 1097 492 1108 l 279 982 q 247 977 264 974 q 219 997 231 981 q 217 1030 213 1014 q 235 1056 221 1046 l 432 1171 z "},"Ù":{"ha":783,"x_min":38,"x_max":682,"o":"m 360 0 q 232 26 290 0 q 131 95 174 51 q 64 198 89 139 q 38 324 39 257 l 38 854 q 51 881 38 869 q 82 892 64 892 q 113 881 100 892 q 125 853 125 871 l 125 314 q 144 224 125 265 q 195 152 163 183 q 270 103 228 121 q 358 86 313 86 q 453 105 410 86 q 529 156 497 124 q 579 231 561 188 q 597 322 597 274 l 597 854 q 610 881 597 869 q 640 892 622 892 q 671 880 660 893 q 682 851 682 867 l 682 310 q 656 187 682 243 q 585 89 629 131 q 482 24 540 47 q 360 0 424 0 m 414 1058 q 432 1033 428 1049 q 429 1000 436 1017 q 401 980 418 983 q 369 985 385 976 l 172 1100 q 153 1128 157 1111 q 158 1160 150 1144 q 184 1180 167 1175 q 217 1174 201 1185 l 414 1058 z "},"Ú":{"ha":783,"x_min":38,"x_max":682,"o":"m 360 0 q 232 26 290 0 q 131 95 174 51 q 64 198 89 139 q 38 324 39 257 l 38 854 q 51 881 38 869 q 82 892 64 892 q 113 881 100 892 q 125 853 125 871 l 125 314 q 144 224 125 265 q 195 152 163 183 q 270 103 228 121 q 358 86 313 86 q 453 105 410 86 q 529 156 497 124 q 579 231 561 188 q 597 322 597 274 l 597 854 q 610 881 597 869 q 640 892 622 892 q 671 880 660 893 q 682 851 682 867 l 682 310 q 656 187 682 243 q 585 89 629 131 q 482 24 540 47 q 360 0 424 0 m 506 1169 q 538 1176 521 1181 q 564 1156 556 1171 q 569 1124 572 1140 q 550 1096 565 1107 l 353 981 q 321 976 338 972 q 293 996 304 979 q 290 1028 286 1013 q 308 1054 294 1044 l 506 1169 z "},"ä":{"ha":810,"x_min":28,"x_max":699,"o":"m 365 672 q 492 645 432 672 q 599 572 553 618 q 672 465 644 526 q 699 335 699 404 l 699 42 q 686 11 699 24 q 656 -1 674 -1 q 625 11 638 -1 q 613 42 613 24 l 613 126 q 502 38 567 75 q 363 1 438 1 q 233 26 293 1 q 126 96 172 51 q 54 201 81 140 q 28 335 28 263 q 53 465 28 404 q 124 570 79 525 q 231 642 169 615 q 365 672 293 669 m 114 335 q 133 238 114 283 q 187 159 153 193 q 266 106 221 125 q 363 86 311 86 q 457 105 413 86 q 535 157 501 124 q 590 235 569 190 q 613 335 610 281 q 593 432 613 386 q 540 512 574 478 q 460 565 506 546 q 363 585 414 585 q 266 565 311 585 q 187 512 221 546 q 133 432 153 478 q 114 335 114 386 m 140 789 q 157 829 140 813 q 197 846 174 846 q 238 829 221 846 q 254 789 254 813 q 238 749 254 765 q 197 732 221 732 q 157 749 174 732 q 140 789 140 765 m 457 789 q 474 829 457 813 q 514 846 490 846 q 554 829 538 846 q 571 789 571 813 q 554 749 571 765 q 514 732 538 732 q 474 749 490 732 q 457 789 457 765 z "},"ñ":{"ha":833,"x_min":35,"x_max":704,"o":"m 35 340 q 61 471 35 410 q 133 577 88 532 q 239 649 178 622 q 369 675 300 675 q 500 649 439 675 q 606 577 561 622 q 678 471 651 532 q 704 340 704 410 l 704 43 q 692 13 704 25 q 661 0 679 0 q 631 13 643 0 q 618 43 618 25 l 618 340 q 599 437 618 392 q 545 516 579 482 q 466 569 511 550 q 369 589 421 589 q 273 569 318 589 q 194 516 228 550 q 140 437 160 482 q 121 340 121 392 l 121 43 q 108 13 121 25 q 78 0 96 0 q 47 13 60 0 q 35 43 35 25 l 35 340 m 104 779 q 89 808 89 790 q 101 839 89 826 q 134 876 115 857 q 174 912 153 896 q 218 938 194 928 q 267 949 242 949 q 324 932 296 949 q 380 895 353 915 q 431 858 407 875 q 474 842 454 842 q 504 851 489 842 q 532 872 519 860 q 554 898 544 885 q 569 921 564 911 q 594 939 579 935 q 624 935 610 943 q 642 909 639 925 q 638 879 646 893 q 610 835 626 857 q 572 797 593 814 q 525 771 550 781 q 474 761 500 761 q 418 778 444 761 q 366 814 392 794 q 316 850 340 833 q 267 867 292 867 q 235 858 250 867 q 206 838 219 850 q 181 811 192 825 q 160 786 169 797 q 134 770 150 772 q 104 779 118 768 z "},"Ý":{"ha":779,"x_min":-53,"x_max":796,"o":"m 325 349 l -42 822 q -51 853 -53 836 q -36 882 -50 871 q -5 892 -22 893 q 24 876 13 890 l 368 433 l 719 876 q 748 892 731 890 q 779 882 765 893 q 794 853 793 871 q 785 822 796 836 l 411 349 l 411 43 q 399 13 411 25 q 368 0 386 0 q 338 13 350 0 q 325 43 325 25 l 325 349 m 436 1154 q 469 1160 451 1165 q 494 1140 486 1156 q 499 1108 503 1125 q 481 1081 496 1092 l 283 965 q 251 960 268 957 q 224 981 235 964 q 221 1013 217 997 q 239 1039 225 1029 l 436 1154 z "},"~":{"ha":681,"x_min":33,"x_max":646,"o":"m 449 335 q 446 336 447 335 q 443 338 444 338 l 449 335 m 49 353 q 33 382 33 364 q 46 413 33 400 q 78 450 60 431 q 118 485 97 469 q 163 512 139 501 q 211 522 186 522 q 239 521 226 522 q 264 515 251 519 q 291 504 276 511 q 325 488 306 497 q 367 462 349 475 q 403 438 386 449 q 438 422 421 428 q 474 415 454 415 q 504 424 489 415 q 532 446 519 433 q 554 472 544 458 q 569 494 564 485 q 594 513 579 508 q 624 508 610 517 q 642 483 639 499 q 638 453 646 467 q 610 409 626 431 q 572 371 593 388 q 525 344 550 354 q 474 335 500 335 q 442 336 456 335 q 415 342 429 338 q 387 356 401 347 q 351 378 372 364 q 283 421 315 401 q 211 440 251 440 q 179 432 194 440 q 150 411 164 424 q 125 385 136 399 q 104 360 114 371 q 78 344 94 346 q 49 353 63 342 z "},"¥":{"ha":682,"x_min":21,"x_max":663,"o":"m 93 426 q 106 457 93 444 q 136 469 118 469 l 281 469 q 166 625 225 542 q 31 819 107 708 q 22 853 21 838 q 39 883 22 869 q 72 890 54 893 q 101 868 89 886 q 232 679 172 764 q 340 524 292 594 q 448 678 392 596 q 581 868 504 760 q 610 890 593 886 q 643 883 628 893 q 660 853 658 871 q 650 819 663 835 q 515 626 575 713 q 399 469 454 540 l 546 469 q 576 457 564 469 q 589 426 589 444 q 576 396 589 408 q 546 383 564 383 l 383 383 l 383 276 l 546 276 q 576 264 564 276 q 589 233 589 251 q 576 203 589 215 q 546 190 564 190 l 383 190 l 383 43 q 371 13 383 25 q 340 0 358 0 q 310 13 322 0 q 297 43 297 25 l 297 190 l 136 190 q 106 203 118 190 q 93 233 93 215 q 106 264 93 251 q 136 276 118 276 l 297 276 l 297 383 l 136 383 q 106 396 118 383 q 93 426 93 408 z "},"#":{"ha":826,"x_min":15,"x_max":811,"o":"m 463 281 l 254 281 l 174 29 q 151 4 167 13 q 119 1 136 -4 q 93 23 101 7 q 92 56 85 39 l 164 281 l 58 281 q 28 293 40 281 q 15 324 15 306 q 28 354 15 342 q 58 367 40 367 l 192 367 l 256 567 l 153 567 q 122 579 135 567 q 110 610 110 592 q 122 640 110 628 q 153 653 135 653 l 283 653 l 350 861 q 372 886 356 878 q 404 889 388 894 q 429 867 421 882 q 432 835 438 851 l 374 653 l 582 653 l 649 861 q 670 886 654 878 q 703 889 686 894 q 728 867 719 882 q 731 835 736 851 l 672 653 l 768 653 q 799 640 786 653 q 811 610 811 628 q 799 579 811 592 q 768 567 786 567 l 644 567 l 581 367 l 681 367 q 711 354 699 367 q 724 324 724 342 q 711 293 724 306 q 681 281 699 281 l 553 281 l 472 29 q 450 4 465 13 q 418 1 435 -4 q 392 23 400 7 q 390 56 383 39 l 463 281 m 282 367 l 490 367 l 554 567 l 346 567 l 282 367 z "},"£":{"ha":710,"x_min":22,"x_max":706,"o":"m 22 358 q 35 389 22 376 q 65 401 47 401 l 128 401 l 128 664 q 140 733 128 694 q 178 807 151 772 q 249 865 206 842 q 356 890 292 889 q 386 878 374 890 q 399 847 399 865 q 386 817 399 829 q 356 804 374 804 q 282 785 310 803 q 239 743 254 767 q 219 697 224 719 q 214 664 214 674 l 214 401 l 283 401 q 314 389 301 401 q 326 358 326 376 q 314 328 326 340 q 283 315 301 315 l 214 315 l 214 86 l 663 86 q 693 74 681 86 q 706 43 706 61 q 693 13 706 25 q 663 0 681 0 l 171 0 q 152 4 160 0 q 140 13 144 8 l 139 14 q 133 24 138 15 q 128 43 128 32 l 128 315 l 65 315 q 35 328 47 315 q 22 358 22 340 z "},"Ÿ":{"ha":665,"x_min":-62,"x_max":786,"o":"m 315 349 l -51 822 q -61 853 -62 836 q -46 882 -60 871 q -15 892 -32 893 q 14 876 3 890 l 358 433 l 710 876 q 738 892 721 890 q 769 882 756 893 q 785 853 783 871 q 775 822 786 836 l 401 349 l 401 43 q 389 13 401 25 q 358 0 376 0 q 328 13 340 0 q 315 43 315 25 l 315 349 m 146 1007 q 163 1047 146 1031 q 203 1064 179 1064 q 243 1047 226 1064 q 260 1007 260 1031 q 243 967 260 983 q 203 950 226 950 q 163 967 179 950 q 146 1007 146 983 m 463 1007 q 479 1047 463 1031 q 519 1064 496 1064 q 560 1047 543 1064 q 576 1007 576 1031 q 560 967 576 983 q 519 950 543 950 q 479 967 496 950 q 463 1007 463 983 z "},"@":{"ha":1056,"x_min":29,"x_max":1033,"o":"m 764 336 q 789 274 764 299 q 850 249 814 249 q 901 265 882 249 q 931 308 921 282 q 944 364 942 333 q 947 422 947 394 q 915 585 947 508 q 826 717 882 661 q 693 806 769 774 q 531 839 617 839 q 369 806 444 839 q 237 717 293 774 q 148 585 181 661 q 115 422 115 508 q 148 260 115 336 q 237 128 181 185 q 369 40 293 72 q 531 7 444 7 q 594 11 563 7 q 654 24 626 15 q 694 25 675 31 q 718 0 713 19 q 709 -36 725 -24 q 676 -56 693 -49 q 605 -72 642 -67 q 531 -78 568 -78 q 335 -38 426 -78 q 176 69 243 1 q 69 228 108 136 q 29 424 29 319 q 69 619 29 528 q 176 779 108 711 q 335 887 243 847 q 531 926 426 926 q 726 887 635 926 q 886 779 818 847 q 994 619 954 711 q 1033 424 1033 528 q 1026 335 1033 382 q 997 251 1018 289 q 940 188 976 213 q 849 163 904 163 q 762 194 797 163 q 706 269 726 226 q 626 215 674 238 q 531 192 579 192 q 440 210 482 192 q 365 260 397 228 q 315 334 333 292 q 297 425 297 376 q 315 516 297 474 q 365 590 333 558 q 440 640 397 622 q 531 658 482 658 q 622 640 579 658 q 696 590 664 622 q 746 516 728 558 q 764 425 764 474 l 764 336 m 383 425 q 426 320 383 363 q 531 278 468 278 q 633 319 590 278 q 678 425 675 360 q 635 530 678 488 q 531 572 593 572 q 426 530 468 572 q 383 425 383 488 z "},"–":{"ha":594,"x_min":40,"x_max":554,"o":"m 40 432 q 53 463 40 450 q 83 475 65 475 l 511 475 q 542 463 529 475 q 554 432 554 450 q 542 401 554 414 q 511 389 529 389 l 83 389 q 53 401 65 389 q 40 432 40 414 z "},"—":{"ha":726,"x_min":40,"x_max":686,"o":"m 40 432 q 53 463 40 450 q 83 475 65 475 l 643 475 q 674 463 661 475 q 686 432 686 450 q 674 401 686 414 q 643 389 661 389 l 83 389 q 53 401 65 389 q 40 432 40 414 z "},"_":{"ha":728,"x_min":40,"x_max":688,"o":"m 40 51 q 53 82 40 69 q 83 94 65 94 l 644 94 q 675 82 663 94 q 688 51 688 69 q 675 21 688 33 q 644 8 663 8 l 83 8 q 53 21 65 8 q 40 51 40 33 z "},"¢":{"ha":615,"x_min":14,"x_max":600,"o":"m 336 844 q 369 831 356 844 q 382 797 382 817 l 382 667 q 447 651 417 663 q 503 627 478 640 q 547 599 528 614 q 579 574 567 585 q 594 548 588 567 q 585 514 600 529 q 554 501 572 501 q 524 514 536 501 q 458 556 494 539 q 382 579 422 572 l 382 85 q 458 108 422 90 q 524 154 494 126 q 554 167 536 167 q 585 154 572 167 q 597 123 597 142 q 581 89 596 104 q 551 63 569 76 q 506 35 532 49 q 449 13 481 22 q 382 0 418 3 l 382 -90 q 369 -124 382 -110 q 336 -137 356 -137 q 301 -124 315 -137 q 288 -90 288 -110 l 288 4 q 179 42 229 14 q 92 114 129 71 q 35 213 56 157 q 14 332 14 268 q 34 448 14 393 q 91 546 54 503 q 178 619 128 589 q 288 661 228 649 l 288 797 q 301 831 288 817 q 336 844 315 844 m 100 332 q 114 249 100 288 q 153 178 128 210 q 213 123 178 146 q 288 90 247 100 l 288 574 q 213 540 247 563 q 153 486 178 518 q 114 415 128 454 q 100 332 100 375 z "},"¦":{"ha":174,"x_min":42,"x_max":128,"o":"m 42 849 q 54 879 42 867 q 85 892 67 892 q 115 879 103 892 q 128 849 128 867 l 128 -211 q 115 -242 128 -229 q 85 -254 103 -254 q 54 -242 67 -254 q 42 -211 42 -229 l 42 849 z "},"œ":{"ha":1463,"x_min":189,"x_max":1447,"o":"m 526 672 q 653 645 593 672 q 760 572 714 618 q 833 465 806 526 q 860 335 860 404 q 833 206 860 267 q 762 100 807 146 q 656 28 717 54 q 524 1 594 1 q 394 26 454 1 q 288 96 333 51 q 215 201 242 140 q 189 335 189 263 q 215 465 189 404 q 285 570 240 525 q 392 642 331 615 q 526 672 454 669 m 275 335 q 294 238 275 283 q 348 159 314 193 q 427 106 382 125 q 524 86 472 86 q 621 106 575 86 q 701 159 667 125 q 754 238 735 193 q 774 335 774 283 q 754 432 774 386 q 701 512 735 478 q 621 565 667 546 q 524 585 575 585 q 427 565 472 585 q 348 512 382 546 q 294 432 314 478 q 275 335 275 386 m 863 294 q 892 212 869 250 q 947 146 914 174 q 1021 102 979 118 q 1108 86 1063 86 q 1204 105 1160 86 q 1283 157 1249 124 q 1314 169 1296 169 q 1344 157 1332 169 q 1357 126 1357 144 q 1344 96 1357 108 q 1241 23 1299 44 q 1108 1 1183 1 q 978 26 1039 1 q 872 96 918 51 q 800 201 826 140 q 774 335 774 263 q 799 465 774 404 q 870 570 825 525 q 977 642 915 615 q 1111 672 1039 669 q 1237 646 1178 672 q 1342 575 1296 619 q 1415 471 1388 531 q 1444 343 1442 411 q 1433 307 1447 319 q 1401 294 1418 294 l 863 294 m 1108 585 q 1022 569 1063 585 q 948 526 981 553 q 894 461 915 499 q 864 381 872 424 l 1354 381 q 1324 461 1346 424 q 1269 526 1301 499 q 1195 569 1236 553 q 1108 585 1154 585 z "},"Ð":{"ha":885,"x_min":25,"x_max":857,"o":"m 25 417 q 38 447 25 435 q 68 460 50 460 l 132 460 l 132 842 q 144 872 132 860 q 175 885 157 885 l 414 885 q 586 850 506 885 q 727 755 667 815 q 822 614 788 694 q 857 442 857 533 q 822 269 857 350 q 727 129 788 189 q 586 35 667 69 q 414 0 506 0 l 175 0 q 144 13 157 0 q 132 43 132 25 l 132 374 l 68 374 q 38 386 50 374 q 25 417 25 399 m 771 442 q 743 581 771 515 q 667 694 715 646 q 553 771 618 743 q 414 799 488 799 l 218 799 l 218 460 l 292 460 q 322 447 310 460 q 335 417 335 435 q 322 386 335 399 q 292 374 310 374 l 218 374 l 218 86 l 414 86 q 553 114 488 86 q 667 190 618 142 q 743 303 715 238 q 771 442 771 368 z "},"Æ":{"ha":1276,"x_min":33,"x_max":1281,"o":"m 783 58 q 783 26 790 42 q 760 3 776 10 q 727 3 743 -4 q 704 26 711 11 l 649 154 l 174 154 l 119 26 q 97 3 113 11 q 64 3 81 -4 q 40 26 47 10 q 40 58 33 42 l 372 860 q 388 881 376 871 q 413 892 399 892 q 438 882 426 892 q 454 860 449 872 l 783 58 m 210 240 l 614 240 l 413 731 l 210 240 m 703 849 q 715 879 703 867 q 746 892 728 892 l 1238 892 q 1268 879 1256 892 q 1281 849 1281 867 q 1268 818 1281 831 q 1238 806 1256 806 l 789 806 l 789 492 l 1111 492 q 1142 479 1129 492 q 1154 449 1154 467 q 1142 418 1154 431 q 1111 406 1129 406 l 789 406 l 789 86 l 1238 86 q 1268 74 1256 86 q 1281 43 1281 61 q 1268 13 1281 25 q 1238 0 1256 0 l 746 0 q 715 13 728 0 q 703 43 703 25 l 703 849 z "},"÷":{"ha":550,"x_min":6,"x_max":546,"o":"m 317 192 q 303 158 317 172 q 267 143 289 143 q 233 158 247 143 q 218 192 218 172 q 233 226 218 211 q 267 242 247 242 q 303 226 289 242 q 317 192 317 211 m 317 674 q 303 640 317 654 q 267 625 289 625 q 233 640 247 625 q 218 674 218 654 q 233 708 218 693 q 267 724 247 724 q 303 708 289 724 q 317 674 317 693 m 6 432 q 18 401 6 414 q 49 389 31 389 l 503 389 q 533 401 521 389 q 546 432 546 414 q 533 463 546 450 q 503 475 521 475 l 49 475 q 18 463 31 475 q 6 432 6 450 z "},"µ":{"ha":728,"x_min":42,"x_max":715,"o":"m 671 672 q 703 660 690 672 q 715 629 715 647 l 715 349 q 688 210 715 274 q 615 101 661 147 q 508 28 569 54 q 378 1 446 1 q 275 24 336 1 q 132 96 214 46 l 132 -206 q 119 -237 132 -225 q 88 -250 106 -250 q 55 -239 68 -250 q 42 -210 42 -228 l 42 635 q 55 661 42 650 q 88 672 68 672 q 119 660 107 672 q 132 629 132 647 l 132 329 q 153 234 132 278 q 208 159 174 190 q 286 110 242 128 q 378 92 331 92 q 476 111 431 92 q 554 165 521 131 q 606 243 588 199 q 625 338 625 288 l 625 635 q 639 662 625 651 q 671 672 653 672 z "},"×":{"ha":681,"x_min":39,"x_max":643,"o":"m 631 46 q 599 33 617 33 q 569 47 582 33 l 342 275 l 113 44 q 83 31 100 31 q 51 43 65 31 q 39 73 39 56 q 51 104 39 90 l 281 336 l 54 564 q 41 595 42 578 q 53 625 40 613 q 84 638 67 638 q 114 626 101 639 l 342 397 l 568 625 q 598 637 581 638 q 629 624 615 636 q 641 594 642 611 q 628 563 640 576 l 401 336 l 631 107 q 643 76 643 93 q 631 46 643 58 z "},"•":{"ha":275,"x_min":29,"x_max":246,"o":"m 136 228 q 60 259 92 228 q 29 335 29 290 q 62 412 29 381 q 136 443 94 443 q 181 433 161 443 q 216 408 201 424 q 238 372 231 392 q 246 335 246 353 q 213 259 246 290 q 136 228 181 228 z "},"·":{"ha":160,"x_min":31,"x_max":129,"o":"m 129 338 q 115 303 129 318 q 78 288 101 288 q 44 303 58 288 q 31 338 31 318 q 44 372 31 357 q 78 386 58 386 q 115 372 101 386 q 129 338 129 357 z "}," ":{"ha":313,"x_min":0,"x_max":0,"o":""},"»":{"ha":933,"x_min":40,"x_max":910,"o":"m 318 329 l 53 578 q 40 608 40 590 q 53 639 40 626 q 83 651 65 651 q 114 639 101 651 l 411 360 q 424 329 424 347 q 411 299 424 311 l 410 297 l 114 15 q 83 3 101 3 q 53 15 65 3 q 40 46 40 28 q 53 76 40 64 l 318 329 m 804 329 l 539 578 q 526 608 526 590 q 539 639 526 626 q 569 651 551 651 q 600 639 588 651 l 897 360 q 910 329 910 347 q 897 299 910 311 l 896 297 l 600 15 q 569 3 588 3 q 539 15 551 3 q 526 46 526 28 q 539 76 526 64 l 804 329 z "},"¹":{"ha":299,"x_min":3,"x_max":257,"o":"m 11 721 q 7 753 3 736 q 26 779 11 769 l 182 878 q 233 885 208 896 q 257 846 257 874 l 257 411 q 244 381 257 393 q 214 368 232 368 q 183 381 196 368 q 171 411 171 393 l 171 767 l 71 706 q 38 701 56 696 q 11 721 21 706 z "},"¸":{"ha":282,"x_min":18,"x_max":260,"o":"m 100 82 l 178 82 l 178 -19 q 237 -63 214 -32 q 260 -135 260 -94 q 224 -220 260 -185 q 139 -256 189 -256 q 53 -220 89 -256 q 18 -135 18 -185 q 30 -108 18 -119 q 57 -96 42 -96 q 84 -108 72 -96 q 96 -135 96 -119 q 110 -166 99 -154 q 139 -178 122 -178 q 169 -165 157 -178 q 182 -135 182 -153 q 170 -106 182 -118 q 139 -92 158 -93 q 112 -79 124 -92 q 100 -47 100 -67 l 100 82 z "},"Þ":{"ha":689,"x_min":42,"x_max":686,"o":"m 89 886 q 117 874 104 888 q 129 842 129 860 l 129 563 q 364 643 286 643 q 485 619 426 643 q 593 550 544 594 q 664 448 642 503 q 686 321 686 393 q 660 196 686 254 q 590 94 635 138 q 488 25 546 50 q 365 0 429 0 q 243 26 301 0 q 140 96 185 51 q 68 198 94 140 q 42 321 42 256 l 42 850 q 53 876 42 864 q 78 886 65 888 l 89 886 m 129 321 q 149 229 129 272 q 200 154 168 186 q 275 103 232 122 q 365 85 318 85 q 455 103 413 85 q 530 154 497 122 q 582 229 563 186 q 601 321 601 272 q 582 413 601 369 q 530 488 563 456 q 455 540 497 521 q 365 558 413 558 q 275 538 318 558 q 200 485 232 518 q 149 409 168 451 q 129 321 129 367 m 43 844 q 56 875 43 863 q 86 888 68 888 q 117 875 104 888 q 129 844 129 863 l 129 -168 q 117 -199 129 -186 q 86 -211 104 -211 q 56 -199 68 -211 q 43 -168 43 -186 l 43 844 z "},"ß":{"ha":583,"x_min":39,"x_max":551,"o":"m 251 33 q 264 64 251 51 q 294 76 276 76 q 421 132 375 83 q 467 246 467 181 q 454 310 467 281 q 419 363 442 340 q 364 400 396 386 q 294 417 332 414 q 264 429 276 417 q 251 460 251 442 q 264 490 251 478 q 294 503 276 503 q 362 516 331 503 q 417 553 393 529 q 453 607 440 576 q 467 674 467 638 q 453 740 467 708 q 417 794 440 771 q 362 831 393 818 q 294 844 331 844 q 228 831 258 844 q 174 794 197 818 q 137 740 150 771 q 124 674 124 708 l 124 33 q 111 3 124 15 q 81 -10 99 -10 q 51 3 63 -10 q 39 33 39 15 l 39 674 q 59 774 39 726 q 114 856 79 821 q 195 910 149 890 q 294 931 242 931 q 394 910 347 931 q 476 856 442 890 q 531 774 511 821 q 551 674 551 726 q 520 551 551 607 q 436 460 489 494 q 519 368 488 424 q 550 246 550 313 q 530 147 550 193 q 475 65 510 100 q 394 10 440 31 q 294 -10 347 -10 q 264 3 276 -10 q 251 33 251 15 z "},"ø":{"ha":810,"x_min":29,"x_max":700,"o":"m 367 672 q 494 645 433 672 q 600 572 554 618 q 673 465 646 526 q 700 335 700 404 q 674 206 700 267 q 602 100 647 146 q 496 28 557 54 q 364 1 435 1 q 234 26 294 1 q 128 96 174 51 q 56 201 82 140 q 29 335 29 263 q 55 465 29 404 q 126 570 81 525 q 233 642 171 615 q 367 672 294 669 m 115 335 q 135 238 115 283 q 188 159 154 193 q 267 106 222 125 q 364 86 313 86 q 461 106 415 86 q 541 159 507 125 q 594 238 575 193 q 614 335 614 283 q 594 432 614 386 q 541 512 575 478 q 461 565 507 546 q 364 585 415 585 q 267 565 313 585 q 188 512 222 546 q 135 432 154 478 q 115 335 115 386 m 454 781 q 476 806 460 797 q 508 808 492 814 q 533 786 525 801 q 536 754 542 771 l 269 -79 q 247 -104 263 -96 q 215 -107 232 -112 q 189 -85 197 -101 q 188 -53 181 -69 l 454 781 z "},"ð":{"ha":567,"x_min":13,"x_max":531,"o":"m 260 853 q 272 883 260 871 q 303 896 285 896 q 410 872 367 894 q 479 815 453 849 q 517 742 506 781 q 529 674 529 704 l 531 263 q 510 162 531 208 q 455 80 490 115 q 372 24 419 44 q 271 4 325 4 q 170 24 217 4 q 88 80 124 44 q 33 162 53 115 q 13 263 13 208 q 33 364 13 317 q 88 447 53 411 q 170 502 124 482 q 271 522 217 522 q 365 505 321 522 q 444 456 410 488 l 444 674 q 440 706 444 683 q 419 751 435 728 q 376 791 404 774 q 303 810 349 808 q 272 822 285 810 q 260 853 260 835 m 99 263 q 112 195 99 226 q 149 140 125 164 q 203 103 172 117 q 271 90 235 90 q 338 103 307 90 q 393 140 369 117 q 431 195 417 164 q 444 263 444 226 q 431 330 444 299 q 393 385 417 361 q 338 422 369 408 q 271 436 307 436 q 203 422 235 436 q 149 385 172 408 q 112 330 125 361 q 99 263 99 299 z "},"ç":{"ha":722,"x_min":26,"x_max":613,"o":"m 536 514 q 457 563 501 544 q 361 582 413 582 q 265 563 310 582 q 185 509 219 543 q 132 429 151 475 q 113 332 113 383 q 132 235 113 281 q 185 156 151 190 q 265 103 219 122 q 361 83 310 83 q 457 102 413 83 q 536 154 501 121 q 567 167 549 167 q 597 154 585 167 q 609 123 610 142 q 593 89 608 104 q 559 60 581 76 q 508 31 538 44 q 441 8 478 17 q 361 -1 404 -1 q 231 24 292 -1 q 125 93 171 49 q 53 199 79 138 q 26 332 26 260 q 52 462 26 401 q 123 567 78 522 q 230 640 168 613 q 364 669 292 667 q 441 659 406 669 q 505 634 476 649 q 556 603 533 619 q 592 574 578 586 q 606 548 600 567 q 597 514 613 529 q 567 501 585 501 q 536 514 549 501 m 306 71 l 383 71 l 383 -31 q 442 -74 419 -43 q 465 -146 465 -106 q 430 -231 465 -196 q 344 -267 394 -267 q 259 -231 294 -267 q 224 -146 224 -196 q 235 -119 224 -131 q 263 -107 247 -107 q 290 -119 278 -107 q 301 -146 301 -131 q 316 -177 304 -165 q 344 -189 328 -189 q 375 -176 363 -189 q 388 -146 388 -164 q 376 -117 388 -129 q 344 -103 364 -104 q 317 -90 329 -103 q 306 -58 306 -78 l 306 71 z "},"Ç":{"ha":747,"x_min":26,"x_max":807,"o":"m 113 446 q 140 307 113 372 q 216 193 168 242 q 329 116 264 144 q 468 88 394 88 q 613 117 546 88 q 729 200 681 147 q 758 217 740 213 q 789 211 775 221 q 804 177 804 199 q 792 142 804 156 q 647 38 731 75 q 468 1 564 1 q 296 36 376 1 q 156 131 215 71 q 61 273 96 192 q 26 446 26 354 q 61 619 26 538 q 156 760 96 700 q 296 856 215 821 q 468 892 376 892 q 642 856 561 892 q 785 757 724 819 q 801 729 796 746 q 797 697 807 713 q 765 679 786 681 q 728 693 743 678 q 611 771 678 736 q 468 806 544 806 q 329 777 394 806 q 216 699 264 749 q 140 585 168 650 q 113 446 113 519 m 406 38 l 483 38 l 483 -64 q 542 -108 519 -76 q 565 -179 565 -139 q 530 -265 565 -229 q 444 -300 494 -300 q 359 -265 394 -300 q 324 -179 324 -229 q 335 -152 324 -164 q 363 -140 347 -140 q 390 -152 378 -140 q 401 -179 401 -164 q 416 -210 404 -199 q 444 -222 428 -222 q 475 -210 463 -222 q 488 -179 488 -197 q 476 -150 488 -162 q 444 -136 464 -137 q 417 -124 429 -136 q 406 -92 406 -111 l 406 38 z "},"§":{"ha":625,"x_min":31,"x_max":593,"o":"m 63 -26 q 74 8 63 -4 q 104 21 86 21 q 135 9 122 21 q 147 -21 147 -3 q 161 -69 147 -44 q 199 -112 175 -93 q 256 -144 224 -132 q 328 -156 289 -156 q 398 -144 365 -156 q 456 -115 431 -133 q 494 -73 481 -97 q 508 -21 508 -49 q 494 31 508 7 q 457 71 481 54 q 451 75 456 72 q 435 88 444 79 q 308 58 378 58 q 199 80 250 58 q 111 139 149 101 q 52 227 74 176 q 31 336 31 278 q 57 455 31 400 q 128 549 83 510 q 64 619 88 578 q 40 708 40 660 q 61 794 40 754 q 118 864 82 835 q 203 910 154 893 q 306 928 251 928 q 408 911 360 928 q 492 865 456 894 q 549 797 528 836 q 571 714 569 758 q 559 679 571 692 q 529 667 547 667 q 499 678 511 667 q 486 708 486 690 q 472 756 486 732 q 434 800 458 781 q 377 831 410 819 q 306 843 344 843 q 235 832 268 843 q 178 803 203 821 q 139 760 153 785 q 125 708 125 735 q 139 657 125 681 q 176 617 153 633 q 183 611 179 615 q 206 594 190 604 q 255 610 229 604 q 308 615 281 615 q 417 593 367 615 q 506 533 468 571 q 565 445 543 496 q 588 336 588 394 q 565 227 588 278 q 506 139 543 176 q 569 69 546 110 q 593 -21 593 28 q 572 -107 593 -67 q 515 -176 551 -147 q 431 -223 479 -206 q 328 -240 382 -240 q 226 -224 274 -240 q 142 -178 178 -207 q 85 -110 106 -149 q 63 -26 64 -71 m 117 336 q 132 261 117 296 q 174 200 147 226 q 235 158 200 174 q 310 143 269 143 q 384 158 349 143 q 445 200 419 174 q 486 261 471 226 q 501 336 501 296 q 486 410 501 375 q 445 472 471 446 q 384 513 419 497 q 310 528 349 528 q 235 513 269 528 q 174 472 200 497 q 132 410 147 446 q 117 336 117 375 z "},"‡":{"ha":507,"x_min":6,"x_max":501,"o":"m 6 658 q 18 689 6 676 q 49 701 31 701 l 208 701 l 208 883 q 221 914 208 901 q 251 926 233 926 q 282 914 269 926 q 294 883 294 901 l 294 701 l 458 701 q 489 689 476 701 q 501 658 501 676 q 489 628 501 640 q 458 615 476 615 l 294 615 l 294 351 l 458 351 q 489 339 476 351 q 501 308 501 326 q 489 278 501 290 q 458 265 476 265 l 294 265 l 294 -179 q 282 -210 294 -197 q 251 -222 269 -222 q 221 -210 233 -222 q 208 -179 208 -197 l 208 265 l 49 265 q 18 278 31 265 q 6 308 6 290 q 18 339 6 326 q 49 351 31 351 l 208 351 l 208 615 l 49 615 q 18 628 31 615 q 6 658 6 640 z "},"†":{"ha":522,"x_min":4,"x_max":518,"o":"m 4 547 q 17 578 4 565 q 47 590 29 590 l 218 590 l 218 885 q 231 915 218 903 q 261 928 243 928 q 292 915 279 928 q 304 885 304 903 l 304 590 l 475 590 q 506 578 493 590 q 518 547 518 565 q 506 517 518 529 q 475 504 493 504 l 304 504 l 304 -178 q 292 -208 304 -196 q 261 -221 279 -221 q 231 -208 243 -221 q 218 -178 218 -196 l 218 504 l 47 504 q 17 517 29 504 q 4 547 4 529 z "},"«":{"ha":933,"x_min":24,"x_max":893,"o":"m 881 76 q 893 46 893 64 q 881 15 893 28 q 850 3 868 3 q 819 15 832 3 l 524 297 l 522 299 q 510 329 510 311 q 522 360 510 347 l 819 639 q 850 651 832 651 q 881 639 868 651 q 893 608 893 626 q 881 578 893 590 l 615 329 l 881 76 m 394 76 q 407 46 407 64 q 394 15 407 28 q 364 3 382 3 q 333 15 346 3 l 38 297 l 36 299 q 24 329 24 311 q 36 360 24 347 l 333 639 q 364 651 346 651 q 394 639 382 651 q 407 608 407 626 q 394 578 407 590 l 129 329 l 394 76 z "},"°":{"ha":576,"x_min":29,"x_max":547,"o":"m 29 667 q 49 768 29 721 q 105 851 69 815 q 187 906 140 886 q 288 926 233 926 q 389 906 342 926 q 472 851 436 886 q 527 768 507 815 q 547 667 547 721 q 527 566 547 613 q 472 484 507 519 q 389 428 436 449 q 288 408 342 408 q 187 428 233 408 q 105 484 140 449 q 49 566 69 519 q 29 667 29 613 m 115 667 q 128 599 115 631 q 165 544 142 568 q 220 508 189 521 q 288 494 251 494 q 355 508 324 494 q 410 544 386 521 q 447 599 433 568 q 461 667 461 631 q 447 734 461 703 q 410 789 433 765 q 355 826 386 813 q 288 840 324 840 q 220 826 251 840 q 165 789 189 813 q 128 734 142 765 q 115 667 115 703 z "},"²":{"ha":508,"x_min":29,"x_max":478,"o":"m 54 729 q 72 792 56 763 q 114 844 88 822 q 176 878 140 865 q 253 890 213 890 q 331 877 294 890 q 394 842 367 864 q 437 790 421 819 q 453 725 453 760 q 433 660 453 689 q 386 606 414 632 q 350 575 375 596 q 291 526 329 557 q 192 449 253 496 l 438 449 q 466 435 454 447 q 478 406 478 422 q 466 376 478 388 q 438 363 454 364 l 74 363 q 46 372 61 363 q 31 406 31 382 q 38 431 29 421 q 54 447 47 442 q 197 561 146 519 q 275 624 249 603 q 314 654 306 649 q 349 686 331 668 q 367 725 367 704 q 356 760 367 746 q 329 785 346 775 q 292 799 313 794 q 251 804 272 804 q 216 799 235 804 q 181 786 197 794 q 153 765 164 778 q 140 735 142 751 q 126 699 139 711 q 97 686 114 686 q 68 698 82 686 q 54 729 54 710 z "},"³":{"ha":421,"x_min":29,"x_max":389,"o":"m 167 567 q 178 597 167 585 q 208 608 190 608 q 276 636 249 608 q 303 703 303 664 q 276 769 303 742 q 208 796 249 796 q 142 769 168 796 q 115 703 115 742 q 103 672 115 685 q 72 660 90 660 q 42 672 54 660 q 29 703 29 685 q 43 773 29 740 q 81 831 57 806 q 138 869 106 856 q 208 883 171 883 q 278 869 246 883 q 336 831 311 856 q 375 773 361 806 q 389 703 389 740 q 372 626 389 663 q 325 567 354 590 q 372 506 354 542 q 389 429 389 471 q 376 365 389 397 q 340 307 364 333 q 283 265 317 281 q 208 249 250 249 q 138 263 171 249 q 81 301 106 276 q 43 359 57 326 q 29 429 29 392 q 42 460 29 447 q 72 472 54 472 q 103 460 90 472 q 115 429 115 447 q 142 363 115 390 q 208 336 168 336 q 276 363 249 336 q 303 429 303 390 q 276 494 303 467 q 208 524 250 521 q 178 536 190 524 q 167 567 167 549 z "},"ƒ":{"ha":469,"x_min":7,"x_max":463,"o":"m 96 472 q 108 503 96 490 q 139 515 121 515 l 192 515 l 192 699 q 203 768 192 729 q 242 842 215 807 q 313 900 269 876 q 419 925 356 924 q 450 913 438 925 q 463 882 463 900 q 450 851 463 864 q 419 839 438 839 q 346 819 374 838 q 303 778 318 801 q 283 731 288 754 q 278 699 278 708 l 278 515 l 336 515 q 367 503 354 515 q 379 472 379 490 q 367 442 379 454 q 336 429 354 429 l 278 429 l 278 -7 q 266 -76 278 -37 q 227 -150 254 -115 q 157 -208 200 -185 q 50 -233 114 -232 q 19 -221 32 -233 q 7 -190 7 -208 q 19 -160 7 -172 q 50 -147 32 -147 q 124 -128 96 -146 q 167 -86 151 -110 q 187 -40 182 -62 q 192 -7 192 -18 l 192 429 l 139 429 q 108 442 121 429 q 96 472 96 454 z "},"…":{"ha":728,"x_min":39,"x_max":689,"o":"m 39 57 q 56 97 39 81 q 96 114 72 114 q 136 97 119 114 q 153 57 153 81 q 136 17 153 33 q 96 0 119 0 q 56 17 72 0 q 39 57 39 33 m 307 57 q 324 97 307 81 q 364 114 340 114 q 404 97 388 114 q 421 57 421 81 q 404 17 421 33 q 364 0 388 0 q 324 17 340 0 q 307 57 307 33 m 575 57 q 592 97 575 81 q 632 114 608 114 q 672 97 656 114 q 689 57 689 81 q 672 17 689 33 q 632 0 656 0 q 592 17 608 0 q 575 57 575 33 z "},"^":{"ha":817,"x_min":19,"x_max":799,"o":"m 26 393 q 28 398 26 394 q 40 416 31 401 q 70 461 50 431 q 127 547 90 492 q 220 688 164 603 q 358 896 276 772 q 376 919 365 907 q 407 931 388 931 q 436 920 426 931 q 454 896 446 910 q 592 688 536 772 q 685 547 649 603 q 743 461 722 492 q 774 416 764 431 q 787 398 785 401 q 790 393 789 394 q 794 363 799 378 q 775 338 790 347 q 745 333 760 328 q 722 350 731 339 l 406 797 l 104 357 q 76 334 94 344 q 39 336 58 324 q 22 361 24 346 q 26 393 19 376 z "},"±":{"ha":543,"x_min":14,"x_max":529,"o":"m 271 317 q 240 329 253 317 q 228 360 228 342 l 228 532 l 57 532 q 26 544 39 532 q 14 575 14 557 q 26 606 14 593 q 57 618 39 618 l 228 618 l 228 790 q 240 821 228 808 q 271 833 253 833 q 301 821 289 833 q 314 790 314 808 l 314 618 l 486 618 q 517 606 504 618 q 529 575 529 593 q 517 544 529 557 q 486 532 504 532 l 314 532 l 314 360 q 301 329 314 342 q 271 317 289 317 m 14 224 q 26 254 14 242 q 57 267 39 267 l 485 267 q 515 254 503 267 q 528 224 528 242 q 515 193 528 206 q 485 181 503 181 l 57 181 q 26 193 39 181 q 14 224 14 206 z "},"þ":{"ha":689,"x_min":42,"x_max":686,"o":"m 89 886 q 117 874 104 888 q 129 842 129 860 l 129 563 q 364 643 286 643 q 485 619 426 643 q 593 550 544 594 q 664 448 642 503 q 686 321 686 393 q 660 196 686 254 q 590 94 635 138 q 488 25 546 50 q 365 0 429 0 q 243 26 301 0 q 140 96 185 51 q 68 198 94 140 q 42 321 42 256 l 42 850 q 53 876 42 864 q 78 886 65 888 l 89 886 m 129 321 q 149 229 129 272 q 200 154 168 186 q 275 103 232 122 q 365 85 318 85 q 455 103 413 85 q 530 154 497 122 q 582 229 563 186 q 601 321 601 272 q 582 413 601 369 q 530 488 563 456 q 455 540 497 521 q 365 558 413 558 q 275 538 318 558 q 200 485 232 518 q 149 409 168 451 q 129 321 129 367 m 43 844 q 56 875 43 863 q 86 888 68 888 q 117 875 104 888 q 129 844 129 863 l 129 -168 q 117 -199 129 -186 q 86 -211 104 -211 q 56 -199 68 -211 q 43 -168 43 -186 l 43 844 z "},"¶":{"ha":174,"x_min":42,"x_max":128,"o":"m 42 849 q 54 879 42 867 q 85 892 67 892 q 115 879 103 892 q 128 849 128 867 l 128 43 q 115 13 128 25 q 85 0 103 0 q 54 13 67 0 q 42 43 42 25 l 42 849 z "},"›":{"ha":428,"x_min":38,"x_max":421,"o":"m 315 329 l 50 578 q 38 608 38 590 q 50 639 38 626 q 81 651 63 651 q 111 639 99 651 l 408 360 q 421 329 421 347 q 408 299 421 311 l 407 297 l 111 15 q 81 3 99 3 q 50 15 63 3 q 38 46 38 28 q 50 76 38 64 l 315 329 z "},"‹":{"ha":428,"x_min":7,"x_max":390,"o":"m 378 76 q 390 46 390 64 q 378 15 390 28 q 347 3 365 3 q 317 15 329 3 l 21 297 l 19 299 q 7 329 7 311 q 19 360 7 347 l 317 639 q 347 651 329 651 q 378 639 365 651 q 390 608 390 626 q 378 578 390 590 l 113 329 l 378 76 z "},"¬":{"ha":685,"x_min":3,"x_max":643,"o":"m 600 475 q 631 463 618 475 q 643 432 643 450 l 643 235 q 631 204 643 217 q 600 192 618 192 q 569 204 582 192 q 557 235 557 217 l 557 389 l 46 389 q 15 401 28 389 q 3 432 3 414 q 15 463 3 450 q 46 475 28 475 l 600 475 z "},"©":{"ha":1063,"x_min":29,"x_max":1033,"o":"m 29 424 q 69 619 29 528 q 176 779 108 711 q 335 887 243 847 q 531 926 426 926 q 726 887 635 926 q 886 779 818 847 q 994 619 954 711 q 1033 424 1033 528 q 994 228 1033 319 q 886 69 954 136 q 726 -38 818 1 q 531 -78 635 -78 q 335 -38 426 -78 q 176 69 243 1 q 69 228 108 136 q 29 424 29 319 m 381 422 q 423 317 381 360 q 528 275 465 275 q 585 285 558 275 q 631 315 611 296 q 660 329 643 329 q 690 318 678 329 q 704 288 704 306 q 693 258 704 271 q 526 189 624 189 q 435 208 478 189 q 361 258 393 226 q 310 333 329 290 q 292 424 292 375 q 310 515 292 472 q 361 589 329 557 q 435 640 393 621 q 526 658 478 658 q 590 649 561 658 q 641 628 619 640 q 676 603 663 615 q 696 582 690 590 q 710 552 710 569 q 699 522 710 535 q 665 512 686 508 q 632 526 643 515 q 585 558 613 546 q 528 571 558 571 q 470 559 497 571 q 424 527 443 547 q 392 480 404 507 q 381 422 381 453 m 115 422 q 148 260 115 336 q 237 128 181 185 q 369 40 293 72 q 531 7 444 7 q 693 40 617 7 q 826 128 769 72 q 915 260 882 185 q 947 422 947 336 q 915 585 947 508 q 826 717 882 661 q 693 806 769 774 q 531 839 617 839 q 369 806 444 839 q 237 717 293 774 q 148 585 181 661 q 115 422 115 508 z "},"®":{"ha":1063,"x_min":29,"x_max":1033,"o":"m 29 424 q 69 619 29 528 q 176 779 108 711 q 335 887 243 847 q 531 926 426 926 q 726 887 635 926 q 886 779 818 847 q 994 619 954 711 q 1033 424 1033 528 q 994 228 1033 319 q 886 69 954 136 q 726 -38 818 1 q 531 -78 635 -78 q 335 -38 426 -78 q 176 69 243 1 q 69 228 108 136 q 29 424 29 319 m 115 422 q 148 260 115 336 q 237 128 181 185 q 369 40 293 72 q 531 7 444 7 q 693 40 617 7 q 826 128 769 72 q 915 260 882 185 q 947 422 947 336 q 915 585 947 508 q 826 717 882 661 q 693 806 769 774 q 531 839 617 839 q 369 806 444 839 q 237 717 293 774 q 148 585 181 661 q 115 422 115 508 m 431 417 q 452 513 432 467 q 506 594 472 558 q 584 650 539 629 q 682 671 629 671 q 714 658 701 671 q 726 626 726 646 q 714 594 726 607 q 682 582 701 582 q 616 567 646 581 q 565 531 586 553 q 531 479 543 508 q 517 417 518 450 l 517 217 q 504 186 517 199 q 474 174 492 174 q 443 186 456 174 q 431 217 431 199 l 431 417 z "},"­":{"ha":594,"x_min":40,"x_max":554,"o":"m 40 432 q 53 463 40 450 q 83 475 65 475 l 511 475 q 542 463 529 475 q 554 432 554 450 q 542 401 554 414 q 511 389 529 389 l 83 389 q 53 401 65 389 q 40 432 40 414 z "},"™":{"ha":1125,"x_min":32,"x_max":1085,"o":"m 32 847 q 44 878 32 865 q 75 890 57 890 l 347 890 q 378 878 365 890 q 390 847 390 865 q 378 817 390 829 q 347 804 365 804 l 254 804 l 254 528 q 242 497 254 510 q 211 485 229 485 q 181 497 193 485 q 168 528 168 510 l 168 804 l 75 804 q 44 817 57 804 q 32 847 32 829 m 483 483 q 453 496 465 483 q 440 526 440 508 l 440 708 q 454 779 440 746 q 493 838 468 813 q 551 877 518 863 q 622 892 585 892 q 701 874 664 892 q 763 826 738 857 q 824 874 788 856 q 903 892 860 892 q 974 877 940 892 q 1032 838 1007 863 q 1071 779 1057 813 q 1085 708 1085 746 l 1085 526 q 1072 496 1085 508 q 1042 483 1060 483 q 1011 496 1024 483 q 999 526 999 508 l 999 713 q 967 780 994 754 q 903 806 940 806 q 835 777 863 806 q 806 708 807 749 l 806 526 q 793 496 806 508 q 763 483 781 483 q 732 496 744 483 q 719 526 719 508 l 719 713 q 689 779 717 753 q 622 806 661 806 q 555 778 582 806 q 526 713 528 751 l 526 526 q 514 496 526 508 q 483 483 501 483 z "},"ª":{"ha":574,"x_min":28,"x_max":539,"o":"m 285 925 q 383 904 336 925 q 464 849 429 883 q 519 767 499 814 q 539 668 539 721 l 539 444 q 528 416 539 431 q 496 401 518 401 q 463 416 474 401 q 453 444 453 431 l 453 496 q 379 435 417 457 q 283 414 342 414 q 184 433 231 414 q 103 487 138 453 q 48 567 68 521 q 28 668 28 614 q 47 767 28 721 q 101 847 67 813 q 183 902 136 882 q 285 925 231 922 m 115 669 q 128 603 115 635 q 165 549 142 572 q 219 513 188 526 q 285 500 250 500 q 351 513 319 500 q 405 549 382 526 q 441 603 428 572 q 454 669 454 635 q 441 735 454 704 q 405 790 428 767 q 351 826 382 813 q 285 839 319 839 q 219 826 250 839 q 165 790 188 813 q 128 735 142 767 q 115 669 115 704 z "},"º":{"ha":575,"x_min":29,"x_max":546,"o":"m 29 667 q 49 767 29 721 q 105 849 69 814 q 187 905 140 885 q 288 925 233 925 q 388 905 342 925 q 470 849 435 885 q 526 767 506 814 q 546 667 546 721 q 526 566 546 613 q 470 484 506 519 q 388 428 435 449 q 288 408 342 408 q 187 428 233 408 q 105 484 140 449 q 49 566 69 519 q 29 667 29 613 m 115 667 q 129 599 115 631 q 166 545 143 568 q 220 508 189 522 q 288 494 251 494 q 354 508 322 494 q 409 545 386 522 q 446 599 432 568 q 460 667 460 631 q 446 733 460 701 q 409 788 432 765 q 354 825 386 811 q 288 839 322 839 q 220 825 251 839 q 166 788 189 811 q 129 733 143 765 q 115 667 115 701 z "},"¤":{"ha":744,"x_min":39,"x_max":710,"o":"m 122 903 q 170 832 147 867 q 215 764 193 797 q 376 807 289 803 q 522 771 454 804 q 567 834 544 801 q 615 903 590 867 q 646 924 628 921 q 679 918 664 928 q 698 888 696 906 q 686 853 700 869 q 638 786 661 818 q 593 722 615 754 q 678 610 646 675 q 710 469 710 544 q 678 328 710 393 q 592 215 646 263 q 644 138 625 167 q 674 93 664 108 q 687 73 683 78 q 690 68 690 68 q 698 35 701 53 q 679 7 694 17 q 647 -1 664 -4 q 619 18 629 3 q 616 24 619 18 q 602 45 613 29 q 572 91 592 61 q 519 169 553 121 q 450 145 486 154 q 374 136 414 136 q 214 175 288 136 q 160 92 179 122 q 133 45 142 61 q 123 24 125 29 q 121 18 121 18 q 94 -1 111 3 q 61 7 76 -4 q 42 35 46 17 q 50 68 39 53 q 52 74 50 68 q 64 95 54 79 q 92 142 74 111 q 144 224 111 172 q 67 331 96 268 q 39 469 39 394 q 67 606 39 543 q 144 714 96 668 q 99 781 122 746 q 50 853 76 815 q 41 888 40 872 q 58 918 42 904 q 92 924 74 928 q 122 903 110 921 m 126 469 q 146 373 126 418 q 199 294 165 328 q 278 240 233 260 q 375 221 324 221 q 472 240 426 221 q 552 294 518 260 q 606 373 586 328 q 625 469 625 418 q 606 567 625 521 q 552 647 586 613 q 472 700 518 681 q 375 719 426 719 q 278 700 324 719 q 199 647 233 681 q 146 567 165 613 q 126 469 126 521 z "},"O":{"ha":942,"x_min":29,"x_max":914,"o":"m 29 444 q 64 617 29 536 q 158 758 99 697 q 299 853 218 818 q 471 888 379 888 q 643 853 563 888 q 784 758 724 818 q 879 617 844 697 q 914 444 914 536 q 879 272 914 353 q 784 132 844 192 q 643 38 724 72 q 471 3 563 3 q 299 38 379 3 q 158 132 218 72 q 64 272 99 192 q 29 444 29 353 m 115 444 q 143 306 115 371 q 219 192 171 240 q 332 117 267 144 q 471 89 397 89 q 610 117 544 89 q 724 192 675 144 q 800 306 772 240 q 828 444 828 371 q 800 583 828 518 q 724 697 772 649 q 610 774 675 746 q 471 801 544 801 q 332 774 397 801 q 219 697 267 746 q 143 583 171 649 q 115 444 115 518 z "},"P":{"ha":693,"x_min":38,"x_max":683,"o":"m 38 568 q 63 694 38 635 q 131 797 88 753 q 234 866 175 840 q 360 892 293 892 q 485 866 426 892 q 588 797 544 840 q 658 694 632 753 q 683 568 683 635 q 658 442 683 501 q 588 340 632 383 q 485 271 544 296 q 360 246 426 246 q 288 254 324 246 q 222 279 253 263 q 165 320 190 296 q 124 378 139 344 l 124 43 q 111 13 124 25 q 81 0 99 0 q 50 13 63 0 q 38 43 38 25 l 38 568 m 124 568 q 144 474 125 517 q 196 399 164 431 q 269 350 228 368 q 360 332 311 332 q 451 351 408 332 q 527 401 494 369 q 578 476 560 433 q 597 568 597 519 q 578 660 597 617 q 527 735 560 703 q 451 787 494 768 q 360 806 408 806 q 268 787 311 806 q 193 735 225 768 q 142 660 161 703 q 124 568 124 617 z "},"G":{"ha":933,"x_min":28,"x_max":911,"o":"m 653 407 q 665 438 653 425 q 696 450 678 450 l 868 450 q 899 438 886 450 q 911 407 911 425 q 867 248 904 322 q 770 119 829 174 q 634 33 711 64 q 469 1 557 1 q 297 36 378 1 q 157 131 217 71 q 63 271 97 190 q 28 443 28 351 q 63 616 28 535 q 157 759 97 697 q 297 856 217 821 q 469 892 378 892 q 644 856 563 892 q 786 757 725 819 q 802 726 801 744 q 792 694 803 708 q 758 681 778 681 q 724 697 739 682 q 610 776 675 747 q 469 806 544 806 q 331 776 396 806 q 217 698 265 747 q 142 583 169 649 q 114 443 114 517 q 142 304 114 369 q 217 191 169 239 q 331 115 265 143 q 469 88 396 88 q 590 108 533 88 q 693 166 647 129 q 771 253 739 203 q 817 364 803 304 l 696 364 q 665 376 678 364 q 653 407 653 389 z "},"‰":{"ha":1326,"x_min":28,"x_max":1314,"o":"m 532 888 q 552 913 536 904 q 585 918 568 922 q 610 896 601 911 q 614 864 618 881 l 336 29 q 314 4 329 13 q 282 0 299 -4 q 256 22 264 6 q 254 54 247 38 l 532 888 m 28 722 q 44 800 28 764 q 87 863 60 836 q 150 906 114 890 q 228 922 186 922 q 306 906 269 922 q 369 863 342 890 q 412 800 396 836 q 428 722 428 764 q 412 644 428 681 q 369 581 396 608 q 306 538 342 554 q 228 522 269 522 q 150 538 186 522 q 87 581 114 554 q 44 644 60 608 q 28 722 28 681 m 114 722 q 147 642 114 675 q 228 608 181 608 q 308 642 275 608 q 342 722 342 675 q 308 803 342 769 q 228 836 275 836 q 147 803 181 836 q 114 722 114 769 m 450 199 q 466 276 450 240 q 509 340 482 313 q 572 383 536 367 q 650 399 608 399 q 728 383 692 399 q 791 340 764 367 q 834 276 818 313 q 850 199 850 240 q 834 121 850 157 q 791 58 818 85 q 728 15 764 31 q 650 -1 692 -1 q 572 15 608 -1 q 509 58 536 31 q 466 121 482 85 q 450 199 450 157 m 536 199 q 569 118 536 151 q 650 85 603 85 q 731 118 697 85 q 764 199 764 151 q 731 279 764 246 q 650 313 697 313 q 569 279 603 313 q 536 199 536 246 m 914 199 q 930 276 914 240 q 973 340 946 313 q 1036 383 1000 367 q 1114 399 1072 399 q 1192 383 1156 399 q 1255 340 1228 367 q 1298 276 1282 313 q 1314 199 1314 240 q 1298 121 1314 157 q 1255 58 1282 85 q 1192 15 1228 31 q 1114 -1 1156 -1 q 1036 15 1072 -1 q 973 58 1000 31 q 930 121 946 85 q 914 199 914 157 m 1000 199 q 1033 118 1000 151 q 1114 85 1067 85 q 1194 118 1161 85 q 1228 199 1228 151 q 1194 279 1228 246 q 1114 313 1161 313 q 1033 279 1067 313 q 1000 199 1000 246 z "},"b":{"ha":719,"x_min":38,"x_max":708,"o":"m 375 672 q 502 645 442 672 q 608 572 563 618 q 681 465 654 526 q 708 335 708 404 q 682 206 708 267 q 610 100 656 146 q 504 28 565 54 q 372 1 443 1 q 242 26 303 1 q 136 96 182 51 q 64 201 90 140 q 38 335 38 263 l 38 849 q 50 879 38 867 q 81 892 63 892 q 111 879 99 892 q 124 849 124 867 l 124 546 q 233 633 169 596 q 375 672 297 669 m 124 335 q 143 238 124 283 q 197 159 163 193 q 276 106 231 125 q 372 86 321 86 q 469 106 424 86 q 549 159 515 125 q 603 238 583 193 q 622 335 622 283 q 603 432 622 386 q 549 512 583 478 q 469 565 515 546 q 372 585 424 585 q 278 566 322 585 q 200 514 233 547 q 146 435 167 481 q 124 335 125 389 z "},"Q":{"ha":938,"x_min":25,"x_max":910,"o":"m 25 444 q 60 617 25 536 q 154 758 94 697 q 294 853 214 818 q 467 888 375 888 q 639 853 558 888 q 780 758 719 818 q 875 617 840 697 q 910 444 910 536 q 892 319 910 379 q 841 208 874 258 q 763 116 808 157 q 663 49 717 75 q 717 29 682 32 q 747 17 735 29 q 760 -14 760 4 q 747 -44 760 -32 q 717 -57 735 -57 q 635 -35 671 -54 q 575 15 599 -17 q 526 6 551 10 q 467 3 500 3 q 302 36 382 3 q 161 129 222 69 q 63 269 100 189 q 25 444 25 350 m 300 157 q 313 228 300 196 q 349 285 326 261 q 402 323 372 310 q 467 336 432 336 q 533 322 501 336 q 588 282 565 307 q 624 224 611 257 q 632 156 636 192 l 628 126 q 707 181 671 149 q 769 255 743 214 q 809 344 794 296 q 824 444 824 392 q 796 583 824 518 q 719 697 768 649 q 606 774 671 746 q 467 801 540 801 q 328 774 393 801 q 215 697 263 746 q 139 583 167 649 q 111 444 111 518 q 164 256 111 340 q 303 128 217 172 l 300 157 m 386 169 q 408 115 386 138 q 467 89 431 92 q 524 113 500 89 q 547 169 547 136 q 524 226 547 203 q 467 250 500 250 q 410 226 433 250 q 386 169 386 203 z "},"Ü":{"ha":783,"x_min":38,"x_max":682,"o":"m 360 0 q 232 26 290 0 q 131 95 174 51 q 64 198 89 139 q 38 324 39 257 l 38 854 q 51 881 38 869 q 82 892 64 892 q 113 881 100 892 q 125 853 125 871 l 125 314 q 144 224 125 265 q 195 152 163 183 q 270 103 228 121 q 358 86 313 86 q 453 105 410 86 q 529 156 497 124 q 579 231 561 188 q 597 322 597 274 l 597 854 q 610 881 597 869 q 640 892 622 892 q 671 880 660 893 q 682 851 682 867 l 682 310 q 656 187 682 243 q 585 89 629 131 q 482 24 540 47 q 360 0 424 0 m 151 1067 q 168 1107 151 1090 q 208 1124 185 1124 q 249 1107 232 1124 q 265 1067 265 1090 q 249 1026 265 1043 q 208 1010 232 1010 q 168 1026 185 1010 q 151 1067 151 1043 m 468 1067 q 485 1107 468 1090 q 525 1124 501 1124 q 565 1107 549 1124 q 582 1067 582 1090 q 565 1026 582 1043 q 525 1010 549 1010 q 485 1026 501 1010 q 468 1067 468 1043 z "},"Û":{"ha":783,"x_min":38,"x_max":682,"o":"m 360 0 q 232 26 290 0 q 131 95 174 51 q 64 198 89 139 q 38 324 39 257 l 38 854 q 51 881 38 869 q 82 892 64 892 q 113 881 100 892 q 125 853 125 871 l 125 314 q 144 224 125 265 q 195 152 163 183 q 270 103 228 121 q 358 86 313 86 q 453 105 410 86 q 529 156 497 124 q 579 231 561 188 q 597 322 597 274 l 597 854 q 610 881 597 869 q 640 892 622 892 q 671 880 660 893 q 682 851 682 867 l 682 310 q 656 187 682 243 q 585 89 629 131 q 482 24 540 47 q 360 0 424 0 m 364 1139 l 188 958 q 157 946 175 946 q 126 958 139 946 q 114 989 114 971 q 126 1019 114 1007 l 333 1232 q 364 1244 346 1244 q 394 1232 382 1244 l 396 1231 l 603 1022 q 615 992 615 1010 q 603 961 615 974 q 572 949 590 949 q 542 961 554 949 l 364 1139 z "},"Ø":{"ha":1165,"x_min":196,"x_max":1081,"o":"m 196 444 q 231 617 196 536 q 325 758 265 697 q 465 853 385 818 q 638 888 546 888 q 810 853 729 888 q 951 758 890 818 q 1046 617 1011 697 q 1081 444 1081 536 q 1046 272 1081 353 q 951 132 1011 192 q 810 38 890 72 q 638 3 729 3 q 465 38 546 3 q 325 132 385 72 q 231 272 265 192 q 196 444 196 353 m 282 444 q 310 306 282 371 q 385 192 338 240 q 499 117 433 144 q 638 89 564 89 q 776 117 711 89 q 890 192 842 144 q 967 306 939 240 q 994 444 994 371 q 967 583 994 518 q 890 697 939 649 q 776 774 842 746 q 638 801 711 801 q 499 774 564 801 q 385 697 433 746 q 310 583 338 649 q 282 444 282 518 m 714 878 q 735 903 719 894 q 768 906 751 911 q 793 883 785 899 q 796 851 801 868 l 529 18 q 507 -7 522 1 q 475 -10 492 -15 q 449 12 457 -4 q 447 44 440 28 l 714 878 z "},"e":{"ha":726,"x_min":29,"x_max":703,"o":"m 118 294 q 147 212 125 250 q 202 146 169 174 q 276 102 235 118 q 364 86 318 86 q 460 105 415 86 q 539 157 504 124 q 569 169 551 169 q 600 157 588 169 q 613 126 613 144 q 600 96 613 108 q 497 23 554 44 q 364 1 439 1 q 234 26 294 1 q 128 96 174 51 q 56 201 82 140 q 29 335 29 263 q 55 465 29 404 q 126 570 81 525 q 233 642 171 615 q 367 672 294 669 q 492 646 433 672 q 597 575 551 619 q 670 471 643 531 q 700 343 697 411 q 688 307 703 319 q 657 294 674 294 l 118 294 m 364 585 q 277 569 318 585 q 203 526 236 553 q 149 461 171 499 q 119 381 128 424 l 610 381 q 579 461 601 424 q 524 526 557 499 q 451 569 492 553 q 364 585 410 585 z "},"Ñ":{"ha":735,"x_min":38,"x_max":683,"o":"m 597 568 q 578 660 597 617 q 527 735 560 703 q 451 787 494 768 q 360 806 408 806 q 268 787 311 806 q 193 735 225 768 q 142 660 161 703 q 124 568 124 617 l 124 43 q 111 13 124 25 q 81 0 99 0 q 50 13 63 0 q 38 43 38 25 l 38 568 q 63 694 38 635 q 131 797 88 753 q 234 866 175 840 q 360 892 293 892 q 485 866 426 892 q 588 797 544 840 q 658 694 632 753 q 683 568 683 635 l 683 43 q 671 13 683 25 q 640 0 658 0 q 610 13 622 0 q 597 43 597 25 l 597 568 m 108 994 q 93 1024 93 1006 q 106 1054 93 1042 q 138 1092 119 1072 q 178 1127 157 1111 q 222 1153 199 1143 q 271 1164 246 1164 q 328 1147 300 1164 q 384 1110 357 1131 q 435 1074 411 1090 q 478 1057 458 1057 q 508 1066 493 1057 q 536 1088 524 1075 q 558 1113 549 1100 q 574 1136 568 1126 q 599 1154 583 1150 q 628 1150 614 1158 q 647 1124 643 1140 q 642 1094 650 1108 q 614 1051 631 1072 q 576 1013 597 1029 q 529 986 554 996 q 478 976 504 976 q 422 993 449 976 q 370 1029 396 1010 q 320 1065 344 1049 q 271 1082 296 1082 q 239 1074 254 1082 q 210 1053 224 1065 q 185 1026 196 1040 q 164 1001 174 1013 q 138 985 154 988 q 108 994 122 983 z "},"Î":{"ha":192,"x_min":-158,"x_max":343,"o":"m 42 847 q 54 878 42 865 q 85 890 67 890 q 115 878 103 890 q 128 847 128 865 l 128 43 q 115 13 128 25 q 85 0 103 0 q 54 13 67 0 q 42 43 42 25 l 42 847 m 92 1133 l -85 953 q -115 940 -97 940 q -146 953 -133 940 q -158 983 -158 965 q -146 1014 -158 1001 l 61 1226 q 92 1239 74 1239 q 122 1226 110 1239 l 124 1225 l 331 1017 q 343 986 343 1004 q 331 956 343 968 q 300 943 318 943 q 269 956 282 943 l 92 1133 z "},"Ï":{"ha":192,"x_min":-132,"x_max":299,"o":"m 42 847 q 54 878 42 865 q 85 890 67 890 q 115 878 103 890 q 128 847 128 865 l 128 43 q 115 13 128 25 q 85 0 103 0 q 54 13 67 0 q 42 43 42 25 l 42 847 m -132 1068 q -115 1108 -132 1092 q -75 1125 -99 1125 q -35 1108 -51 1125 q -18 1068 -18 1092 q -35 1028 -18 1044 q -75 1011 -51 1011 q -115 1028 -99 1011 q -132 1068 -132 1044 m 185 1068 q 201 1108 185 1092 q 242 1125 218 1125 q 282 1108 265 1125 q 299 1068 299 1092 q 282 1028 299 1044 q 242 1011 265 1011 q 201 1028 218 1011 q 185 1068 185 1044 z "},"Ô":{"ha":724,"x_min":29,"x_max":914,"o":"m 29 444 q 64 617 29 536 q 158 758 99 697 q 299 853 218 818 q 471 888 379 888 q 643 853 563 888 q 784 758 724 818 q 879 617 844 697 q 914 444 914 536 q 879 272 914 353 q 784 132 844 192 q 643 38 724 72 q 471 3 563 3 q 299 38 379 3 q 158 132 218 72 q 64 272 99 192 q 29 444 29 353 m 115 444 q 143 306 115 371 q 219 192 171 240 q 332 117 267 144 q 471 89 397 89 q 610 117 544 89 q 724 192 675 144 q 800 306 772 240 q 828 444 828 371 q 800 583 828 518 q 724 697 772 649 q 610 774 675 746 q 471 801 544 801 q 332 774 397 801 q 219 697 267 746 q 143 583 171 649 q 115 444 115 518 m 468 1140 l 292 960 q 261 947 279 947 q 231 960 243 947 q 218 990 218 972 q 231 1021 218 1008 l 438 1233 q 468 1246 450 1246 q 499 1233 486 1246 l 500 1232 l 707 1024 q 719 993 719 1011 q 707 963 719 975 q 676 950 694 950 q 646 963 658 950 l 468 1140 z "},"Õ":{"ha":724,"x_min":29,"x_max":914,"o":"m 29 444 q 64 617 29 536 q 158 758 99 697 q 299 853 218 818 q 471 888 379 888 q 643 853 563 888 q 784 758 724 818 q 879 617 844 697 q 914 444 914 536 q 879 272 914 353 q 784 132 844 192 q 643 38 724 72 q 471 3 563 3 q 299 38 379 3 q 158 132 218 72 q 64 272 99 192 q 29 444 29 353 m 115 444 q 143 306 115 371 q 219 192 171 240 q 332 117 267 144 q 471 89 397 89 q 610 117 544 89 q 724 192 675 144 q 800 306 772 240 q 828 444 828 371 q 800 583 828 518 q 724 697 772 649 q 610 774 675 746 q 471 801 544 801 q 332 774 397 801 q 219 697 267 746 q 143 583 171 649 q 115 444 115 518 m 208 994 q 193 1024 193 1006 q 206 1054 193 1042 q 238 1092 219 1072 q 278 1127 257 1111 q 322 1153 299 1143 q 371 1164 346 1164 q 428 1147 400 1164 q 484 1110 457 1131 q 535 1074 511 1090 q 578 1057 558 1057 q 608 1066 593 1057 q 636 1088 624 1075 q 658 1113 649 1100 q 674 1136 668 1126 q 699 1154 683 1150 q 728 1150 714 1158 q 747 1124 743 1140 q 742 1094 750 1108 q 714 1051 731 1072 q 676 1013 697 1029 q 629 986 654 996 q 578 976 604 976 q 522 993 549 976 q 470 1029 496 1010 q 420 1065 444 1049 q 371 1082 396 1082 q 339 1074 354 1082 q 310 1053 324 1065 q 285 1026 296 1040 q 264 1001 274 1013 q 238 985 254 988 q 208 994 222 983 z "},"Ò":{"ha":724,"x_min":29,"x_max":914,"o":"m 29 444 q 64 617 29 536 q 158 758 99 697 q 299 853 218 818 q 471 888 379 888 q 643 853 563 888 q 784 758 724 818 q 879 617 844 697 q 914 444 914 536 q 879 272 914 353 q 784 132 844 192 q 643 38 724 72 q 471 3 563 3 q 299 38 379 3 q 158 132 218 72 q 64 272 99 192 q 29 444 29 353 m 115 444 q 143 306 115 371 q 219 192 171 240 q 332 117 267 144 q 471 89 397 89 q 610 117 544 89 q 724 192 675 144 q 800 306 772 240 q 828 444 828 371 q 800 583 828 518 q 724 697 772 649 q 610 774 675 746 q 471 801 544 801 q 332 774 397 801 q 219 697 267 746 q 143 583 171 649 q 115 444 115 518 m 515 1054 q 533 1028 529 1044 q 531 996 538 1013 q 503 976 519 979 q 471 981 486 972 l 274 1096 q 255 1124 258 1107 q 260 1156 251 1140 q 285 1176 268 1171 q 318 1169 303 1181 l 515 1054 z "},"è":{"ha":736,"x_min":29,"x_max":703,"o":"m 118 294 q 147 212 125 250 q 202 146 169 174 q 276 102 235 118 q 364 86 318 86 q 460 105 415 86 q 539 157 504 124 q 569 169 551 169 q 600 157 588 169 q 613 126 613 144 q 600 96 613 108 q 497 23 554 44 q 364 1 439 1 q 234 26 294 1 q 128 96 174 51 q 56 201 82 140 q 29 335 29 263 q 55 465 29 404 q 126 570 81 525 q 233 642 171 615 q 367 672 294 669 q 492 646 433 672 q 597 575 551 619 q 670 471 643 531 q 700 343 697 411 q 688 307 703 319 q 657 294 674 294 l 118 294 m 364 585 q 277 569 318 585 q 203 526 236 553 q 149 461 171 499 q 119 381 128 424 l 610 381 q 579 461 601 424 q 524 526 557 499 q 451 569 492 553 q 364 585 410 585 m 394 842 q 413 816 408 832 q 410 783 417 800 q 382 763 399 767 q 350 768 365 760 l 153 883 q 134 911 138 894 q 139 943 131 928 q 165 963 147 958 q 197 957 182 968 l 394 842 z "},"é":{"ha":736,"x_min":29,"x_max":703,"o":"m 118 294 q 147 212 125 250 q 202 146 169 174 q 276 102 235 118 q 364 86 318 86 q 460 105 415 86 q 539 157 504 124 q 569 169 551 169 q 600 157 588 169 q 613 126 613 144 q 600 96 613 108 q 497 23 554 44 q 364 1 439 1 q 234 26 294 1 q 128 96 174 51 q 56 201 82 140 q 29 335 29 263 q 55 465 29 404 q 126 570 81 525 q 233 642 171 615 q 367 672 294 669 q 492 646 433 672 q 597 575 551 619 q 670 471 643 531 q 700 343 697 411 q 688 307 703 319 q 657 294 674 294 l 118 294 m 364 585 q 277 569 318 585 q 203 526 236 553 q 149 461 171 499 q 119 381 128 424 l 610 381 q 579 461 601 424 q 524 526 557 499 q 451 569 492 553 q 364 585 410 585 m 507 958 q 540 965 522 969 q 565 944 557 960 q 570 913 574 929 q 551 885 567 896 l 354 769 q 322 765 339 761 q 294 785 306 768 q 292 817 288 801 q 310 843 296 833 l 507 958 z "},"ê":{"ha":736,"x_min":29,"x_max":703,"o":"m 118 294 q 147 212 125 250 q 202 146 169 174 q 276 102 235 118 q 364 86 318 86 q 460 105 415 86 q 539 157 504 124 q 569 169 551 169 q 600 157 588 169 q 613 126 613 144 q 600 96 613 108 q 497 23 554 44 q 364 1 439 1 q 234 26 294 1 q 128 96 174 51 q 56 201 82 140 q 29 335 29 263 q 55 465 29 404 q 126 570 81 525 q 233 642 171 615 q 367 672 294 669 q 492 646 433 672 q 597 575 551 619 q 670 471 643 531 q 700 343 697 411 q 688 307 703 319 q 657 294 674 294 l 118 294 m 364 585 q 277 569 318 585 q 203 526 236 553 q 149 461 171 499 q 119 381 128 424 l 610 381 q 579 461 601 424 q 524 526 557 499 q 451 569 492 553 q 364 585 410 585 m 360 956 l 183 775 q 153 763 171 763 q 122 775 135 763 q 110 806 110 788 q 122 836 110 824 l 329 1049 q 360 1061 342 1061 q 390 1049 378 1061 l 392 1047 l 599 839 q 611 808 611 826 q 599 778 611 790 q 568 765 586 765 q 538 778 550 765 l 360 956 z "},"Ó":{"ha":724,"x_min":29,"x_max":914,"o":"m 29 444 q 64 617 29 536 q 158 758 99 697 q 299 853 218 818 q 471 888 379 888 q 643 853 563 888 q 784 758 724 818 q 879 617 844 697 q 914 444 914 536 q 879 272 914 353 q 784 132 844 192 q 643 38 724 72 q 471 3 563 3 q 299 38 379 3 q 158 132 218 72 q 64 272 99 192 q 29 444 29 353 m 115 444 q 143 306 115 371 q 219 192 171 240 q 332 117 267 144 q 471 89 397 89 q 610 117 544 89 q 724 192 675 144 q 800 306 772 240 q 828 444 828 371 q 800 583 828 518 q 724 697 772 649 q 610 774 675 746 q 471 801 544 801 q 332 774 397 801 q 219 697 267 746 q 143 583 171 649 q 115 444 115 518 m 638 1171 q 670 1177 653 1182 q 696 1157 688 1172 q 701 1125 704 1142 q 682 1097 697 1108 l 485 982 q 453 977 469 974 q 425 997 436 981 q 422 1030 418 1014 q 440 1056 426 1046 l 638 1171 z "},"ˇ":{"ha":543,"x_min":21,"x_max":522,"o":"m 449 1183 q 479 1196 461 1196 q 510 1183 497 1196 q 522 1153 522 1171 q 510 1122 522 1135 l 303 914 l 301 913 q 271 900 289 900 q 240 913 253 900 l 33 1125 q 21 1156 21 1138 q 33 1186 21 1174 q 64 1199 46 1199 q 94 1186 82 1199 l 271 1006 l 449 1183 z "},"Ž":{"ha":701,"x_min":24,"x_max":669,"o":"m 24 849 q 36 879 24 867 q 67 892 49 892 l 626 892 q 657 879 644 892 q 669 849 669 867 q 663 828 669 838 q 658 819 657 818 l 143 86 l 626 86 q 657 74 644 86 q 669 43 669 61 q 657 13 669 25 q 626 0 644 0 l 67 0 q 36 13 49 0 q 24 43 24 25 q 32 69 24 54 l 546 806 l 67 806 q 36 818 49 806 q 24 849 24 831 m 528 1231 q 558 1243 540 1243 q 589 1231 576 1243 q 601 1200 601 1218 q 589 1169 601 1182 l 382 961 l 381 960 q 350 947 368 947 q 319 960 332 947 l 113 1172 q 100 1203 100 1185 q 113 1233 100 1221 q 143 1246 125 1246 q 174 1233 161 1246 l 350 1053 l 528 1231 z "},"Š":{"ha":829,"x_min":211,"x_max":839,"o":"m 740 679 q 722 727 739 704 q 677 768 706 750 q 611 797 649 786 q 532 807 574 807 q 451 797 489 807 q 385 768 413 786 q 340 725 357 750 q 324 672 324 700 q 344 622 324 644 q 397 582 365 599 q 464 554 428 565 q 532 539 500 543 q 652 509 596 532 q 750 451 708 486 q 815 370 792 417 q 839 269 839 324 q 815 165 839 214 q 747 79 790 115 q 647 22 704 43 q 525 0 590 0 q 403 21 460 0 q 303 78 346 42 q 235 164 260 115 q 211 268 211 213 q 223 297 211 285 q 251 308 235 308 q 280 297 268 308 q 292 268 292 285 q 310 195 292 229 q 359 136 328 161 q 433 97 390 111 q 524 82 475 82 q 615 97 572 82 q 691 136 658 111 q 742 195 724 161 q 757 268 760 229 q 735 335 754 304 q 685 391 715 367 q 615 431 654 415 q 532 454 575 447 q 420 476 474 458 q 326 523 367 494 q 262 590 286 551 q 238 674 238 628 q 260 759 238 719 q 324 828 283 799 q 417 876 364 858 q 532 893 471 893 q 647 876 593 893 q 740 828 700 858 q 803 759 781 799 q 826 674 826 719 q 814 643 826 656 q 783 631 801 631 q 753 644 765 631 q 740 679 742 657 m 699 1231 q 729 1243 711 1243 q 760 1231 747 1243 q 772 1200 772 1218 q 760 1169 772 1182 l 553 961 l 551 960 q 521 947 539 947 q 490 960 503 947 l 283 1172 q 271 1203 271 1185 q 283 1233 271 1221 q 314 1246 296 1246 q 344 1233 332 1246 l 521 1053 l 699 1231 z "},"š":{"ha":894,"x_min":-17,"x_max":804,"o":"m 233 156 q 263 170 244 169 q 292 158 281 171 q 376 104 329 122 q 472 87 424 86 q 565 106 519 88 q 647 163 611 125 q 701 246 683 200 q 717 340 718 292 q 697 433 715 388 q 640 515 678 479 q 557 569 603 551 q 463 585 511 586 q 369 564 415 583 q 286 507 322 544 l 57 285 q 27 272 46 272 q -3 283 8 271 q -17 314 -17 296 q -6 344 -17 332 l 225 567 q 335 643 274 617 q 460 670 396 669 q 588 647 525 671 q 704 576 651 624 q 777 468 751 529 q 803 342 803 407 q 781 215 804 278 q 710 103 758 153 q 601 27 661 53 q 476 1 540 1 q 349 24 411 0 q 235 97 286 47 q 221 127 221 110 q 233 156 221 144 m 631 1010 q 661 1022 643 1022 q 692 1010 679 1022 q 704 979 704 997 q 692 949 704 961 l 485 740 l 483 739 q 453 726 471 726 q 422 739 435 726 l 215 951 q 203 982 203 964 q 215 1013 203 1000 q 246 1025 228 1025 q 276 1013 264 1025 l 453 832 l 631 1010 z "},"î":{"ha":342,"x_min":-164,"x_max":338,"o":"m 86 919 l -90 739 q -121 726 -103 726 q -151 739 -139 726 q -164 769 -164 751 q -151 800 -164 788 l 56 1013 q 86 1025 68 1025 q 117 1013 104 1025 l 118 1011 l 325 803 q 338 772 338 790 q 325 742 338 754 q 294 729 313 729 q 264 742 276 729 l 86 919 m 44 622 q 57 653 44 640 q 88 665 69 665 q 118 653 106 665 q 131 622 131 640 l 131 43 q 118 13 131 25 q 88 0 106 0 q 57 13 69 0 q 44 43 44 25 l 44 622 z "},"ï":{"ha":319,"x_min":-129,"x_max":301,"o":"m -129 857 q -112 897 -129 881 q -72 914 -96 914 q -32 897 -49 914 q -15 857 -15 881 q -32 817 -15 833 q -72 800 -49 800 q -112 817 -96 800 q -129 857 -129 833 m 188 857 q 204 897 188 881 q 244 914 221 914 q 285 897 268 914 q 301 857 301 881 q 285 817 301 833 q 244 800 268 800 q 204 817 221 800 q 188 857 188 833 m 42 622 q 54 653 42 640 q 85 665 67 665 q 115 653 103 665 q 128 622 128 640 l 128 43 q 115 13 128 25 q 85 0 103 0 q 54 13 67 0 q 42 43 42 25 l 42 622 z "},"ı":{"ha":174,"x_min":42,"x_max":128,"o":"m 42 622 q 54 653 42 640 q 85 665 67 665 q 115 653 103 665 q 128 622 128 640 l 128 43 q 115 13 128 25 q 85 0 103 0 q 54 13 67 0 q 42 43 42 25 l 42 622 z "},"¼":{"ha":750,"x_min":18,"x_max":731,"o":"m 26 749 q 22 781 18 764 q 42 807 26 797 l 197 906 q 248 913 224 924 q 272 874 272 901 l 272 439 q 260 408 272 421 q 229 396 247 396 q 199 408 211 396 q 186 439 186 421 l 186 794 l 86 733 q 53 728 71 724 q 26 749 36 733 m 471 858 q 491 884 475 875 q 524 889 507 893 q 549 867 540 882 q 553 835 557 851 l 281 29 q 258 4 274 13 q 226 0 243 -4 q 200 22 208 6 q 199 54 192 38 l 471 858 m 504 511 q 524 538 508 529 q 557 540 540 546 q 583 519 574 535 q 586 486 592 503 l 515 247 l 601 247 l 601 322 q 614 353 601 340 q 644 365 626 365 q 675 353 663 365 q 688 322 688 340 l 688 247 q 718 235 706 247 q 731 204 731 222 q 718 174 731 186 q 688 161 706 161 l 688 44 q 675 14 688 26 q 644 1 663 1 q 614 14 626 1 q 601 44 601 26 l 601 161 l 460 161 q 424 178 439 161 q 415 218 408 194 l 504 511 z "},"½":{"ha":903,"x_min":22,"x_max":888,"o":"m 31 749 q 26 781 22 764 q 46 807 31 797 l 201 906 q 252 913 228 924 q 276 874 276 901 l 276 439 q 264 408 276 421 q 233 396 251 396 q 203 408 215 396 q 190 439 190 421 l 190 794 l 90 733 q 58 728 75 724 q 31 749 40 733 m 464 368 q 481 431 465 401 q 524 483 497 461 q 586 517 550 504 q 663 529 622 529 q 740 516 704 529 q 803 481 776 503 q 847 428 831 458 q 863 364 863 399 q 843 299 863 328 q 796 244 824 271 q 760 214 785 235 q 701 165 739 196 q 601 88 663 135 l 847 88 q 876 74 864 86 q 888 44 888 61 q 876 15 888 26 q 847 1 864 3 l 483 1 q 456 11 471 1 q 440 44 440 21 q 448 70 439 60 q 464 86 457 81 q 607 200 556 158 q 685 263 658 242 q 724 293 715 288 q 758 325 740 307 q 776 364 776 343 q 766 399 776 385 q 739 424 756 414 q 702 438 722 433 q 661 443 682 443 q 626 438 644 443 q 590 425 607 433 q 563 403 574 417 q 550 374 551 390 q 536 338 549 350 q 507 325 524 325 q 478 337 492 325 q 464 368 464 349 m 476 860 q 497 885 481 876 q 529 890 513 894 q 554 868 546 883 q 558 836 563 853 l 285 29 q 263 4 278 13 q 231 0 247 -4 q 204 22 213 6 q 203 54 196 38 l 476 860 z "},"¾":{"ha":838,"x_min":22,"x_max":817,"o":"m 160 608 q 172 638 160 626 q 201 650 183 650 q 269 678 242 650 q 296 744 296 706 q 269 810 296 783 q 201 838 242 838 q 135 810 161 838 q 108 744 108 783 q 96 714 108 726 q 65 701 83 701 q 35 714 47 701 q 22 744 22 726 q 36 815 22 782 q 74 872 50 847 q 131 911 99 897 q 201 925 164 925 q 272 911 239 925 q 329 872 304 897 q 368 815 354 847 q 382 744 382 782 q 365 668 382 704 q 318 608 347 632 q 365 548 347 583 q 382 471 382 513 q 369 407 382 439 q 333 349 357 375 q 276 306 310 322 q 201 290 243 290 q 131 304 164 290 q 74 343 99 318 q 36 401 50 368 q 22 471 22 433 q 35 501 22 489 q 65 514 47 514 q 96 501 83 514 q 108 471 108 489 q 135 405 108 432 q 201 378 161 378 q 269 405 242 378 q 296 471 296 432 q 269 535 296 508 q 201 565 243 563 q 172 578 183 565 q 160 608 160 590 m 565 858 q 585 884 569 875 q 618 889 601 893 q 643 867 635 882 q 647 835 651 851 l 371 29 q 349 4 364 13 q 317 0 333 -4 q 290 22 299 6 q 289 54 282 38 l 565 858 m 590 511 q 610 538 594 529 q 643 540 626 546 q 669 519 660 535 q 672 486 678 503 l 601 247 l 688 247 l 688 322 q 700 353 688 340 q 731 365 713 365 q 761 353 749 365 q 774 322 774 340 l 774 247 q 804 235 792 247 q 817 204 817 222 q 804 174 817 186 q 774 161 792 161 l 774 44 q 761 14 774 26 q 731 1 749 1 q 700 14 713 1 q 688 44 688 26 l 688 161 l 546 161 q 510 178 525 161 q 501 218 494 194 l 590 511 z "},"€":{"ha":732,"x_min":22,"x_max":703,"o":"m 22 553 q 35 583 22 571 q 65 596 47 596 l 92 596 q 122 714 96 658 q 192 810 149 769 q 292 874 236 850 q 414 897 349 897 q 577 853 503 897 q 693 736 651 808 q 698 703 701 721 q 679 675 694 685 q 647 671 664 667 q 618 692 629 675 q 533 778 588 744 q 414 811 479 811 q 326 794 368 811 q 253 749 285 778 q 202 680 222 719 q 178 596 182 640 l 322 596 q 353 583 340 596 q 365 553 365 571 q 353 522 365 535 q 322 510 340 510 l 178 510 l 178 381 l 322 381 q 353 368 340 381 q 365 338 365 356 q 353 307 365 319 q 322 294 340 294 l 178 294 q 201 209 182 249 q 253 140 221 169 q 326 93 285 110 q 414 76 367 76 q 535 109 481 76 q 619 194 589 142 q 647 214 629 210 q 679 210 664 218 q 699 182 694 200 q 693 147 703 164 q 577 33 651 76 q 414 -10 503 -10 q 292 14 349 -10 q 192 78 235 38 q 122 175 149 119 q 92 294 96 231 l 65 294 q 35 307 47 294 q 22 338 22 319 q 35 368 22 356 q 65 381 47 381 l 92 381 l 92 510 l 65 510 q 35 522 47 510 q 22 553 22 535 z "},"Ö":{"ha":713,"x_min":29,"x_max":914,"o":"m 29 444 q 64 617 29 536 q 158 758 99 697 q 299 853 218 818 q 471 888 379 888 q 643 853 563 888 q 784 758 724 818 q 879 617 844 697 q 914 444 914 536 q 879 272 914 353 q 784 132 844 192 q 643 38 724 72 q 471 3 563 3 q 299 38 379 3 q 158 132 218 72 q 64 272 99 192 q 29 444 29 353 m 115 444 q 143 306 115 371 q 219 192 171 240 q 332 117 267 144 q 471 89 397 89 q 610 117 544 89 q 724 192 675 144 q 800 306 772 240 q 828 444 828 371 q 800 583 828 518 q 724 697 772 649 q 610 774 675 746 q 471 801 544 801 q 332 774 397 801 q 219 697 267 746 q 143 583 171 649 q 115 444 115 518 m 256 1069 q 272 1110 256 1093 q 313 1126 289 1126 q 353 1110 336 1126 q 369 1069 369 1093 q 353 1029 369 1046 q 313 1013 336 1013 q 272 1029 289 1013 q 256 1069 256 1046 m 572 1069 q 589 1110 572 1093 q 629 1126 606 1126 q 669 1110 653 1126 q 686 1069 686 1093 q 669 1029 686 1046 q 629 1013 653 1013 q 589 1029 606 1013 q 572 1069 572 1046 z "},"‘":{"ha":229,"x_min":13,"x_max":217,"o":"m 208 663 q 212 631 217 647 q 192 604 207 615 q 159 601 176 596 q 133 621 142 606 l 19 819 q 17 852 13 835 q 38 878 22 869 q 70 883 53 888 q 96 861 88 878 l 208 663 z "},"ž":{"ha":740,"x_min":35,"x_max":708,"o":"m 47 13 q 35 42 35 25 q 47 74 35 60 l 557 588 l 79 588 q 49 600 61 588 q 36 631 36 613 q 49 661 36 649 q 79 674 61 674 l 663 674 q 693 660 679 674 q 704 630 706 647 q 690 599 703 613 l 181 86 l 665 86 q 696 74 683 86 q 708 43 708 61 q 696 13 708 25 q 665 0 683 0 l 78 0 q 47 13 60 0 m 547 1010 q 578 1022 560 1022 q 608 1010 596 1022 q 621 979 621 997 q 608 949 621 961 l 401 740 l 400 739 q 369 726 388 726 q 339 739 351 726 l 132 951 q 119 982 119 964 q 132 1013 119 1000 q 163 1025 144 1025 q 193 1013 181 1025 l 369 832 l 547 1010 z "},"ì":{"ha":174,"x_min":-112,"x_max":174,"o":"m 42 622 q 54 653 42 640 q 85 665 67 665 q 115 653 103 665 q 128 622 128 640 l 128 43 q 115 13 128 25 q 85 0 103 0 q 54 13 67 0 q 42 43 42 25 l 42 622 m 151 843 q 169 817 165 833 q 167 785 174 801 q 139 765 156 768 q 107 769 122 761 l -90 885 q -109 913 -106 896 q -104 944 -112 929 q -78 965 -96 960 q -46 958 -61 969 l 151 843 z "},"í":{"ha":174,"x_min":13,"x_max":299,"o":"m 42 622 q 54 653 42 640 q 85 665 67 665 q 115 653 103 665 q 128 622 128 640 l 128 43 q 115 13 128 25 q 85 0 103 0 q 54 13 67 0 q 42 43 42 25 l 42 622 m 232 958 q 265 965 247 969 q 290 944 282 960 q 295 913 299 929 q 276 885 292 896 l 79 769 q 47 765 64 761 q 19 785 31 768 q 17 817 13 801 q 35 843 21 833 l 232 958 z "},"č":{"ha":644,"x_min":26,"x_max":613,"o":"m 536 514 q 457 563 501 544 q 361 582 413 582 q 265 563 310 582 q 185 509 219 543 q 132 429 151 475 q 113 332 113 383 q 132 235 113 281 q 185 156 151 190 q 265 103 219 122 q 361 83 310 83 q 457 102 413 83 q 536 154 501 121 q 567 167 549 167 q 597 154 585 167 q 609 123 610 142 q 593 89 608 104 q 559 60 581 76 q 508 31 538 44 q 441 8 478 17 q 361 -1 404 -1 q 231 24 292 -1 q 125 93 171 49 q 53 199 79 138 q 26 332 26 260 q 52 462 26 401 q 123 567 78 522 q 230 640 168 613 q 364 669 292 667 q 441 659 406 669 q 505 634 476 649 q 556 603 533 619 q 592 574 578 586 q 606 548 600 567 q 597 514 613 529 q 567 501 585 501 q 536 514 549 501 m 526 1008 q 557 1021 539 1021 q 588 1008 575 1021 q 600 978 600 996 q 588 947 600 960 l 381 739 l 379 738 q 349 725 367 725 q 318 738 331 725 l 111 950 q 99 981 99 963 q 111 1011 99 999 q 142 1024 124 1024 q 172 1011 160 1024 l 349 831 l 526 1008 z "},"Á":{"ha":793,"x_min":18,"x_max":775,"o":"m 768 58 q 768 26 775 42 q 744 3 761 10 q 712 3 728 -4 q 689 26 696 11 l 633 154 l 158 154 l 104 26 q 81 3 97 11 q 49 3 65 -4 q 25 26 32 10 q 25 58 18 42 l 357 860 q 372 881 361 871 q 397 892 383 892 q 422 882 411 892 q 439 860 433 872 l 768 58 m 194 240 l 599 240 l 397 731 l 194 240 m 556 1171 q 588 1177 571 1182 q 614 1157 606 1172 q 619 1125 622 1142 q 600 1097 615 1108 l 403 982 q 371 977 388 974 q 343 997 354 981 q 340 1030 336 1014 q 358 1056 344 1046 l 556 1171 z "},"É":{"ha":631,"x_min":42,"x_max":619,"o":"m 42 849 q 54 879 42 867 q 85 892 67 892 l 576 892 q 607 879 594 892 q 619 849 619 867 q 607 818 619 831 q 576 806 594 806 l 128 806 l 128 492 l 450 492 q 481 479 468 492 q 493 449 493 467 q 481 418 493 431 q 450 406 468 406 l 128 406 l 128 86 l 576 86 q 607 74 594 86 q 619 43 619 61 q 607 13 619 25 q 576 0 594 0 l 85 0 q 54 13 67 0 q 42 43 42 25 l 42 849 m 489 1171 q 522 1177 504 1182 q 547 1157 539 1172 q 552 1125 556 1142 q 533 1097 549 1108 l 336 982 q 304 977 321 974 q 276 997 288 981 q 274 1030 269 1014 q 292 1056 278 1046 l 489 1171 z "},"Ń":{"ha":721,"x_min":38,"x_max":683,"o":"m 597 568 q 578 660 597 617 q 527 735 560 703 q 451 787 494 768 q 360 806 408 806 q 268 787 311 806 q 193 735 225 768 q 142 660 161 703 q 124 568 124 617 l 124 43 q 111 13 124 25 q 81 0 99 0 q 50 13 63 0 q 38 43 38 25 l 38 568 q 63 694 38 635 q 131 797 88 753 q 234 866 175 840 q 360 892 293 892 q 485 866 426 892 q 588 797 544 840 q 658 694 632 753 q 683 568 683 635 l 683 43 q 671 13 683 25 q 640 0 658 0 q 610 13 622 0 q 597 43 597 25 l 597 568 m 533 1171 q 566 1177 549 1182 q 592 1157 583 1172 q 597 1125 600 1142 q 578 1097 593 1108 l 381 982 q 349 977 365 974 q 321 997 332 981 q 318 1030 314 1014 q 336 1056 322 1046 l 533 1171 z "},"ź":{"ha":740,"x_min":35,"x_max":708,"o":"m 47 13 q 35 42 35 25 q 47 74 35 60 l 557 588 l 79 588 q 49 600 61 588 q 36 631 36 613 q 49 661 36 649 q 79 674 61 674 l 663 674 q 693 660 679 674 q 704 630 706 647 q 690 599 703 613 l 181 86 l 665 86 q 696 74 683 86 q 708 43 708 61 q 696 13 708 25 q 665 0 683 0 l 78 0 q 47 13 60 0 m 557 957 q 590 963 572 968 q 615 943 607 958 q 620 911 624 928 q 601 883 617 894 l 404 768 q 372 763 389 760 q 344 783 356 767 q 342 816 338 800 q 360 842 346 832 l 557 957 z "},"Č":{"ha":836,"x_min":26,"x_max":807,"o":"m 113 446 q 140 307 113 372 q 216 193 168 242 q 329 116 264 144 q 468 88 394 88 q 613 117 546 88 q 729 200 681 147 q 758 217 740 213 q 789 211 775 221 q 804 177 804 199 q 792 142 804 156 q 647 38 731 75 q 468 1 564 1 q 296 36 376 1 q 156 131 215 71 q 61 273 96 192 q 26 446 26 354 q 61 619 26 538 q 156 760 96 700 q 296 856 215 821 q 468 892 376 892 q 642 856 561 892 q 785 757 724 819 q 801 729 796 746 q 797 697 807 713 q 765 679 786 681 q 728 693 743 678 q 611 771 678 736 q 468 806 544 806 q 329 777 394 806 q 216 699 264 749 q 140 585 168 650 q 113 446 113 519 m 622 1231 q 653 1243 635 1243 q 683 1231 671 1243 q 696 1200 696 1218 q 683 1169 696 1182 l 476 961 l 475 960 q 444 947 463 947 q 414 960 426 947 l 207 1172 q 194 1203 194 1185 q 207 1233 194 1221 q 238 1246 219 1246 q 268 1233 256 1246 l 444 1053 l 622 1231 z "},"Ť":{"ha":678,"x_min":10,"x_max":668,"o":"m 10 849 q 22 879 10 867 q 53 892 35 892 l 625 892 q 656 879 643 892 q 668 849 668 867 q 656 818 668 831 q 625 806 643 806 l 382 806 l 382 43 q 369 13 382 25 q 339 0 357 0 q 308 13 321 0 q 296 43 296 25 l 296 806 l 53 806 q 22 818 35 806 q 10 849 10 831 m 515 1231 q 546 1243 528 1243 q 576 1231 564 1243 q 589 1200 589 1218 q 576 1169 589 1182 l 369 961 l 368 960 q 338 947 356 947 q 307 960 319 947 l 100 1172 q 88 1203 88 1185 q 100 1233 88 1221 q 131 1246 113 1246 q 161 1233 149 1246 l 338 1053 l 515 1231 z "},"Ě":{"ha":631,"x_min":42,"x_max":619,"o":"m 42 849 q 54 879 42 867 q 85 892 67 892 l 576 892 q 607 879 594 892 q 619 849 619 867 q 607 818 619 831 q 576 806 594 806 l 128 806 l 128 492 l 450 492 q 481 479 468 492 q 493 449 493 467 q 481 418 493 431 q 450 406 468 406 l 128 406 l 128 86 l 576 86 q 607 74 594 86 q 619 43 619 61 q 607 13 619 25 q 576 0 594 0 l 85 0 q 54 13 67 0 q 42 43 42 25 l 42 849 m 506 1231 q 536 1243 518 1243 q 567 1231 554 1243 q 579 1200 579 1218 q 567 1169 579 1182 l 360 961 l 358 960 q 328 947 346 947 q 297 960 310 947 l 90 1172 q 78 1203 78 1185 q 90 1233 78 1221 q 121 1246 103 1246 q 151 1233 139 1246 l 328 1053 l 506 1231 z "},"Ň":{"ha":721,"x_min":38,"x_max":683,"o":"m 597 568 q 578 660 597 617 q 527 735 560 703 q 451 787 494 768 q 360 806 408 806 q 268 787 311 806 q 193 735 225 768 q 142 660 161 703 q 124 568 124 617 l 124 43 q 111 13 124 25 q 81 0 99 0 q 50 13 63 0 q 38 43 38 25 l 38 568 q 63 694 38 635 q 131 797 88 753 q 234 866 175 840 q 360 892 293 892 q 485 866 426 892 q 588 797 544 840 q 658 694 632 753 q 683 568 683 635 l 683 43 q 671 13 683 25 q 640 0 658 0 q 610 13 622 0 q 597 43 597 25 l 597 568 m 538 1231 q 568 1243 550 1243 q 599 1231 586 1243 q 611 1200 611 1218 q 599 1169 611 1182 l 392 961 l 390 960 q 360 947 378 947 q 329 960 342 947 l 122 1172 q 110 1203 110 1185 q 122 1233 110 1221 q 153 1246 135 1246 q 183 1233 171 1246 l 360 1053 l 538 1231 z "},"ň":{"ha":739,"x_min":35,"x_max":704,"o":"m 35 340 q 61 471 35 410 q 133 577 88 532 q 239 649 178 622 q 369 675 300 675 q 500 649 439 675 q 606 577 561 622 q 678 471 651 532 q 704 340 704 410 l 704 43 q 692 13 704 25 q 661 0 679 0 q 631 13 643 0 q 618 43 618 25 l 618 340 q 599 437 618 392 q 545 516 579 482 q 466 569 511 550 q 369 589 421 589 q 273 569 318 589 q 194 516 228 550 q 140 437 160 482 q 121 340 121 392 l 121 43 q 108 13 121 25 q 78 0 96 0 q 47 13 60 0 q 35 43 35 25 l 35 340 m 546 1010 q 576 1022 558 1022 q 607 1010 594 1022 q 619 979 619 997 q 607 949 619 961 l 400 740 l 399 739 q 368 726 386 726 q 338 739 350 726 l 131 951 q 118 982 118 964 q 131 1013 118 1000 q 161 1025 143 1025 q 192 1013 179 1025 l 368 832 l 546 1010 z "},"ś":{"ha":786,"x_min":-90,"x_max":731,"o":"m 160 156 q 189 170 171 169 q 218 158 207 171 q 303 104 256 122 q 398 87 350 86 q 492 106 446 88 q 574 163 538 125 q 627 246 610 200 q 643 340 644 292 q 623 433 642 388 q 567 515 604 479 q 483 569 529 551 q 390 585 438 586 q 295 564 342 583 q 213 507 249 544 l -17 285 q -47 272 -28 272 q -76 283 -65 271 q -90 314 -90 296 q -79 344 -90 332 l 151 567 q 261 643 200 617 q 387 670 322 669 q 515 647 451 671 q 631 576 578 624 q 703 468 678 529 q 730 342 729 407 q 708 215 731 278 q 636 103 685 153 q 527 27 588 53 q 402 1 467 1 q 275 24 338 0 q 161 97 213 47 q 147 127 147 110 q 160 156 147 144 m 594 957 q 627 963 610 968 q 653 943 644 958 q 658 911 661 928 q 639 883 654 894 l 442 768 q 410 763 426 760 q 382 783 393 767 q 379 816 375 800 q 397 842 383 832 l 594 957 z "},"Ř":{"ha":707,"x_min":38,"x_max":683,"o":"m 168 313 q 150 331 161 318 q 124 368 139 343 l 124 44 q 111 14 124 26 q 81 1 99 1 q 50 14 63 1 q 38 44 38 26 l 38 567 q 63 692 38 633 q 131 795 88 751 q 234 865 175 839 q 360 890 293 890 q 485 865 426 890 q 588 795 544 839 q 658 692 632 751 q 683 567 683 633 q 658 441 683 500 q 590 339 633 382 q 488 270 546 296 q 363 244 429 244 l 540 75 q 554 46 554 63 q 543 15 554 29 q 514 1 532 1 q 482 13 496 0 l 168 313 m 124 567 q 142 475 124 518 q 193 400 161 432 q 268 349 225 368 q 360 331 311 331 q 451 349 408 331 q 527 400 494 368 q 578 475 560 432 q 597 567 597 518 q 578 658 597 615 q 527 734 560 701 q 451 785 494 767 q 360 804 408 804 q 268 785 311 804 q 193 734 225 767 q 142 658 161 701 q 124 567 124 615 m 517 1229 q 547 1242 529 1242 q 578 1229 565 1242 q 590 1199 590 1217 q 578 1168 590 1181 l 371 960 l 369 958 q 339 946 357 946 q 308 958 321 946 l 101 1171 q 89 1201 89 1183 q 101 1232 89 1219 q 132 1244 114 1244 q 163 1232 150 1244 l 339 1051 l 517 1229 z "},"Ď":{"ha":793,"x_min":42,"x_max":767,"o":"m 85 0 q 54 13 67 0 q 42 43 42 25 l 42 849 q 54 879 42 867 q 85 892 67 892 l 324 892 q 496 856 415 892 q 637 760 576 821 q 732 617 697 699 q 767 444 767 536 q 732 272 767 353 q 637 130 697 190 q 496 35 576 69 q 324 0 415 0 l 85 0 m 681 444 q 653 584 681 518 q 576 699 625 650 q 463 777 528 749 q 324 806 397 806 l 128 806 l 128 86 l 324 86 q 463 115 397 86 q 576 192 528 143 q 653 306 625 240 q 681 444 681 371 m 518 1228 q 549 1240 531 1240 q 579 1228 567 1240 q 592 1197 592 1215 q 579 1167 592 1179 l 372 958 l 371 957 q 340 944 358 944 q 310 957 322 944 l 103 1169 q 90 1200 90 1182 q 103 1231 90 1218 q 133 1243 115 1243 q 164 1231 151 1243 l 340 1050 l 518 1228 z "},"ř":{"ha":411,"x_min":-47,"x_max":454,"o":"m 31 340 q 56 469 31 408 q 127 575 82 529 q 232 647 172 621 q 360 675 292 674 q 395 663 382 675 q 408 632 408 650 q 395 601 408 614 q 360 589 382 589 q 265 567 310 588 q 188 514 221 547 q 135 435 154 481 q 117 340 117 390 l 117 43 q 104 13 117 25 q 74 0 92 0 q 43 13 56 0 q 31 43 31 25 l 31 340 m 381 1008 q 411 1021 393 1021 q 442 1008 429 1021 q 454 978 454 996 q 442 947 454 960 l 235 739 l 233 738 q 203 725 221 725 q 172 738 185 725 l -35 950 q -47 981 -47 963 q -35 1011 -47 999 q -4 1024 -22 1024 q 26 1011 14 1024 l 203 831 l 381 1008 z "},"ě":{"ha":726,"x_min":29,"x_max":703,"o":"m 118 294 q 147 212 125 250 q 202 146 169 174 q 276 102 235 118 q 364 86 318 86 q 460 105 415 86 q 539 157 504 124 q 569 169 551 169 q 600 157 588 169 q 613 126 613 144 q 600 96 613 108 q 497 23 554 44 q 364 1 439 1 q 234 26 294 1 q 128 96 174 51 q 56 201 82 140 q 29 335 29 263 q 55 465 29 404 q 126 570 81 525 q 233 642 171 615 q 367 672 294 669 q 492 646 433 672 q 597 575 551 619 q 670 471 643 531 q 700 343 697 411 q 688 307 703 319 q 657 294 674 294 l 118 294 m 364 585 q 277 569 318 585 q 203 526 236 553 q 149 461 171 499 q 119 381 128 424 l 610 381 q 579 461 601 424 q 524 526 557 499 q 451 569 492 553 q 364 585 410 585 m 540 1008 q 571 1021 553 1021 q 601 1008 589 1021 q 614 978 614 996 q 601 947 614 960 l 394 739 l 393 738 q 363 725 381 725 q 332 738 344 725 l 125 950 q 113 981 113 963 q 125 1011 113 999 q 156 1024 138 1024 q 186 1011 174 1024 l 363 831 l 540 1008 z "},"ń":{"ha":739,"x_min":35,"x_max":704,"o":"m 35 340 q 61 471 35 410 q 133 577 88 532 q 239 649 178 622 q 369 675 300 675 q 500 649 439 675 q 606 577 561 622 q 678 471 651 532 q 704 340 704 410 l 704 43 q 692 13 704 25 q 661 0 679 0 q 631 13 643 0 q 618 43 618 25 l 618 340 q 599 437 618 392 q 545 516 579 482 q 466 569 511 550 q 369 589 421 589 q 273 569 318 589 q 194 516 228 550 q 140 437 160 482 q 121 340 121 392 l 121 43 q 108 13 121 25 q 78 0 96 0 q 47 13 60 0 q 35 43 35 25 l 35 340 m 515 958 q 548 965 531 969 q 574 944 565 960 q 578 913 582 929 q 560 885 575 896 l 363 769 q 331 765 347 761 q 303 785 314 768 q 300 817 296 801 q 318 843 304 833 l 515 958 z "},"˛":{"ha":289,"x_min":25,"x_max":267,"o":"m 185 -47 q 173 -79 185 -67 q 146 -92 161 -92 q 115 -106 126 -93 q 103 -135 103 -118 q 115 -165 103 -153 q 146 -178 128 -178 q 174 -166 163 -178 q 189 -135 186 -154 q 201 -108 189 -119 q 228 -96 213 -96 q 255 -108 243 -96 q 267 -135 267 -119 q 231 -220 267 -185 q 146 -256 196 -256 q 60 -220 96 -256 q 25 -135 25 -185 q 48 -63 25 -94 q 107 -19 71 -32 l 107 82 l 185 82 l 185 -47 z "},"Ę":{"ha":631,"x_min":42,"x_max":619,"o":"m 42 849 q 54 879 42 867 q 85 892 67 892 l 576 892 q 607 879 594 892 q 619 849 619 867 q 607 818 619 831 q 576 806 594 806 l 128 806 l 128 492 l 450 492 q 481 479 468 492 q 493 449 493 467 q 481 418 493 431 q 450 406 468 406 l 128 406 l 128 86 l 576 86 q 607 74 594 86 q 619 43 619 61 q 607 13 619 25 q 576 0 594 0 l 85 0 q 54 13 67 0 q 42 43 42 25 l 42 849 m 385 -74 q 373 -106 385 -93 q 346 -118 361 -118 q 315 -132 326 -119 q 303 -161 303 -144 q 315 -192 303 -179 q 346 -204 328 -204 q 374 -192 363 -204 q 389 -161 386 -181 q 401 -134 389 -146 q 428 -122 413 -122 q 455 -134 443 -122 q 467 -161 467 -146 q 431 -247 467 -211 q 346 -282 396 -282 q 260 -247 296 -282 q 225 -161 225 -211 q 248 -90 225 -121 q 307 -46 271 -58 l 307 56 l 385 56 l 385 -74 z "},"ą":{"ha":733,"x_min":28,"x_max":699,"o":"m 365 672 q 492 645 432 672 q 599 572 553 618 q 672 465 644 526 q 699 335 699 404 l 699 42 q 686 11 699 24 q 656 -1 674 -1 q 625 11 638 -1 q 613 42 613 24 l 613 126 q 502 38 567 75 q 363 1 438 1 q 233 26 293 1 q 126 96 172 51 q 54 201 81 140 q 28 335 28 263 q 53 465 28 404 q 124 570 79 525 q 231 642 169 615 q 365 672 293 669 m 114 335 q 133 238 114 283 q 187 159 153 193 q 266 106 221 125 q 363 86 311 86 q 457 105 413 86 q 535 157 501 124 q 590 235 569 190 q 613 335 610 281 q 593 432 613 386 q 540 512 574 478 q 460 565 506 546 q 363 585 414 585 q 266 565 311 585 q 187 512 221 546 q 133 432 153 478 q 114 335 114 386 m 407 -74 q 395 -106 407 -93 q 368 -118 383 -118 q 337 -132 349 -119 q 325 -161 325 -144 q 338 -192 325 -179 q 368 -204 350 -204 q 397 -192 385 -204 q 411 -161 408 -181 q 423 -134 411 -146 q 450 -122 435 -122 q 477 -134 465 -122 q 489 -161 489 -146 q 453 -247 489 -211 q 368 -282 418 -282 q 283 -247 318 -282 q 247 -161 247 -211 q 270 -90 247 -121 q 329 -46 293 -58 l 329 56 l 407 56 l 407 -74 z "},"ę":{"ha":726,"x_min":29,"x_max":703,"o":"m 118 294 q 147 212 125 250 q 202 146 169 174 q 276 102 235 118 q 364 86 318 86 q 460 105 415 86 q 539 157 504 124 q 569 169 551 169 q 600 157 588 169 q 613 126 613 144 q 600 96 613 108 q 497 23 554 44 q 364 1 439 1 q 234 26 294 1 q 128 96 174 51 q 56 201 82 140 q 29 335 29 263 q 55 465 29 404 q 126 570 81 525 q 233 642 171 615 q 367 672 294 669 q 492 646 433 672 q 597 575 551 619 q 670 471 643 531 q 700 343 697 411 q 688 307 703 319 q 657 294 674 294 l 118 294 m 364 585 q 277 569 318 585 q 203 526 236 553 q 149 461 171 499 q 119 381 128 424 l 610 381 q 579 461 601 424 q 524 526 557 499 q 451 569 492 553 q 364 585 410 585 m 399 -74 q 387 -106 399 -93 q 360 -118 375 -118 q 328 -132 340 -119 q 317 -161 317 -144 q 329 -192 317 -179 q 360 -204 342 -204 q 388 -192 376 -204 q 403 -161 400 -181 q 415 -134 403 -146 q 442 -122 426 -122 q 469 -134 457 -122 q 481 -161 481 -146 q 445 -247 481 -211 q 360 -282 410 -282 q 274 -247 310 -282 q 239 -161 239 -211 q 262 -90 239 -121 q 321 -46 285 -58 l 321 56 l 399 56 l 399 -74 z "},"ć":{"ha":644,"x_min":26,"x_max":613,"o":"m 536 514 q 457 563 501 544 q 361 582 413 582 q 265 563 310 582 q 185 509 219 543 q 132 429 151 475 q 113 332 113 383 q 132 235 113 281 q 185 156 151 190 q 265 103 219 122 q 361 83 310 83 q 457 102 413 83 q 536 154 501 121 q 567 167 549 167 q 597 154 585 167 q 609 123 610 142 q 593 89 608 104 q 559 60 581 76 q 508 31 538 44 q 441 8 478 17 q 361 -1 404 -1 q 231 24 292 -1 q 125 93 171 49 q 53 199 79 138 q 26 332 26 260 q 52 462 26 401 q 123 567 78 522 q 230 640 168 613 q 364 669 292 667 q 441 659 406 669 q 505 634 476 649 q 556 603 533 619 q 592 574 578 586 q 606 548 600 567 q 597 514 613 529 q 567 501 585 501 q 536 514 549 501 m 482 957 q 515 963 497 968 q 540 943 532 958 q 545 911 549 928 q 526 883 542 894 l 329 768 q 297 763 314 760 q 269 783 281 767 q 267 816 263 800 q 285 842 271 832 l 482 957 z "}}}
